STARTFONT 2.3
FONT -FontForge-Open Sans-Bold-R-Normal-Sans--36-360-72-72-P-224-ISO10646-1
SIZE 36 72 72  4
FONTBOUNDINGBOX 71 49 -23 -11
COMMENT "Generated by fontforge, http://fontforge.sourceforge.net"
COMMENT "Digitized data copyright (c) 2010-2011, Google Corporation."
STARTPROPERTIES 41
FOUNDRY "FontForge"
FAMILY_NAME "Open Sans"
WEIGHT_NAME "Bold"
SLANT "R"
SETWIDTH_NAME "Normal"
ADD_STYLE_NAME "Sans"
PIXEL_SIZE 36
POINT_SIZE 360
RESOLUTION_X 72
RESOLUTION_Y 72
SPACING "P"
AVERAGE_WIDTH 224
CHARSET_REGISTRY "ISO10646"
CHARSET_ENCODING "1"
FONTNAME_REGISTRY ""
CHARSET_COLLECTIONS "ISO8859-2 ISO8859-5 ISO8859-7 ISO8859-9 ISO8859-4 ISO10646-1"
BITS_PER_PIXEL 4
FONT_NAME "OpenSans-Bold"
FACE_NAME "Open Sans Bold"
COPYRIGHT "Digitized data copyright (c) 2010-2011, Google Corporation."
FONT_VERSION "1.10"
FONT_ASCENT 29
FONT_DESCENT 7
UNDERLINE_POSITION -4
UNDERLINE_THICKNESS 2
X_HEIGHT 19
CAP_HEIGHT 25
RAW_ASCENT 799
RAW_DESCENT 200
NORM_SPACE 9
RELATIVE_WEIGHT 70
RELATIVE_SETWIDTH 50
SUPERSCRIPT_X 0
SUPERSCRIPT_Y 17
SUPERSCRIPT_SIZE 23
SUBSCRIPT_X 0
SUBSCRIPT_Y 5
SUBSCRIPT_SIZE 23
FIGURE_WIDTH 21
AVG_LOWERCASE_WIDTH 224
AVG_UPPERCASE_WIDTH 256
ENDPROPERTIES
CHARS 938
STARTCHAR space
ENCODING 32
SWIDTH 259 0
DWIDTH 9 0
BBX 1 1 0 0
BITMAP
00
ENDCHAR
STARTCHAR exclam
ENCODING 33
SWIDTH 286 0
DWIDTH 10 0
BBX 7 26 2 0
BITMAP
DFFFFF30
CFFFFF20
BFFFFF10
AFFFFF00
AFFFFF00
9FFFFE00
8FFFFD00
7FFFFC00
6FFFFB00
6FFFFB00
5FFFFA00
4FFFF900
3FFFF800
3FFFF700
2FFFF700
1FFFF600
0FFFF500
00000000
00000000
00000000
19DEB200
9FFFFC00
DFFFFF20
DFFFFF20
9FFFFC00
19EEB200
ENDCHAR
STARTCHAR quotedbl
ENCODING 34
SWIDTH 472 0
DWIDTH 17 0
BBX 13 9 2 17
BITMAP
9FFFF303FFFF90
8FFFF202FFFF80
7FFFF101FFFF70
6FFFF000FFFF60
4FFFD000DFFF40
3FFFC000CFFF30
2FFFB000BFFF20
1FFFA000AFFF10
0FFF90009FFF00
ENDCHAR
STARTCHAR numbersign
ENCODING 35
SWIDTH 645 0
DWIDTH 23 0
BBX 23 26 0 0
BITMAP
000000009FFF4004FFF80000
00000000CFFF1007FFF50000
00000000FFFD000AFFF20000
00000003FFFA000DFFE00000
00000006FFF7001FFFB00000
00000009FFF4004FFF800000
0000000BFFF1007FFF500000
00EFFFFFFFFFFFFFFFFFFF70
00EFFFFFFFFFFFFFFFFFFF70
00EFFFFFFFFFFFFFFFFFFF70
009AAADFFFBAABFFFDAAAA50
000000AFFF2006FFF6000000
000000DFFE0009FFF3000000
000001FFFB000CFFF0000000
000004FFF8000FFFC0000000
3FFFFFFFFFFFFFFFFFFFF400
3FFFFFFFFFFFFFFFFFFFF400
3FFFFFFFFFFFFFFFFFFFF400
2999AFFFE999EFFF99999200
00003FFFA000EFFD00000000
00005FFF7002FFFB00000000
00008FFF4005FFF800000000
0000BFFF1008FFF500000000
0000DFFE000BFFF200000000
0001FFFB000DFFE000000000
0004FFF8001FFFC000000000
ENDCHAR
STARTCHAR dollar
ENCODING 36
SWIDTH 570 0
DWIDTH 21 0
BBX 19 30 1 -3
BITMAP
00000000DF8000000000
00000000DF8000000000
00000000DF8000000000
000016ACFFFECA730000
0018FFFFFFFFFFFFD600
01CFFFFFFFFFFFFFF700
0AFFFFFFFFFFFFFFE100
2FFFFFE9EFB8ADFF9000
6FFFFF20DF8000383000
6FFFFE00DF8000000000
5FFFFF70DF8000000000
1EFFFFFCEF8000000000
07FFFFFFFFB200000000
009FFFFFFFFFB5000000
0005EFFFFFFFFFC30000
000017DFFFFFFFFF6000
00000004EFFFFFFFF400
00000000DFCEFFFFFC00
00000000DF81BFFFFF10
00000000DF802FFFFF30
6B510000DF805FFFFF10
6FFFB853EFA8EFFFFD00
6FFFFFFFFFFFFFFFF500
6FFFFFFFFFFFFFFF8000
4DFFFFFFFFFFFFD60000
0037ACEFFFEC95000000
00000000DF8000000000
00000000DF8000000000
00000000DF8000000000
00000000DF8000000000
ENDCHAR
STARTCHAR percent
ENCODING 37
SWIDTH 900 0
DWIDTH 32 0
BBX 31 26 1 0
BITMAP
0007CEFD920000000002EFFF20000000
01CFFFFFFE3000000009FFF900000000
0AFFFFFFFFE10000003FFFE100000000
3FFFFDCFFFF8000000BFFF8000000000
7FFFE10AFFFD000004FFFE1000000000
AFFFB005FFFF20000CFFF60000000000
CFFF9003FFFF40005FFFD00000000000
DFFF8002FFFF5000DFFF500000000000
DFFF8002FFFF4007FFFB000000000000
CFFF9003FFFF401EFFF3000000000000
AFFFB005FFFF208FFFA007CEED910000
7FFFE10AFFFE02FFFF21CFFFFFFE3000
2FFFFDBFFFF90AFFF80AFFFFFFFFE100
09FFFFFFFFE23FFFE13FFFFDCFFFF800
00BFFFFFFE40BFFF707FFFE10AFFFD00
0006CEFD9205FFFD00AFFFB005FFFF10
00000000000DFFF600CFFF9003FFFF40
00000000006FFFC000DFFF8002FFFF50
0000000001EFFF4000DFFF8002FFFF40
0000000007FFFB0000CFFF9003FFFF40
000000001EFFF30000AFFFB005FFFF20
000000009FFF9000007FFFE10AFFFE00
00000002FFFE2000002FFFFDBFFFF900
0000000AFFF800000009FFFFFFFFE200
0000004FFFE100000000BFFFFFFE4000
000000CFFF600000000006CEFD920000
ENDCHAR
STARTCHAR ampersand
ENCODING 38
SWIDTH 750 0
DWIDTH 27 0
BBX 26 26 1 0
BITMAP
0000006ADEFEB7100000000000
00003DFFFFFFFFE60000000000
0003EFFFFFFFFFFF5000000000
000CFFFFFFFFFFFFE000000000
003FFFFF9438FFFFF400000000
005FFFFC0000BFFFF500000000
004FFFFA0000AFFFF400000000
002FFFFD0003EFFFE100000000
000DFFFF704EFFFF9000000000
0006FFFFFBFFFFFD1000000000
0000BFFFFFFFFFD20000000000
00002FFFFFFFFA100000000000
0004EFFFFFFF8000000CFFFFC0
007FFFFFFFFFF500002FFFFF70
05FFFFFFFFFFFF50007FFFFF20
0DFFFFF82DFFFFF600DFFFFB00
4FFFFFA002DFFFFF76FFFFF400
7FFFFF30002DFFFFFEFFFFC000
8FFFFF200001CFFFFFFFFF4000
7FFFFF5000001CFFFFFFF90000
5FFFFFE3000004FFFFFFD10000
1EFFFFFFB989DFFFFFFFF70000
07FFFFFFFFFFFFFFFFFFFF7000
009FFFFFFFFFFFFFFFFFFFF700
0006EFFFFFFFFFFE74EFFFFF70
000015ACEFEDB840003EFFFFF7
ENDCHAR
STARTCHAR quotesingle
ENCODING 39
SWIDTH 266 0
DWIDTH 10 0
BBX 6 9 2 17
BITMAP
9FFFF3
8FFFF2
7FFFF1
6FFFF0
4FFFD0
3FFFC0
2FFFB0
1FFFA0
0FFF90
ENDCHAR
STARTCHAR parenleft
ENCODING 40
SWIDTH 338 0
DWIDTH 12 0
BBX 10 32 1 -6
BITMAP
00000AFFFC
00006FFFF3
0001EFFF80
0009FFFE10
002FFFF900
008FFFF200
00EFFFC000
04FFFF6000
08FFFF2000
0CFFFD0000
1FFFFA0000
3FFFF70000
5FFFF50000
7FFFF40000
8FFFF30000
8FFFF20000
8FFFF20000
8FFFF30000
7FFFF30000
5FFFF50000
4FFFF70000
1FFFFA0000
0DFFFD0000
09FFFF2000
05FFFF6000
01EFFFB000
009FFFF200
002FFFF800
000AFFFE10
0002EFFF80
00006FFFE2
00000AFFFB
ENDCHAR
STARTCHAR parenright
ENCODING 41
SWIDTH 338 0
DWIDTH 12 0
BBX 10 32 1 -6
BITMAP
9FFFC00000
1DFFF90000
06FFFF3000
00CFFFC000
006FFFF400
000EFFFB00
0009FFFF20
0003FFFF70
0000EFFFB0
0000AFFFF0
00007FFFF3
00004FFFF6
00002FFFF8
00001FFFFA
00000FFFFB
00000EFFFB
00000EFFFB
00000FFFFB
00000FFFFA
00002FFFF8
00004FFFF7
00007FFFF4
0000AFFFF1
0000EFFFC0
0003FFFF80
0008FFFF20
000DFFFC00
005FFFF500
00CFFFC000
05FFFF4000
1DFFF90000
8FFFC10000
ENDCHAR
STARTCHAR asterisk
ENCODING 42
SWIDTH 544 0
DWIDTH 20 0
BBX 18 17 1 10
BITMAP
0000007FFFF1000000
0000005FFFE0000000
0000004FFFC0000000
0000002FFFB0000000
1100000FFF90000020
5FC8300EFF70159DF1
7FFFFEAEFFBCFFFFF3
AFFFFFFFFFFFFFFFF4
CFFFFFFFFFFFFFFFF6
235679FFFFFD876531
000009FFFFFF300000
00005FFFDFFFD10000
0002EFFF4BFFFA0000
000CFFFC04FFFF7000
008FFFF600CFFFF300
0018FFE0004FFD6000
00002980000B710000
ENDCHAR
STARTCHAR plus
ENCODING 43
SWIDTH 570 0
DWIDTH 21 0
BBX 18 18 1 4
BITMAP
00000008DDD3000000
0000000AFFF3000000
0000000AFFF3000000
0000000AFFF3000000
0000000AFFF3000000
0000000AFFF3000000
0000000AFFF3000000
7FFFFFFFFFFFFFFFFF
7FFFFFFFFFFFFFFFFF
7FFFFFFFFFFFFFFFFF
6DDDDDDEFFFDDDDDDD
0000000AFFF3000000
0000000AFFF3000000
0000000AFFF3000000
0000000AFFF3000000
0000000AFFF3000000
0000000AFFF3000000
000000069992000000
ENDCHAR
STARTCHAR comma
ENCODING 44
SWIDTH 290 0
DWIDTH 10 0
BBX 7 9 1 -5
BITMAP
03FFFFE0
06FFFFB0
08FFFF70
0BFFFF20
0EFFFC00
2FFFF600
5FFFE100
8FFF9000
CFFF3000
ENDCHAR
STARTCHAR hyphen
ENCODING 45
SWIDTH 321 0
DWIDTH 12 0
BBX 10 5 1 7
BITMAP
EFFFFFFFF8
EFFFFFFFF8
EFFFFFFFF8
EFFFFFFFF8
5666666663
ENDCHAR
STARTCHAR period
ENCODING 46
SWIDTH 285 0
DWIDTH 10 0
BBX 7 6 2 0
BITMAP
19DEB200
9FFFFC00
DFFFFF20
DFFFFF20
9FFFFC00
19EEB200
ENDCHAR
STARTCHAR slash
ENCODING 47
SWIDTH 413 0
DWIDTH 15 0
BBX 15 26 0 0
BITMAP
0000000005FFFF80
000000000BFFFF20
000000002FFFFC00
000000007FFFF600
00000000CFFFF100
00000003FFFFA000
00000009FFFF5000
0000000EFFFE0000
0000005FFFF80000
000000AFFFF30000
000001FFFFC00000
000006FFFF700000
00000CFFFF200000
00002FFFFB000000
00008FFFF5000000
0000DFFFE1000000
0004FFFF90000000
0009FFFF40000000
001EFFFD00000000
005FFFF800000000
00BFFFF200000000
02FFFFC000000000
07FFFF6000000000
0CFFFF1000000000
3FFFFA0000000000
9FFFF40000000000
ENDCHAR
STARTCHAR zero
ENCODING 48
SWIDTH 570 0
DWIDTH 21 0
BBX 19 26 1 0
BITMAP
0000049DEFDB61000000
0001BFFFFFFFFD400000
001DFFFFFFFFFFF40000
00AFFFFFFFFFFFFE2000
03FFFFFE87BFFFFF9000
0AFFFFE20008FFFFF100
0EFFFF800001EFFFF600
3FFFFF300000AFFFFA00
5FFFFF0000007FFFFD00
8FFFFD0000005FFFFF10
9FFFFC0000003FFFFF20
AFFFFB0000003FFFFF30
AFFFFB0000002FFFFF40
AFFFFB0000002FFFFF40
AFFFFB0000003FFFFF30
9FFFFC0000003FFFFF20
7FFFFD0000005FFFFF10
5FFFFF0000007FFFFE00
2FFFFF300000AFFFFB00
0DFFFF700001EFFFF700
08FFFFE20008FFFFF300
02FFFFFE86AFFFFFC000
008FFFFFFFFFFFFF4000
000BFFFFFFFFFFF70000
00019FFFFFFFFE600000
0000039CEFDB71000000
ENDCHAR
STARTCHAR one
ENCODING 49
SWIDTH 570 0
DWIDTH 21 0
BBX 13 26 2 0
BITMAP
00000004EFFFD0
0000007FFFFFD0
00001AFFFFFFD0
0002CFFFFFFFD0
004EFFFFFFFFD0
07FFFFFEFFFFD0
8FFFFFB7FFFFD0
3FFFFA07FFFFD0
06FF7008FFFFD0
00850008FFFFD0
00000008FFFFD0
00000008FFFFD0
00000008FFFFD0
00000008FFFFD0
00000008FFFFD0
00000008FFFFD0
00000008FFFFD0
00000008FFFFD0
00000008FFFFD0
00000008FFFFD0
00000008FFFFD0
00000008FFFFD0
00000008FFFFD0
00000008FFFFD0
00000008FFFFD0
00000008FFFFD0
ENDCHAR
STARTCHAR two
ENCODING 50
SWIDTH 570 0
DWIDTH 21 0
BBX 19 26 1 0
BITMAP
000016ADEFEC83000000
0019FFFFFFFFFFA10000
04DFFFFFFFFFFFFD1000
5FFFFFFFFFFFFFFFB000
1DFFFFFC99CFFFFFF400
02EFFA200007FFFFF800
004E50000000DFFFFA00
000000000000BFFFFA00
000000000000CFFFF800
000000000001FFFFF400
000000000009FFFFE000
00000000004FFFFF6000
0000000002EFFFFC0000
000000002DFFFFE20000
00000001DFFFFE300000
0000001CFFFFE4000000
000001CFFFFE40000000
00001CFFFFE300000000
0001CFFFFD3000000000
001CFFFFD20000000000
01CFFFFC100000000000
1CFFFFFA999999999940
8FFFFFFFFFFFFFFFFF60
8FFFFFFFFFFFFFFFFF60
8FFFFFFFFFFFFFFFFF60
8FFFFFFFFFFFFFFFFF60
ENDCHAR
STARTCHAR three
ENCODING 51
SWIDTH 570 0
DWIDTH 21 0
BBX 19 26 1 0
BITMAP
00016ACEFEDB83000000
02AFFFFFFFFFFFA10000
5FFFFFFFFFFFFFFD2000
1DFFFFFFFFFFFFFFB000
04FFFEA768CFFFFFF200
009D60000009FFFFF500
001100000001FFFFF600
000000000000FFFFF400
000000000001FFFFE100
000000000009FFFF8000
0000000125BFFFFC1000
0000AFFFFFFFFFA10000
0000AFFFFFFF93000000
0000AFFFFFFFFC810000
0000AFFFFFFFFFFE5000
0000233346AFFFFFF400
000000000003EFFFFC00
000000000000AFFFFF10
0000000000008FFFFF20
000000000000CFFFFF10
882000000007FFFFFD00
9FFD975568CFFFFFF800
9FFFFFFFFFFFFFFFD100
9FFFFFFFFFFFFFFD2000
7EFFFFFFFFFFFF910000
0159BDEFFECA61000000
ENDCHAR
STARTCHAR four
ENCODING 52
SWIDTH 570 0
DWIDTH 21 0
BBX 20 26 0 0
BITMAP
000000000007FFFFD000
00000000003FFFFFD000
0000000000CFFFFFD000
0000000008FFFFFFD000
000000003FFFFFFFD000
00000001DFFFFFFFD000
00000009FFFBFFFFD000
0000004FFFE5FFFFD000
000001DFFF65FFFFD000
000009FFFB06FFFFD000
00005FFFE206FFFFD000
0001EFFF6006FFFFD000
000AFFFB0006FFFFD000
006FFFE20006FFFFD000
02EFFF600006FFFFD000
0BFFFB000006FFFFD000
5FFFFFFFFFFFFFFFFFFF
6FFFFFFFFFFFFFFFFFFF
6FFFFFFFFFFFFFFFFFFF
6FFFFFFFFFFFFFFFFFFF
133333333338FFFFE333
000000000006FFFFD000
000000000006FFFFD000
000000000006FFFFD000
000000000006FFFFD000
000000000006FFFFD000
ENDCHAR
STARTCHAR five
ENCODING 53
SWIDTH 570 0
DWIDTH 21 0
BBX 18 26 1 0
BITMAP
00CFFFFFFFFFFFFF30
00DFFFFFFFFFFFFF30
00EFFFFFFFFFFFFF30
00FFFFFFFFFFFFFF30
02FFFFF99999999920
03FFFFE00000000000
04FFFFC00000000000
05FFFFB00000000000
06FFFF900000000000
07FFFFDCEFED940000
08FFFFFFFFFFFFC200
0AFFFFFFFFFFFFFE20
0AFFFFFFFFFFFFFFC0
017DB8767AEFFFFFF5
00000000001AFFFFF9
000000000001EFFFFC
0000000000009FFFFE
0000000000008FFFFD
000000000000AFFFFC
000000000001EFFFF9
4C510000001BFFFFF5
4FFFC9767AEFFFFFD0
4FFFFFFFFFFFFFFF40
4FFFFFFFFFFFFFF600
2DFFFFFFFFFFFC3000
0048BDEFEDB8300000
ENDCHAR
STARTCHAR six
ENCODING 54
SWIDTH 570 0
DWIDTH 21 0
BBX 19 26 1 0
BITMAP
0000000159CDEFED7000
0000018FFFFFFFFF9000
00004EFFFFFFFFFF9000
0005FFFFFFFFFFFF9000
002EFFFFFD8644565000
00BFFFFE500000000000
03FFFFE2000000000000
09FFFF40000000000000
0EFFFD00000000000000
2FFFF9028CEEDA400000
5FFFF64EFFFFFFFA0000
8FFFF7EFFFFFFFFFA000
9FFFFFFFFFFFFFFFF500
AFFFFFFB5349FFFFFC00
BFFFFF9000009FFFFF10
BFFFFE0000002FFFFF40
AFFFFA0000000EFFFF50
8FFFFB0000000DFFFF60
5FFFFE0000000FFFFF40
2FFFFF5000004FFFFF20
0BFFFFD20001CFFFFD00
04FFFFFE857DFFFFF700
00AFFFFFFFFFFFFFD100
001BFFFFFFFFFFFE3000
00008FFFFFFFFFC20000
0000028CEFED94000000
ENDCHAR
STARTCHAR seven
ENCODING 55
SWIDTH 570 0
DWIDTH 21 0
BBX 19 26 1 0
BITMAP
FFFFFFFFFFFFFFFFFF60
FFFFFFFFFFFFFFFFFF60
FFFFFFFFFFFFFFFFFF60
FFFFFFFFFFFFFFFFFF50
999999999999CFFFFE00
000000000000CFFFF800
000000000003FFFFF100
00000000000AFFFFA000
00000000002FFFFF3000
00000000009FFFFC0000
0000000001EFFFF50000
0000000007FFFFE00000
000000000EFFFF700000
000000006FFFFF100000
00000000CFFFFA000000
00000004FFFFF3000000
0000000BFFFFC0000000
0000003FFFFF50000000
000000AFFFFD00000000
000002FFFFF700000000
000008FFFFF100000000
00001EFFFF9000000000
00007FFFFF3000000000
0000DFFFFB0000000000
0005FFFFF50000000000
000CFFFFD00000000000
ENDCHAR
STARTCHAR eight
ENCODING 56
SWIDTH 570 0
DWIDTH 21 0
BBX 19 26 1 0
BITMAP
000016ADEFEC94000000
0006EFFFFFFFFFC30000
008FFFFFFFFFFFFE3000
04FFFFFFFFFFFFFFD000
0AFFFFE6103BFFFFF400
0DFFFF700000DFFFF700
0DFFFF300000AFFFF700
0BFFFF600000CFFFF500
06FFFFD20006FFFFE100
01EFFFFE629FFFFF7000
004EFFFFFFFFFFF90000
0003EFFFFFFFFE600000
00004FFFFFFFF6000000
0008FFFFFFFFFFB20000
00BFFFFFEEFFFFFE3000
09FFFFF8118FFFFFE200
2FFFFF600003EFFFFA00
8FFFFA0000004FFFFF10
AFFFF60000000DFFFF40
BFFFF60000000DFFFF40
9FFFFB0000004FFFFF20
5FFFFFB41016EFFFFC00
0DFFFFFFFFFFFFFFF400
03EFFFFFFFFFFFFF7000
002BFFFFFFFFFFD40000
000038BDEFEC95000000
ENDCHAR
STARTCHAR nine
ENCODING 57
SWIDTH 570 0
DWIDTH 21 0
BBX 19 26 1 0
BITMAP
000017BDFEDA50000000
0006EFFFFFFFFD300000
008FFFFFFFFFFFF50000
05FFFFFFFFFFFFFF3000
0DFFFFFA66BFFFFFC000
5FFFFF600007FFFFF400
9FFFFC000000CFFFFA00
BFFFF80000005FFFFE00
CFFFF70000002FFFFF10
CFFFF80000002FFFFF30
BFFFFA0000006FFFFF40
8FFFFF300002EFFFFF40
4FFFFFE6337EFFFFFF30
0CFFFFFFFFFFFFFFFF20
03FFFFFFFFFFABFFFF10
004EFFFFFFFB1DFFFE00
00017CEFEB601FFFFB00
0000000000004FFFF800
000000000000BFFFF300
000000000007FFFFC000
00000000019FFFFF5000
00754457AEFFFFFA0000
01FFFFFFFFFFFFC10000
01FFFFFFFFFFFB100000
01FFFFFFFFFD50000000
01DEFFEDB73000000000
ENDCHAR
STARTCHAR colon
ENCODING 58
SWIDTH 285 0
DWIDTH 10 0
BBX 7 20 2 0
BITMAP
19EEB200
9FFFFD00
DFFFFF20
DFFFFF20
9FFFFC00
19DEB200
00000000
00000000
00000000
00000000
00000000
00000000
00000000
00000000
19DEB200
9FFFFC00
DFFFFF20
DFFFFF20
9FFFFC00
19EEB200
ENDCHAR
STARTCHAR semicolon
ENCODING 59
SWIDTH 290 0
DWIDTH 10 0
BBX 8 25 1 -5
BITMAP
019EEB20
09FFFFD0
0DFFFFF2
0DFFFFF2
09FFFFC0
019DEB20
00000000
00000000
00000000
00000000
00000000
00000000
00000000
00000000
00000000
00000000
03FFFFE0
06FFFFB0
08FFFF70
0BFFFF20
0EFFFC00
2FFFF600
5FFFE100
8FFF9000
CFFF3000
ENDCHAR
STARTCHAR less
ENCODING 60
SWIDTH 570 0
DWIDTH 21 0
BBX 18 20 1 3
BITMAP
000000000000000001
00000000000000018E
000000000000018EFF
0000000000018EFFFF
00000000018EFFFFFF
000000018EFFFFFF92
0000018EFFFFFE8200
00018EFFFFFE710000
018EFFFFFD60000000
5EFFFFFC5000000000
7FFFFF800000000000
7FFFFFFD7100000000
05CFFFFFFFA3000000
0004AFFFFFFFC61000
0000029EFFFFFFE930
000000017DFFFFFFFC
00000000005CFFFFFF
0000000000003AFFFF
0000000000000028EF
000000000000000016
ENDCHAR
STARTCHAR equal
ENCODING 61
SWIDTH 570 0
DWIDTH 21 0
BBX 18 11 1 7
BITMAP
7FFFFFFFFFFFFFFFFF
7FFFFFFFFFFFFFFFFF
7FFFFFFFFFFFFFFFFF
6DDDDDDDDDDDDDDDDD
000000000000000000
000000000000000000
000000000000000000
6DDDDDDDDDDDDDDDDD
7FFFFFFFFFFFFFFFFF
7FFFFFFFFFFFFFFFFF
7FFFFFFFFFFFFFFFFF
ENDCHAR
STARTCHAR greater
ENCODING 62
SWIDTH 570 0
DWIDTH 21 0
BBX 18 20 1 3
BITMAP
100000000000000000
7C5000000000000000
7FFC50000000000000
7FFFFC500000000000
7FFFFFFC5000000000
05CFFFFFFC50000000
0004BFFFFFFC500000
000003AFFFFFFC5000
000000029FFFFFFC50
00000000028EFFFFFC
000000000002DFFFFF
0000000004AFFFFFFF
00000016CFFFFFFE92
000039EFFFFFFE7100
005CFFFFFFFC500000
4EFFFFFFFA40000000
7FFFFFE92000000000
7FFFD7100000000000
7FC500000000000000
430000000000000000
ENDCHAR
STARTCHAR question
ENCODING 63
SWIDTH 477 0
DWIDTH 17 0
BBX 17 26 0 0
BITMAP
00038BDEFEC9400000
17DFFFFFFFFFFB2000
AFFFFFFFFFFFFFD100
4FFFFFFFFFFFFFFA00
0BFFEB7668EFFFFF10
04D61000002FFFFF40
00000000000CFFFF40
00000000000EFFFF20
00000000008FFFFD00
0000000008FFFFF500
00000002CFFFFF8000
0000003EFFFFF60000
000002EFFFFD300000
00000AFFFFB1000000
00000FFFFD00000000
00002FFFF900000000
00002FFFF800000000
000000000000000000
000000000000000000
000000000000000000
000007DEC400000000
00005FFFFE20000000
00009FFFFF50000000
00009FFFFF50000000
00005FFFFE20000000
000007DEC400000000
ENDCHAR
STARTCHAR at
ENCODING 64
SWIDTH 896 0
DWIDTH 32 0
BBX 30 29 1 -3
BITMAP
0000000000159CDEFEDA6200000000
000000002AFFFFFFFFFFFFA3000000
00000008FFFFFFFFFFFFFFFF800000
000002CFFFFFC965568CFFFFFB1000
00002DFFFF92000000003AFFFFB000
0001CFFFD30000000000006FFFF700
0009FFFD1000000000000006FFFE10
003FFFE200016BDFFECA7400BFFF70
00AFFF60005EFFFFFFFFFF303FFFD0
02FFFD0007FFFFFFFFFFFF300DFFF2
07FFF7004FFFFD7445EFFF2009FFF5
0BFFF300CFFFB10000EFFF1006FFF6
0EFFF003FFFF200000FFFF1005FFF7
1FFFC006FFFB000001FFFF0006FFF7
2FFFB008FFF8000002FFFE0006FFF5
3FFFB008FFF8000004FFFE0009FFF3
2FFFC007FFFA000008FFFD000CFFE0
1FFFD004FFFE20001EFFFE003FFFA0
0EFFF100DFFFD646DFFFFF84DFFF30
0BFFF4005FFFFFFFFFEEFFFFFFF900
07FFFA0006FFFFFFFE34FFFFFFA000
02FFFF300029DEED81003BEEC60000
009FFFD10000000000000000000000
002EFFFC2000000000000000000000
0004FFFFE7100000000026B4000000
00006FFFFFFB876678BEFFF4000000
000003DFFFFFFFFFFFFFFFF4000000
00000016DFFFFFFFFFFFFFA2000000
00000000037BDEFFEDB85100000000
ENDCHAR
STARTCHAR A
ENCODING 65
SWIDTH 689 0
DWIDTH 25 0
BBX 25 26 0 0
BITMAP
000000002FFFFFFD0000000000
000000007FFFFFFF4000000000
00000000CFFFFFFF9000000000
00000002FFFFFFFFE000000000
00000007FFFFBFFFF500000000
0000000DFFFE3FFFFA00000000
0000003FFFFB0DFFFE10000000
0000008FFFF608FFFF50000000
000000DFFFF204FFFFB0000000
000004FFFFC000EFFFF1000000
000009FFFF70009FFFF6000000
00000EFFFF30005FFFFB000000
00004FFFFD00000EFFFF200000
0000AFFFF900000AFFFF700000
0001EFFFF4000005FFFFC00000
0005FFFFFFFFFFFFFFFFF20000
000AFFFFFFFFFFFFFFFFF80000
001FFFFFFFFFFFFFFFFFFD0000
006FFFFFFFFFFFFFFFFFFF3000
00BFFFFD999999999EFFFF8000
01FFFFF70000000009FFFFE000
06FFFFF30000000005FFFFF400
0CFFFFD00000000001FFFFF900
2FFFFF900000000000BFFFFE00
7FFFFF5000000000007FFFFF50
CFFFFF1000000000003FFFFFA0
ENDCHAR
STARTCHAR B
ENCODING 66
SWIDTH 671 0
DWIDTH 24 0
BBX 20 26 3 0
BITMAP
CFFFFFFFFEECA7300000
CFFFFFFFFFFFFFFC3000
CFFFFFFFFFFFFFFFF400
CFFFFFFFFFFFFFFFFE10
CFFFFD77789DFFFFFF50
CFFFFA0000009FFFFF80
CFFFFA0000001FFFFF90
CFFFFA0000001FFFFF80
CFFFFA0000005FFFFF50
CFFFFA000026EFFFFD10
CFFFFFFFFFFFFFFFF400
CFFFFFFFFFFFFFEA3000
CFFFFFFFFFFFFFFA4000
CFFFFFFFFFFFFFFFF900
CFFFFC55557AFFFFFF60
CFFFFA0000004FFFFFD0
CFFFFA00000009FFFFF2
CFFFFA00000006FFFFF4
CFFFFA00000007FFFFF4
CFFFFA0000000BFFFFF3
CFFFFA0000007FFFFFE0
CFFFFD88889DFFFFFFA0
CFFFFFFFFFFFFFFFFE20
CFFFFFFFFFFFFFFFE400
CFFFFFFFFFFFFFFB2000
CFFFFFFFFFEEB8300000
ENDCHAR
STARTCHAR C
ENCODING 67
SWIDTH 637 0
DWIDTH 23 0
BBX 20 26 2 0
BITMAP
000000038BDEFEC95100
000004CFFFFFFFFFFFA3
00008FFFFFFFFFFFFFF6
0009FFFFFFFFFFFFFFE1
007FFFFFFFB98AEFFF90
02EFFFFFB2000004AF30
09FFFFFA000000000100
1EFFFFE1000000000000
5FFFFF70000000000000
8FFFFF20000000000000
BFFFFE00000000000000
DFFFFC00000000000000
DFFFFB00000000000000
DFFFFB00000000000000
CFFFFC00000000000000
BFFFFD00000000000000
9FFFFF10000000000000
6FFFFF50000000000000
2FFFFFC0000000000000
0CFFFFF7000000000000
05FFFFFF810000003780
00BFFFFFFEB989BEFFB0
002EFFFFFFFFFFFFFFB0
0002DFFFFFFFFFFFFFB0
000018EFFFFFFFFFFF90
00000016ADEFFEC96200
ENDCHAR
STARTCHAR D
ENCODING 68
SWIDTH 740 0
DWIDTH 27 0
BBX 22 26 3 0
BITMAP
CFFFFFFFFEDB7400000000
CFFFFFFFFFFFFFD6000000
CFFFFFFFFFFFFFFFC20000
CFFFFFFFFFFFFFFFFE3000
CFFFFD7778AEFFFFFFE200
CFFFFA0000006EFFFFFB00
CFFFFA00000002EFFFFF40
CFFFFA000000005FFFFFB0
CFFFFA000000000DFFFFE0
CFFFFA0000000008FFFFF4
CFFFFA0000000005FFFFF6
CFFFFA0000000003FFFFF7
CFFFFA0000000002FFFFF8
CFFFFA0000000002FFFFF8
CFFFFA0000000003FFFFF6
CFFFFA0000000005FFFFF5
CFFFFA0000000009FFFFF2
CFFFFA000000000EFFFFD0
CFFFFA000000007FFFFF90
CFFFFA00000005FFFFFF20
CFFFFA0000018FFFFFF900
CFFFFD8889CFFFFFFFC100
CFFFFFFFFFFFFFFFFD2000
CFFFFFFFFFFFFFFFA10000
CFFFFFFFFFFFFFB4000000
CFFFFFFFEDC96200000000
ENDCHAR
STARTCHAR E
ENCODING 69
SWIDTH 560 0
DWIDTH 20 0
BBX 15 26 3 0
BITMAP
CFFFFFFFFFFFFFF0
CFFFFFFFFFFFFFF0
CFFFFFFFFFFFFFF0
CFFFFFFFFFFFFFF0
CFFFFD7777777770
CFFFFA0000000000
CFFFFA0000000000
CFFFFA0000000000
CFFFFA0000000000
CFFFFA0000000000
CFFFFFFFFFFFFF60
CFFFFFFFFFFFFF60
CFFFFFFFFFFFFF60
CFFFFFFFFFFFFF60
CFFFFD7777777730
CFFFFA0000000000
CFFFFA0000000000
CFFFFA0000000000
CFFFFA0000000000
CFFFFA0000000000
CFFFFA0000000000
CFFFFD8888888880
CFFFFFFFFFFFFFF0
CFFFFFFFFFFFFFF0
CFFFFFFFFFFFFFF0
CFFFFFFFFFFFFFF0
ENDCHAR
STARTCHAR F
ENCODING 70
SWIDTH 548 0
DWIDTH 20 0
BBX 15 26 3 0
BITMAP
CFFFFFFFFFFFFFF0
CFFFFFFFFFFFFFF0
CFFFFFFFFFFFFFF0
CFFFFFFFFFFFFFF0
CFFFFC7777777770
CFFFF90000000000
CFFFF90000000000
CFFFF90000000000
CFFFF90000000000
CFFFF90000000000
CFFFF90000000000
CFFFFFFFFFFFFF50
CFFFFFFFFFFFFF50
CFFFFFFFFFFFFF50
CFFFFFFFFFFFFF50
CFFFFC7777777720
CFFFF90000000000
CFFFF90000000000
CFFFF90000000000
CFFFF90000000000
CFFFF90000000000
CFFFF90000000000
CFFFF90000000000
CFFFF90000000000
CFFFF90000000000
CFFFF90000000000
ENDCHAR
STARTCHAR G
ENCODING 71
SWIDTH 724 0
DWIDTH 26 0
BBX 22 26 2 0
BITMAP
0000000148BDEFEDB95100
0000017EFFFFFFFFFFFFA0
00004EFFFFFFFFFFFFFFC0
0006FFFFFFFFFFFFFFFF50
004FFFFFFFFC989BEFFE00
01EFFFFFF8100000039700
08FFFFFE40000000000000
1EFFFFF500000000000000
4FFFFFB000000000000000
8FFFFF4000000000000000
BFFFFF0000000000000000
CFFFFC00000FFFFFFFFFF3
DFFFFB00000FFFFFFFFFF3
DFFFFB00000FFFFFFFFFF3
CFFFFC00000FFFFFFFFFF3
BFFFFE0000088889FFFFF3
9FFFFF2000000002FFFFF3
6FFFFF6000000002FFFFF3
2FFFFFD100000002FFFFF3
0BFFFFF900000002FFFFF3
04FFFFFFA2000002FFFFF3
00AFFFFFFFC989ADFFFFF3
001DFFFFFFFFFFFFFFFFF3
0001CFFFFFFFFFFFFFFFF3
000007EFFFFFFFFFFFFFB2
000000159CDEFEDCA74100
ENDCHAR
STARTCHAR H
ENCODING 72
SWIDTH 765 0
DWIDTH 28 0
BBX 22 26 3 0
BITMAP
CFFFFA0000000002FFFFF4
CFFFFA0000000002FFFFF4
CFFFFA0000000002FFFFF4
CFFFFA0000000002FFFFF4
CFFFFA0000000002FFFFF4
CFFFFA0000000002FFFFF4
CFFFFA0000000002FFFFF4
CFFFFA0000000002FFFFF4
CFFFFA0000000002FFFFF4
CFFFFA0000000002FFFFF4
CFFFFFFFFFFFFFFFFFFFF4
CFFFFFFFFFFFFFFFFFFFF4
CFFFFFFFFFFFFFFFFFFFF4
CFFFFFFFFFFFFFFFFFFFF4
CFFFFD8888888889FFFFF4
CFFFFA0000000002FFFFF4
CFFFFA0000000002FFFFF4
CFFFFA0000000002FFFFF4
CFFFFA0000000002FFFFF4
CFFFFA0000000002FFFFF4
CFFFFA0000000002FFFFF4
CFFFFA0000000002FFFFF4
CFFFFA0000000002FFFFF4
CFFFFA0000000002FFFFF4
CFFFFA0000000002FFFFF4
CFFFFA0000000002FFFFF4
ENDCHAR
STARTCHAR I
ENCODING 73
SWIDTH 331 0
DWIDTH 12 0
BBX 6 26 3 0
BITMAP
CFFFFA
CFFFFA
CFFFFA
CFFFFA
CFFFFA
CFFFFA
CFFFFA
CFFFFA
CFFFFA
CFFFFA
CFFFFA
CFFFFA
CFFFFA
CFFFFA
CFFFFA
CFFFFA
CFFFFA
CFFFFA
CFFFFA
CFFFFA
CFFFFA
CFFFFA
CFFFFA
CFFFFA
CFFFFA
CFFFFA
ENDCHAR
STARTCHAR J
ENCODING 74
SWIDTH 331 0
DWIDTH 12 0
BBX 12 33 -3 -7
BITMAP
000000CFFFFA
000000CFFFFA
000000CFFFFA
000000CFFFFA
000000CFFFFA
000000CFFFFA
000000CFFFFA
000000CFFFFA
000000CFFFFA
000000CFFFFA
000000CFFFFA
000000CFFFFA
000000CFFFFA
000000CFFFFA
000000CFFFFA
000000CFFFFA
000000CFFFFA
000000CFFFFA
000000CFFFFA
000000CFFFFA
000000CFFFFA
000000CFFFFA
000000CFFFFA
000000CFFFFA
000000CFFFFA
000000EFFFF9
000002FFFFF7
00000BFFFFF3
9B9ADFFFFFD0
AFFFFFFFFF60
AFFFFFFFFB00
AFFFFFFF9000
7DEFEC930000
ENDCHAR
STARTCHAR K
ENCODING 75
SWIDTH 664 0
DWIDTH 24 0
BBX 21 26 3 0
BITMAP
CFFFFA000000009FFFFF70
CFFFFA00000006FFFFFA00
CFFFFA0000003FFFFFD100
CFFFFA000001DFFFFE2000
CFFFFA00000BFFFFF50000
CFFFFA00008FFFFF800000
CFFFFA0005FFFFFB000000
CFFFFA003EFFFFD1000000
CFFFFA01DFFFFF30000000
CFFFFA0AFFFFF600000000
CFFFFA5FFFFFA000000000
CFFFFCEFFFFF1000000000
CFFFFFFFFFFF8000000000
CFFFFFFFFFFFF200000000
CFFFFFFFFFFFFB00000000
CFFFFFE5BFFFFF60000000
CFFFFD202EFFFFE1000000
CFFFFA0007FFFFF9000000
CFFFFA0000DFFFFF400000
CFFFFA00004FFFFFD00000
CFFFFA00000AFFFFF70000
CFFFFA000001EFFFFF2000
CFFFFA0000006FFFFFB000
CFFFFA0000000CFFFFF500
CFFFFA00000003FFFFFE10
CFFFFA000000009FFFFF90
ENDCHAR
STARTCHAR L
ENCODING 76
SWIDTH 564 0
DWIDTH 20 0
BBX 17 26 3 0
BITMAP
CFFFFA000000000000
CFFFFA000000000000
CFFFFA000000000000
CFFFFA000000000000
CFFFFA000000000000
CFFFFA000000000000
CFFFFA000000000000
CFFFFA000000000000
CFFFFA000000000000
CFFFFA000000000000
CFFFFA000000000000
CFFFFA000000000000
CFFFFA000000000000
CFFFFA000000000000
CFFFFA000000000000
CFFFFA000000000000
CFFFFA000000000000
CFFFFA000000000000
CFFFFA000000000000
CFFFFA000000000000
CFFFFA000000000000
CFFFFD888888888810
CFFFFFFFFFFFFFFF20
CFFFFFFFFFFFFFFF20
CFFFFFFFFFFFFFFF20
CFFFFFFFFFFFFFFF20
ENDCHAR
STARTCHAR M
ENCODING 77
SWIDTH 942 0
DWIDTH 34 0
BBX 28 26 3 0
BITMAP
CFFFFFFC000000000000DFFFFFFB
CFFFFFFF200000000003FFFFFFFB
CFFFFFFF600000000008FFFFFFFB
CFFFFFFFB0000000000DFFFFFFFB
CFFFFFFFF1000000002FFFFFFFFB
CFFFEFFFF5000000007FFFEFFFFB
CFFFCCFFFA00000000CFFF9FFFFB
CFFFD8FFFE00000002FFFF5FFFFB
CFFFE3FFFF40000007FFFC3FFFFB
CFFFE0DFFF8000000CFFF74FFFFB
CFFFF09FFFD000002FFFF25FFFFB
CFFFF14FFFF300007FFFC05FFFFB
CFFFF10EFFF70000BFFF805FFFFB
CFFFF20AFFFC0001FFFF306FFFFB
CFFFF206FFFF1006FFFD006FFFFB
CFFFF201FFFF600BFFF8006FFFFB
CFFFF200CFFFB01FFFF3006FFFFB
CFFFF2007FFFE16FFFD0006FFFFB
CFFFF2003FFFF5BFFF80006FFFFB
CFFFF2000DFFFAFFFF30006FFFFB
CFFFF20008FFFFFFFD00006FFFFB
CFFFF20004FFFFFFF900006FFFFB
CFFFF20000EFFFFFF400006FFFFB
CFFFF20000AFFFFFE000006FFFFB
CFFFF200005FFFFF9000006FFFFB
CFFFF200001FFFFF4000006FFFFB
ENDCHAR
STARTCHAR N
ENCODING 78
SWIDTH 812 0
DWIDTH 29 0
BBX 23 26 3 0
BITMAP
CFFFFFF60000000000DFFFF0
CFFFFFFE1000000000DFFFF0
CFFFFFFF8000000000DFFFF0
CFFFFFFFF200000000DFFFF0
CFFFFFFFFA00000000DFFFF0
CFFFFFFFFF40000000DFFFF0
CFFFDEFFFFC0000000DFFFF0
CFFFD6FFFFF6000000DFFFF0
CFFFD0CFFFFE100000DFFFF0
CFFFE04FFFFF800000DFFFF0
CFFFF00BFFFFF20000DFFFF0
CFFFF102FFFFFA0000DFFFF0
CFFFF1009FFFFF4000DFFFF0
CFFFF2001EFFFFC000DFFFF0
CFFFF20007FFFFF600DFFFF0
CFFFF20000DFFFFE10CFFFF0
CFFFF200004FFFFF80BFFFF0
CFFFF200000BFFFFF2BFFFF0
CFFFF2000003FFFFFBAFFFF0
CFFFF20000009FFFFFDFFFF0
CFFFF20000001EFFFFFFFFF0
CFFFF200000007FFFFFFFFF0
CFFFF200000000DFFFFFFFF0
CFFFF2000000005FFFFFFFF0
CFFFF2000000000BFFFFFFF0
CFFFF20000000003FFFFFFF0
ENDCHAR
STARTCHAR O
ENCODING 79
SWIDTH 795 0
DWIDTH 29 0
BBX 25 26 2 0
BITMAP
000000048BDEFEDA7200000000
000005DFFFFFFFFFFFA3000000
0001AFFFFFFFFFFFFFFF600000
001CFFFFFFFFFFFFFFFFF70000
009FFFFFFFC98ADFFFFFFF4000
04FFFFFFA2000004DFFFFFD000
0BFFFFFA000000001DFFFFF500
2FFFFFE10000000004FFFFFC00
6FFFFF800000000000DFFFFF10
9FFFFF3000000000008FFFFF40
BFFFFF0000000000005FFFFF60
CFFFFD0000000000003FFFFF70
DFFFFD0000000000003FFFFF80
DFFFFD0000000000003FFFFF80
CFFFFD0000000000004FFFFF70
BFFFFF0000000000005FFFFF60
9FFFFF3000000000008FFFFF40
5FFFFF800000000000DFFFFF00
2FFFFFE10000000004FFFFFB00
0AFFFFFA000000002DFFFFF500
04FFFFFFB2000004DFFFFFD000
009FFFFFFFCA9ADFFFFFFF4000
000CFFFFFFFFFFFFFFFFF70000
0001AFFFFFFFFFFFFFFF600000
000005DFFFFFFFFFFFA3000000
000000048BDEFEDA7200000000
ENDCHAR
STARTCHAR P
ENCODING 80
SWIDTH 627 0
DWIDTH 23 0
BBX 18 26 3 0
BITMAP
CFFFFFFFFEDA720000
CFFFFFFFFFFFFF9100
CFFFFFFFFFFFFFFD10
CFFFFFFFFFFFFFFFB0
CFFFFD7779DFFFFFF4
CFFFFA000008FFFFF9
CFFFFA000000DFFFFD
CFFFFA0000009FFFFE
CFFFFA0000008FFFFE
CFFFFA000000AFFFFD
CFFFFA000001EFFFFB
CFFFFA00001BFFFFF7
CFFFFD778BFFFFFFE1
CFFFFFFFFFFFFFFF70
CFFFFFFFFFFFFFF900
CFFFFFFFFFFFFE5000
CFFFFFFFFEC9500000
CFFFFA000000000000
CFFFFA000000000000
CFFFFA000000000000
CFFFFA000000000000
CFFFFA000000000000
CFFFFA000000000000
CFFFFA000000000000
CFFFFA000000000000
CFFFFA000000000000
ENDCHAR
STARTCHAR Q
ENCODING 81
SWIDTH 795 0
DWIDTH 29 0
BBX 25 32 2 -6
BITMAP
000000048BDEFEDA7200000000
000005DFFFFFFFFFFFA3000000
0001AFFFFFFFFFFFFFFF600000
001CFFFFFFFFFFFFFFFFF70000
009FFFFFFFC98ADFFFFFFF4000
04FFFFFFA2000004DFFFFFD000
0BFFFFFA000000001DFFFFF500
2FFFFFE10000000004FFFFFC00
6FFFFF800000000000DFFFFF10
9FFFFF3000000000008FFFFF40
BFFFFF0000000000005FFFFF60
CFFFFD0000000000003FFFFF70
DFFFFD0000000000003FFFFF80
DFFFFD0000000000003FFFFF80
CFFFFD0000000000004FFFFF70
BFFFFF0000000000005FFFFF60
9FFFFF3000000000008FFFFF40
5FFFFF800000000000DFFFFF10
2FFFFFE10000000004FFFFFB00
0AFFFFFA000000002DFFFFF600
04FFFFFFB2000004DFFFFFD000
009FFFFFFFCA9ADFFFFFFF4000
000CFFFFFFFFFFFFFFFFF70000
0001AFFFFFFFFFFFFFFF700000
000005DFFFFFFFFFFFB3000000
000000048BDEFFFFFFB0000000
0000000000001CFFFFFA000000
00000000000002EFFFFF800000
000000000000005FFFFFF60000
0000000000000008FFFFFF4000
0000000000000000BFFFFFE300
00000000000000001DFFFFFD10
ENDCHAR
STARTCHAR R
ENCODING 82
SWIDTH 660 0
DWIDTH 24 0
BBX 21 26 3 0
BITMAP
CFFFFFFFEECA6100000000
CFFFFFFFFFFFFF91000000
CFFFFFFFFFFFFFFD200000
CFFFFFFFFFFFFFFFC00000
CFFFFD778AEFFFFFF50000
CFFFFA000019FFFFFA0000
CFFFFA000000DFFFFD0000
CFFFFA0000009FFFFE0000
CFFFFA0000008FFFFE0000
CFFFFA000000BFFFFC0000
CFFFFA000004FFFFF80000
CFFFFA00138EFFFFF20000
CFFFFFFFFFFFFFFF700000
CFFFFFFFFFFFFFF8000000
CFFFFFFFFFFFFD50000000
CFFFFFFFFFFFF800000000
CFFFFC779FFFFF30000000
CFFFFA000BFFFFD0000000
CFFFFA0002EFFFF8000000
CFFFFA00007FFFFF400000
CFFFFA00000CFFFFD10000
CFFFFA000003FFFFF90000
CFFFFA0000008FFFFF5000
CFFFFA0000000DFFFFE100
CFFFFA00000004FFFFFB00
CFFFFA000000009FFFFF60
ENDCHAR
STARTCHAR S
ENCODING 83
SWIDTH 550 0
DWIDTH 20 0
BBX 18 26 1 0
BITMAP
0000059CEFEDB73000
0003DFFFFFFFFFFD71
004FFFFFFFFFFFFFE1
01EFFFFFFFFFFFFF90
08FFFFFEA89BEFFF30
0DFFFFD1000004AB00
0FFFFF600000000000
0FFFFF500000000000
0EFFFFC00000000000
0AFFFFFC3000000000
04FFFFFFFB30000000
008FFFFFFFFB300000
0009FFFFFFFFFA1000
00005EFFFFFFFFD300
0000017EFFFFFFFE20
000000006DFFFFFFB0
00000000008FFFFFF2
000000000007FFFFF5
000000000000FFFFF6
340000000001FFFFF5
5FD720000009FFFFF2
5FFFFDA889DFFFFFC0
5FFFFFFFFFFFFFFF40
5FFFFFFFFFFFFFF600
3CFFFFFFFFFFFD4000
0037ADEFFEC9400000
ENDCHAR
STARTCHAR T
ENCODING 84
SWIDTH 579 0
DWIDTH 21 0
BBX 21 26 0 0
BITMAP
4FFFFFFFFFFFFFFFFFFF20
4FFFFFFFFFFFFFFFFFFF20
4FFFFFFFFFFFFFFFFFFF20
4FFFFFFFFFFFFFFFFFFF20
2888888AFFFFF988888810
00000004FFFFF200000000
00000004FFFFF200000000
00000004FFFFF200000000
00000004FFFFF200000000
00000004FFFFF200000000
00000004FFFFF200000000
00000004FFFFF200000000
00000004FFFFF200000000
00000004FFFFF200000000
00000004FFFFF200000000
00000004FFFFF200000000
00000004FFFFF200000000
00000004FFFFF200000000
00000004FFFFF200000000
00000004FFFFF200000000
00000004FFFFF200000000
00000004FFFFF200000000
00000004FFFFF200000000
00000004FFFFF200000000
00000004FFFFF200000000
00000004FFFFF200000000
ENDCHAR
STARTCHAR U
ENCODING 85
SWIDTH 755 0
DWIDTH 27 0
BBX 22 26 3 0
BITMAP
EFFFF70000000004FFFFF2
EFFFF70000000004FFFFF2
EFFFF70000000004FFFFF2
EFFFF70000000004FFFFF2
EFFFF70000000004FFFFF2
EFFFF70000000004FFFFF2
EFFFF70000000004FFFFF2
EFFFF70000000004FFFFF2
EFFFF70000000004FFFFF2
EFFFF70000000004FFFFF2
EFFFF70000000004FFFFF2
EFFFF70000000004FFFFF2
EFFFF70000000004FFFFF2
EFFFF70000000004FFFFF2
EFFFF70000000004FFFFF2
EFFFF70000000004FFFFF2
EFFFF80000000005FFFFF2
DFFFFA0000000007FFFFF1
BFFFFD000000000AFFFFE0
8FFFFF500000002FFFFFB0
3FFFFFE5000003DFFFFF60
0BFFFFFFDA9ACFFFFFFD00
02EFFFFFFFFFFFFFFFF300
003EFFFFFFFFFFFFFE4000
0001AFFFFFFFFFFFA20000
0000027ADEFEDB72000000
ENDCHAR
STARTCHAR V
ENCODING 86
SWIDTH 649 0
DWIDTH 23 0
BBX 24 26 0 0
BITMAP
DFFFFA000000000004FFFFF3
8FFFFE000000000009FFFFD0
2FFFFF40000000000DFFFF80
0CFFFF90000000003FFFFF30
07FFFFD0000000008FFFFD00
02FFFFF300000000DFFFF800
00CFFFF800000002FFFFF300
007FFFFD00000007FFFFD000
002FFFFF2000000CFFFF8000
000CFFFF7000002FFFFF3000
0007FFFFC000006FFFFD0000
0002FFFFF10000BFFFF80000
0000CFFFF60001FFFFF30000
00007FFFFB0005FFFFD00000
00002FFFFF100AFFFF800000
00000CFFFF500EFFFF300000
000007FFFF904FFFFD000000
000002FFFFD08FFFF8000000
000000CFFFF2BFFFF3000000
0000007FFFF5FFFFD0000000
0000002FFFFBFFFF80000000
0000000CFFFFFFFF30000000
00000007FFFFFFFD00000000
00000002FFFFFFF700000000
00000000CFFFFFF200000000
000000007FFFFFC000000000
ENDCHAR
STARTCHAR W
ENCODING 87
SWIDTH 966 0
DWIDTH 35 0
BBX 35 26 0 0
BITMAP
DFFFF7000000004FFFFF200000000AFFFFA0
9FFFFB000000008FFFFF600000000EFFFF70
6FFFFE00000000CFFFFF900000002FFFFF30
2FFFFF20000001FFFFFFD00000006FFFFE00
0DFFFF60000005FFFFFFF20000009FFFFA00
09FFFF90000009FFFFFFF6000000CFFFF600
05FFFFD000000CFFFEFFFA000001FFFFF300
02FFFFF100001FFFF9FFFE000004FFFFE000
00DFFFF500005FFFF4FFFF200008FFFFA000
009FFFF800009FFFC1FFFF60000BFFFF6000
005FFFFC0000DFFF90CFFFA0000EFFFF2000
001FFFFF0002FFFF609FFFE0003FFFFE0000
000DFFFF4006FFFF306FFFF3006FFFFA0000
0009FFFF7009FFFE002FFFF700AFFFF60000
0005FFFFA00DFFFA000DFFFB00DFFFF20000
0001FFFFE02FFFF60009FFFE02FFFFE00000
0000DFFFF25FFFF20005FFFF25FFFFA00000
00009FFFF58FFFE00001FFFF58FFFF600000
00005FFFF7BFFFA00000DFFF7AFFFF200000
00001FFFFADFFF6000009FFFADFFFE000000
00000CFFFDFFFF2000005FFFDFFFFA000000
000009FFFFFFFD0000001FFFFFFFF6000000
000005FFFFFFFA0000000CFFFFFFF2000000
000001FFFFFFF600000009FFFFFFD0000000
000000CFFFFFF200000005FFFFFFA0000000
0000008FFFFFD000000001FFFFFF60000000
ENDCHAR
STARTCHAR X
ENCODING 88
SWIDTH 666 0
DWIDTH 24 0
BBX 24 26 0 0
BITMAP
2FFFFFD0000000000BFFFFE2
08FFFFF7000000005FFFFF70
00DFFFFE10000001DFFFFC00
004FFFFF90000007FFFFF300
0009FFFFF300002EFFFF9000
0001EFFFFC0000AFFFFD1000
00005FFFFF6004FFFFF50000
00000BFFFFE10CFFFFB00000
000002EFFFF96FFFFE200000
0000006FFFFFEFFFF7000000
0000000CFFFFFFFFC0000000
00000003FFFFFFFF30000000
00000000AFFFFFF900000000
00000002EFFFFFFB00000000
0000000AFFFFFFFF60000000
0000005FFFFFFFFFE2000000
000001DFFFFAEFFFFB000000
000009FFFFE15FFFFF600000
00003FFFFF600BFFFFE20000
0000DFFFFC0002FFFFFB0000
0008FFFFF300008FFFFF6000
002FFFFF8000001DFFFFE100
00CFFFFE10000005FFFFFA00
06FFFFF500000000BFFFFF50
2EFFFFB0000000002FFFFFE1
AFFFFF200000000008FFFFFA
ENDCHAR
STARTCHAR Y
ENCODING 89
SWIDTH 624 0
DWIDTH 22 0
BBX 23 26 0 0
BITMAP
BFFFFF2000000000AFFFFF30
3FFFFFA000000003FFFFFA00
0AFFFFF20000000AFFFFF200
02FFFFFA0000003FFFFF9000
009FFFFF200000AFFFFE1000
002EFFFFA00003FFFFF80000
0008FFFFF2000AFFFFE10000
0001EFFFFA003FFFFF600000
00007FFFFF20AFFFFD000000
00001DFFFFA3FFFFF5000000
000006FFFFFCFFFFC0000000
000000DFFFFFFFFF40000000
0000005FFFFFFFFB00000000
0000000CFFFFFFF300000000
00000004FFFFFFA000000000
00000000BFFFFF2000000000
000000007FFFFE0000000000
000000007FFFFE0000000000
000000007FFFFE0000000000
000000007FFFFE0000000000
000000007FFFFE0000000000
000000007FFFFE0000000000
000000007FFFFE0000000000
000000007FFFFE0000000000
000000007FFFFE0000000000
000000007FFFFE0000000000
ENDCHAR
STARTCHAR Z
ENCODING 90
SWIDTH 579 0
DWIDTH 21 0
BBX 20 26 0 0
BITMAP
0CFFFFFFFFFFFFFFFFFA
0CFFFFFFFFFFFFFFFFFA
0CFFFFFFFFFFFFFFFFFA
0CFFFFFFFFFFFFFFFFF9
0688888888888FFFFFE1
0000000000008FFFFF40
000000000003FFFFF900
00000000000DFFFFD100
00000000008FFFFF4000
0000000004FFFFF80000
000000001DFFFFD00000
000000009FFFFF300000
00000005FFFFF8000000
0000001EFFFFC0000000
000000AFFFFF20000000
000005FFFFF700000000
00002EFFFFB000000000
0000BFFFFE2000000000
0006FFFFF60000000000
002EFFFFB00000000000
00CFFFFE100000000000
07FFFFFB888888888887
1FFFFFFFFFFFFFFFFFFF
2FFFFFFFFFFFFFFFFFFF
2FFFFFFFFFFFFFFFFFFF
2FFFFFFFFFFFFFFFFFFF
ENDCHAR
STARTCHAR bracketleft
ENCODING 91
SWIDTH 331 0
DWIDTH 12 0
BBX 9 32 2 -6
BITMAP
7FFFFFFFF0
7FFFFFFFF0
7FFFFFFFF0
7FFFFBBBB0
7FFFF10000
7FFFF10000
7FFFF10000
7FFFF10000
7FFFF10000
7FFFF10000
7FFFF10000
7FFFF10000
7FFFF10000
7FFFF10000
7FFFF10000
7FFFF10000
7FFFF10000
7FFFF10000
7FFFF10000
7FFFF10000
7FFFF10000
7FFFF10000
7FFFF10000
7FFFF10000
7FFFF10000
7FFFF10000
7FFFF10000
7FFFF10000
7FFFFBBBB0
7FFFFFFFF0
7FFFFFFFF0
7FFFFFFFF0
ENDCHAR
STARTCHAR backslash
ENCODING 92
SWIDTH 413 0
DWIDTH 15 0
BBX 15 26 0 0
BITMAP
9FFFF40000000000
3FFFF90000000000
0DFFFE1000000000
07FFFF5000000000
02FFFFB000000000
00BFFFF200000000
006FFFF700000000
001EFFFD00000000
000AFFFF30000000
0004FFFF90000000
0000EFFFE0000000
00008FFFF5000000
00003FFFFA000000
00000CFFFF100000
000007FFFF600000
000001FFFFC00000
000000BFFFF20000
0000005FFFF80000
0000000EFFFD0000
00000009FFFF4000
00000003FFFF9000
00000000DFFFE100
000000007FFFF500
000000002FFFFB00
000000000BFFFF20
0000000006FFFF70
ENDCHAR
STARTCHAR bracketright
ENCODING 93
SWIDTH 331 0
DWIDTH 12 0
BBX 10 32 0 -6
BITMAP
2FFFFFFFF6
2FFFFFFFF6
2FFFFFFFF6
1BBBCFFFF6
00003FFFF6
00003FFFF6
00003FFFF6
00003FFFF6
00003FFFF6
00003FFFF6
00003FFFF6
00003FFFF6
00003FFFF6
00003FFFF6
00003FFFF6
00003FFFF6
00003FFFF6
00003FFFF6
00003FFFF6
00003FFFF6
00003FFFF6
00003FFFF6
00003FFFF6
00003FFFF6
00003FFFF6
00003FFFF6
00003FFFF6
00003FFFF6
1BBBCFFFF6
2FFFFFFFF6
2FFFFFFFF6
2FFFFFFFF6
ENDCHAR
STARTCHAR asciicircum
ENCODING 94
SWIDTH 532 0
DWIDTH 19 0
BBX 19 17 0 9
BITMAP
00000006FF9000000000
0000000CFFF200000000
0000004FFFFA00000000
000000BFFFFF30000000
000003FFFFFFA0000000
00000AFFFDFFF3000000
00002FFFB4FFFB000000
00008FFF50BFFF300000
0001EFFD004FFFB00000
0007FFF7000CFFF40000
000DFFF10004FFFB0000
006FFF900000CFFF4000
00CFFF3000005FFFC000
04FFFC0000000CFFF400
0BFFF500000005FFFC00
3FFFE000000000DFFF50
AFFF80000000006FFFC0
ENDCHAR
STARTCHAR underscore
ENCODING 95
SWIDTH 411 0
DWIDTH 15 0
BBX 16 3 -1 -6
BITMAP
1777777777777776
1FFFFFFFFFFFFFFD
1FFFFFFFFFFFFFFD
ENDCHAR
STARTCHAR grave
ENCODING 96
SWIDTH 606 0
DWIDTH 22 0
BBX 11 6 5 22
BITMAP
1DFFFFF30000
02DFFFFC0000
001CFFFF9000
0000AFFFF500
000007FFFE30
0000005EFFD0
ENDCHAR
STARTCHAR a
ENCODING 97
SWIDTH 604 0
DWIDTH 22 0
BBX 18 20 1 0
BITMAP
000026ACEFEDB82000
003BFFFFFFFFFFF800
005FFFFFFFFFFFFFA0
000CFFFFFFFFFFFFF4
0005FD841017FFFFFA
0000300000009FFFFE
0000000000006FFFFF
0000000000004FFFFF
0000269BDEEEFFFFFF
003BFFFFFFFFFFFFFF
04EFFFFFFFFFFFFFFF
0DFFFFFC74326FFFFF
4FFFFF9000004FFFFF
6FFFFF1000006FFFFF
7FFFFF100001DFFFFF
5FFFFFA1014CFFFFFF
1FFFFFFFEFFFFFFFFF
09FFFFFFFFFFA9FFFF
01BFFFFFFFF903FFFF
0005BEFED93000DFFF
ENDCHAR
STARTCHAR b
ENCODING 98
SWIDTH 632 0
DWIDTH 23 0
BBX 20 27 2 0
BITMAP
3FFFFF30000000000000
3FFFFF30000000000000
3FFFFF30000000000000
3FFFFF30000000000000
3FFFFF30000000000000
3FFFFF30000000000000
3FFFFF20000000000000
3FFFFF204ADFEC710000
3FFFFF18FFFFFFFD3000
3FFFFF8FFFFFFFFFE200
3FFFFFFFFFFFFFFFFA00
3FFFFFFE855AFFFFFF30
3FFFFFF300007FFFFF80
3FFFFF9000000DFFFFC0
3FFFFF50000008FFFFF0
3FFFFF30000006FFFFF1
3FFFFF30000005FFFFF2
3FFFFF30000005FFFFF2
3FFFFF40000006FFFFF1
3FFFFF60000009FFFFF0
3FFFFFB000000EFFFFC0
3FFFFFF400008FFFFF80
3FFFFFFFA66BFFFFFF30
3FFFFFFFFFFFFFFFFA00
3FFFFDCFFFFFFFFFD200
3FFFF71BFFFFFFFD2000
3FFFF2005AEFEB600000
ENDCHAR
STARTCHAR c
ENCODING 99
SWIDTH 514 0
DWIDTH 19 0
BBX 17 20 1 0
BITMAP
0000017ADEFECA6100
00008EFFFFFFFFFE30
000BFFFFFFFFFFFE00
009FFFFFFFFFFFF900
03FFFFFFA657AFF300
09FFFFF60000015000
0EFFFFB00000000000
2FFFFF600000000000
4FFFFF300000000000
5FFFFF200000000000
5FFFFF100000000000
4FFFFF300000000000
3FFFFF500000000000
0FFFFFB00000000000
0BFFFFF60000005A00
05FFFFFFA6569DFC00
00CFFFFFFFFFFFFC00
002EFFFFFFFFFFFC00
0002BFFFFFFFFFF900
0000048CEFFEC83000
ENDCHAR
STARTCHAR d
ENCODING 100
SWIDTH 632 0
DWIDTH 23 0
BBX 19 27 1 0
BITMAP
00000000000006FFFFF0
00000000000006FFFFF0
00000000000006FFFFF0
00000000000006FFFFF0
00000000000006FFFFF0
00000000000006FFFFF0
00000000000005FFFFF0
000017CEED9305FFFFF0
0004EFFFFFFF93FFFFF0
003EFFFFFFFFF9FFFFF0
00DFFFFFFFFFFFFFFFF0
06FFFFFFA66AFFFFFFF0
0BFFFFF500004FFFFFF0
0FFFFFA0000009FFFFF0
3FFFFF50000004FFFFF0
4FFFFF20000002FFFFF0
5FFFFF10000001FFFFF0
5FFFFF10000000FFFFF0
4FFFFF20000001FFFFF0
3FFFFF40000003FFFFF0
0FFFFF90000007FFFFF0
0CFFFFF400002EFFFFF0
06FFFFFF8558EFFFFFF0
01DFFFFFFFFFFFFFFFF0
004FFFFFFFFFF6FFFFF0
0005EFFFFFFF60AFFFF0
000028CEED92005FFFF0
ENDCHAR
STARTCHAR e
ENCODING 101
SWIDTH 590 0
DWIDTH 21 0
BBX 19 20 1 0
BITMAP
0000017BDEEDA6100000
00007EFFFFFFFFE50000
000AFFFFFFFFFFFF7000
008FFFFFFDDFFFFFF400
02FFFFFB2002BFFFFC00
09FFFFD100001EFFFF30
0EFFFF70000008FFFF70
2FFFFF40000006FFFF90
4FFFFFFFFFFFFFFFFFA0
5FFFFFFFFFFFFFFFFFB0
5FFFFFFFFFFFFFFFFFB0
4FFFFF98888888888860
2FFFFF30000000000000
0EFFFF70000000000000
09FFFFE3000000001300
02FFFFFE7200136AE900
007FFFFFFFFFFFFFF900
0009FFFFFFFFFFFFF900
00005DFFFFFFFFFFF700
00000059CEFFECA62000
ENDCHAR
STARTCHAR f
ENCODING 102
SWIDTH 387 0
DWIDTH 14 0
BBX 16 27 0 0
BITMAP
0000004ADEFEDB72
00000BFFFFFFFFF5
00009FFFFFFFFFE0
0001FFFFFFFFFF90
0003FFFFFC546940
0005FFFFF2000000
0005FFFFF0000000
006DFFFFFFFFFA00
3EFFFFFFFFFFFA00
4FFFFFFFFFFFFA00
4FFFFFFFFFFFFA00
0005FFFFF1000000
0005FFFFF0000000
0005FFFFF0000000
0005FFFFF0000000
0005FFFFF0000000
0005FFFFF0000000
0005FFFFF0000000
0005FFFFF0000000
0005FFFFF0000000
0005FFFFF0000000
0005FFFFF0000000
0005FFFFF0000000
0005FFFFF0000000
0005FFFFF0000000
0005FFFFF0000000
0005FFFFF0000000
ENDCHAR
STARTCHAR g
ENCODING 103
SWIDTH 564 0
DWIDTH 20 0
BBX 20 29 0 -9
BITMAP
0000059CEFFFFFFFFFFE
0003CFFFFFFFFFFFFFFE
002EFFFFFFFFFFFFFFFC
00BFFFFE746CFFFFF510
02FFFFF30001EFFFF400
05FFFFD000009FFFF800
06FFFFB000007FFFFA00
04FFFFD000009FFFF900
01FFFFF30001EFFFF600
00AFFFFE756CFFFFE100
001DFFFFFFFFFFFF5000
00019FFFFFFFFFD40000
0002CFFEEFEDA5000000
001DFFF2000000000000
007FFFD0000000000000
008FFFFA655554310000
004FFFFFFFFFFFFFB300
0009FFFFFFFFFFFFFF50
0016DFFFFFFFFFFFFFE1
03DFFFFFFFFFFFFFFFF6
2EFFFE62000015DFFFF9
9FFFF3000000003FFFFA
CFFFC0000000002FFFF9
DFFFD0000000007FFFF5
BFFFF800000018FFFFE1
6FFFFFEA889CFFFFFF50
0BFFFFFFFFFFFFFFF600
009FFFFFFFFFFFFB3000
00027BDEFEECA7200000
ENDCHAR
STARTCHAR h
ENCODING 104
SWIDTH 657 0
DWIDTH 24 0
BBX 19 27 2 0
BITMAP
3FFFFF30000000000000
3FFFFF30000000000000
3FFFFF30000000000000
3FFFFF30000000000000
3FFFFF30000000000000
3FFFFF30000000000000
3FFFFF20000000000000
3FFFFF1039DEEDA40000
3FFFFF18FFFFFFFFA100
3FFFFE7FFFFFFFFFFA00
3FFFFFFFFFFFFFFFFF30
3FFFFFFFB657EFFFFF90
3FFFFFF700003FFFFFC0
3FFFFFD000000AFFFFE0
3FFFFF80000007FFFFE0
3FFFFF50000006FFFFE0
3FFFFF30000006FFFFE0
3FFFFF30000006FFFFE0
3FFFFF30000006FFFFE0
3FFFFF30000006FFFFE0
3FFFFF30000006FFFFE0
3FFFFF30000006FFFFE0
3FFFFF30000006FFFFE0
3FFFFF30000006FFFFE0
3FFFFF30000006FFFFE0
3FFFFF30000006FFFFE0
3FFFFF30000006FFFFE0
ENDCHAR
STARTCHAR i
ENCODING 105
SWIDTH 305 0
DWIDTH 11 0
BBX 7 27 2 0
BITMAP
06DFD600
3FFFFF30
6FFFFF60
4FFFFF40
0AFFF900
00232000
00000000
3FFFFF30
3FFFFF30
3FFFFF30
3FFFFF30
3FFFFF30
3FFFFF30
3FFFFF30
3FFFFF30
3FFFFF30
3FFFFF30
3FFFFF30
3FFFFF30
3FFFFF30
3FFFFF30
3FFFFF30
3FFFFF30
3FFFFF30
3FFFFF30
3FFFFF30
3FFFFF30
ENDCHAR
STARTCHAR j
ENCODING 106
SWIDTH 305 0
DWIDTH 11 0
BBX 12 36 -3 -9
BITMAP
0000006DFD60
000003FFFFF3
000006FFFFF6
000004FFFFF4
000000AFFF90
000000023200
000000000000
000003FFFFF3
000003FFFFF3
000003FFFFF3
000003FFFFF3
000003FFFFF3
000003FFFFF3
000003FFFFF3
000003FFFFF3
000003FFFFF3
000003FFFFF3
000003FFFFF3
000003FFFFF3
000003FFFFF3
000003FFFFF3
000003FFFFF3
000003FFFFF3
000003FFFFF3
000003FFFFF3
000003FFFFF3
000003FFFFF3
000003FFFFF3
000003FFFFF3
000004FFFFF2
000009FFFFF1
3866AFFFFFD0
4FFFFFFFFF80
4FFFFFFFFD10
4FFFFFFFD300
3BDEFEB61000
ENDCHAR
STARTCHAR k
ENCODING 107
SWIDTH 620 0
DWIDTH 22 0
BBX 21 27 2 0
BITMAP
3FFFFF3000000000000000
3FFFFF3000000000000000
3FFFFF3000000000000000
3FFFFF3000000000000000
3FFFFF3000000000000000
3FFFFF3000000000000000
3FFFFF3000000000000000
3FFFFF3000000AFFFFF600
3FFFFF3000008FFFFF7000
3FFFFF300007FFFFF90000
3FFFFF30006FFFFFA00000
3FFFFF3004FFFFFB000000
3FFFFF203EFFFFC1000000
3FFFFF12EFFFFD20000000
3FFFFF0CFFFFE200000000
3FFFFE9FFFFF4000000000
3FFFFFFFFFFFA000000000
3FFFFFFFFFFFF600000000
3FFFFFFFFFFFFE20000000
3FFFFFF92EFFFFC0000000
3FFFFF7005FFFFF9000000
3FFFFF3000AFFFFF500000
3FFFFF30001EFFFFE20000
3FFFFF300004FFFFFB0000
3FFFFF3000009FFFFF7000
3FFFFF3000001DFFFFF400
3FFFFF30000003FFFFFD10
ENDCHAR
STARTCHAR l
ENCODING 108
SWIDTH 305 0
DWIDTH 11 0
BBX 7 27 2 0
BITMAP
3FFFFF30
3FFFFF30
3FFFFF30
3FFFFF30
3FFFFF30
3FFFFF30
3FFFFF30
3FFFFF30
3FFFFF30
3FFFFF30
3FFFFF30
3FFFFF30
3FFFFF30
3FFFFF30
3FFFFF30
3FFFFF30
3FFFFF30
3FFFFF30
3FFFFF30
3FFFFF30
3FFFFF30
3FFFFF30
3FFFFF30
3FFFFF30
3FFFFF30
3FFFFF30
3FFFFF30
ENDCHAR
STARTCHAR m
ENCODING 109
SWIDTH 981 0
DWIDTH 35 0
BBX 31 20 2 0
BITMAP
3FFFF1005ADFEC83000049DEEDA40000
3FFFF41BFFFFFFFF7009FFFFFFFF9000
3FFFF9BFFFFFFFFFF59FFFFFFFFFF800
3FFFFFFFFFFFFFFFFFFFFFFFFFFFFE10
3FFFFFFF955AFFFFFFFFB658FFFFFF50
3FFFFFF500009FFFFFF900006FFFFF80
3FFFFFC000003FFFFFE100000EFFFF90
3FFFFF7000000FFFFFA000000CFFFFA0
3FFFFF5000000EFFFF8000000BFFFFA0
3FFFFF3000000EFFFF6000000BFFFFA0
3FFFFF3000000EFFFF6000000BFFFFA0
3FFFFF3000000EFFFF6000000BFFFFA0
3FFFFF3000000EFFFF6000000BFFFFA0
3FFFFF3000000EFFFF6000000BFFFFA0
3FFFFF3000000EFFFF6000000BFFFFA0
3FFFFF3000000EFFFF6000000BFFFFA0
3FFFFF3000000EFFFF6000000BFFFFA0
3FFFFF3000000EFFFF6000000BFFFFA0
3FFFFF3000000EFFFF6000000BFFFFA0
3FFFFF3000000EFFFF6000000BFFFFA0
ENDCHAR
STARTCHAR n
ENCODING 110
SWIDTH 657 0
DWIDTH 24 0
BBX 19 20 2 0
BITMAP
3FFFF10049DEEDA40000
3FFFF41AFFFFFFFFA100
3FFFF9BFFFFFFFFFFA00
3FFFFFFFFFFFFFFFFF30
3FFFFFFFB657EFFFFF90
3FFFFFF700002FFFFFC0
3FFFFFC000000AFFFFE0
3FFFFF80000007FFFFE0
3FFFFF50000006FFFFE0
3FFFFF30000006FFFFE0
3FFFFF30000006FFFFE0
3FFFFF30000006FFFFE0
3FFFFF30000006FFFFE0
3FFFFF30000006FFFFE0
3FFFFF30000006FFFFE0
3FFFFF30000006FFFFE0
3FFFFF30000006FFFFE0
3FFFFF30000006FFFFE0
3FFFFF30000006FFFFE0
3FFFFF30000006FFFFE0
ENDCHAR
STARTCHAR o
ENCODING 111
SWIDTH 619 0
DWIDTH 22 0
BBX 20 20 1 0
BITMAP
0000016ADEFEB7200000
00007EFFFFFFFFF91000
000AFFFFFFFFFFFFC100
008FFFFFFFFFFFFFFB00
02FFFFFF9658EFFFFF60
09FFFFF400002DFFFFD0
0EFFFFA0000006FFFFF3
2FFFFF50000001FFFFF7
4FFFFF20000000EFFFF9
5FFFFF10000000DFFFFA
5FFFFF10000000DFFFFA
4FFFFF30000000EFFFF8
2FFFFF50000001FFFFF7
0DFFFFA0000006FFFFF3
08FFFFF400001DFFFFD0
02FFFFFF9658EFFFFF60
007FFFFFFFFFFFFFFB00
0009FFFFFFFFFFFFC100
00006EFFFFFFFFF91000
0000016ADFFDB8200000
ENDCHAR
STARTCHAR p
ENCODING 112
SWIDTH 632 0
DWIDTH 23 0
BBX 20 29 2 -9
BITMAP
3FFFF5004ADFEC710000
3FFFF809FFFFFFFD3000
3FFFFD8FFFFFFFFFE200
3FFFFFFFFFFFFFFFFB00
3FFFFFFE8559FFFFFF30
3FFFFFF300006FFFFF90
3FFFFF9000000CFFFFC0
3FFFFF50000008FFFFF0
3FFFFF30000006FFFFF1
3FFFFF30000005FFFFF2
3FFFFF30000005FFFFF2
3FFFFF40000006FFFFF1
3FFFFF60000008FFFFF0
3FFFFFB000000DFFFFB0
3FFFFFF400007FFFFF70
3FFFFFFFA66AFFFFFF20
3FFFFFFFFFFFFFFFFA00
3FFFFECFFFFFFFFFD100
3FFFFF1BFFFFFFFD2000
3FFFFF105AEFEB600000
3FFFFF20000000000000
3FFFFF30000000000000
3FFFFF30000000000000
3FFFFF30000000000000
3FFFFF30000000000000
3FFFFF30000000000000
3FFFFF30000000000000
3FFFFF30000000000000
3FFFFF30000000000000
ENDCHAR
STARTCHAR q
ENCODING 113
SWIDTH 632 0
DWIDTH 23 0
BBX 19 29 1 -9
BITMAP
000017CEED93009FFFF0
0004EFFFFFFF80CFFFF0
003EFFFFFFFFF8EFFFF0
00DFFFFFFFFFFFFFFFF0
06FFFFFF966AFFFFFFF0
0BFFFFF400004FFFFFF0
0FFFFFA0000009FFFFF0
3FFFFF50000004FFFFF0
4FFFFF30000002FFFFF0
5FFFFF20000001FFFFF0
5FFFFF10000000FFFFF0
4FFFFF20000001FFFFF0
3FFFFF50000003FFFFF0
1FFFFF90000007FFFFF0
0CFFFFF300001DFFFFF0
06FFFFFE7447DFFFFFF0
01DFFFFFFFFFFFFFFFF0
004FFFFFFFFFF8FFFFF0
0005EFFFFFFF64FFFFF0
000028CEED9205FFFFF0
00000000000006FFFFF0
00000000000006FFFFF0
00000000000006FFFFF0
00000000000006FFFFF0
00000000000006FFFFF0
00000000000006FFFFF0
00000000000006FFFFF0
00000000000006FFFFF0
00000000000006FFFFF0
ENDCHAR
STARTCHAR r
ENCODING 114
SWIDTH 454 0
DWIDTH 16 0
BBX 14 20 2 0
BITMAP
3FFFE00018DFF7
3FFFF304EFFFF7
3FFFF64FFFFFF6
3FFFFBDFFFFFF5
3FFFFFFFFFFFF4
3FFFFFFFB51010
3FFFFFF7000000
3FFFFFB0000000
3FFFFF50000000
3FFFFF30000000
3FFFFF30000000
3FFFFF30000000
3FFFFF30000000
3FFFFF30000000
3FFFFF30000000
3FFFFF30000000
3FFFFF30000000
3FFFFF30000000
3FFFFF30000000
3FFFFF30000000
ENDCHAR
STARTCHAR s
ENCODING 115
SWIDTH 497 0
DWIDTH 18 0
BBX 16 20 1 0
BITMAP
00017BDEFEDA7200
006EFFFFFFFFFFC2
06FFFFFFFFFFFFD0
1EFFFFFFFFFFFF70
4FFFFF610149EF10
5FFFFF1000000300
4FFFFFB200000000
1FFFFFFFA4000000
08FFFFFFFFD71000
009FFFFFFFFFE500
0004CFFFFFFFFF50
000004AFFFFFFFE1
000000029FFFFFF5
0000000003FFFFF7
3300000000CFFFF7
5FD8410016FFFFF5
5FFFFFFEFFFFFFE1
5FFFFFFFFFFFFF50
5FFFFFFFFFFFE500
037BDEFFEDA61000
ENDCHAR
STARTCHAR t
ENCODING 116
SWIDTH 434 0
DWIDTH 16 0
BBX 15 25 0 0
BITMAP
0000023320000000
00000EFFB0000000
00005FFFB0000000
0000AFFFB0000000
0001FFFFB0000000
004DFFFFFFFFFF40
1AFFFFFFFFFFFF40
3FFFFFFFFFFFFF40
3FFFFFFFFFFFFF40
0009FFFFB0000000
0009FFFFB0000000
0009FFFFB0000000
0009FFFFB0000000
0009FFFFB0000000
0009FFFFB0000000
0009FFFFB0000000
0009FFFFB0000000
0009FFFFB0000000
0009FFFFC0000000
0008FFFFE1000000
0006FFFFFC556A60
0003FFFFFFFFFF70
0000BFFFFFFFFF70
00002DFFFFFFFF70
0000017CEFEDA610
ENDCHAR
STARTCHAR u
ENCODING 117
SWIDTH 657 0
DWIDTH 24 0
BBX 19 20 2 0
BITMAP
4FFFFF10000008FFFFD0
4FFFFF10000008FFFFD0
4FFFFF10000008FFFFD0
4FFFFF10000008FFFFD0
4FFFFF10000008FFFFD0
4FFFFF10000008FFFFD0
4FFFFF10000008FFFFD0
4FFFFF10000008FFFFD0
4FFFFF10000008FFFFD0
4FFFFF10000008FFFFD0
4FFFFF10000008FFFFD0
4FFFFF1000000AFFFFD0
4FFFFF2000000DFFFFD0
4FFFFF5000002FFFFFD0
2FFFFFB00000BFFFFFD0
0EFFFFFB547DFFFFFFD0
09FFFFFFFFFFFFFFFFD0
02EFFFFFFFFFF7DFFFD0
003EFFFFFFFF70AFFFD0
00017BEFEC82006FFFD0
ENDCHAR
STARTCHAR v
ENCODING 118
SWIDTH 568 0
DWIDTH 20 0
BBX 21 20 0 0
BITMAP
CFFFFC000000004FFFFF40
7FFFFF200000009FFFFE00
1FFFFF70000000EFFFF800
0AFFFFC0000004FFFFF300
05FFFFF2000009FFFFC000
00EFFFF600000EFFFF6000
009FFFFB00004FFFFF1000
003FFFFF10009FFFFA0000
000CFFFF6000EFFFF40000
0007FFFFB004FFFFE00000
0001FFFFF109FFFF800000
0000BFFFF60EFFFF300000
00005FFFFA2FFFFC000000
00000EFFFE6FFFF6000000
000009FFFF9FFFF1000000
000003FFFFDFFFA0000000
000000CFFFFFFF40000000
0000007FFFFFFE00000000
0000001FFFFFF800000000
0000000BFFFFF300000000
ENDCHAR
STARTCHAR w
ENCODING 119
SWIDTH 855 0
DWIDTH 31 0
BBX 31 20 0 0
BITMAP
8FFFFC0000009FFFFF8000000EFFFF50
3FFFFF100000DFFFFFB000003FFFFF10
0EFFFF500002FFFFFFF000007FFFFB00
0AFFFF900006FFFFFFF40000BFFFF700
06FFFFD0000AFFFBFFF70000EFFFF300
02FFFFF2000DFFF4FFFB0004FFFFE000
00CFFFF5002FFFC1FFFE0008FFFF9000
008FFFF9006FFF80CFFF300CFFFF5000
004FFFFD00AFFF509FFF701FFFFF1000
000EFFFF10DFFF105FFFA04FFFFC0000
000BFFFF51FFFD002FFFD07FFFF70000
0007FFFF74FFF9000DFFF1AFFFF30000
0002FFFFA7FFF6000AFFF3DFFFE00000
0000DFFFC9FFF30007FFF6FFFFA00000
00009FFFEBFFE00003FFFAFFFF500000
00005FFFFEFFB00000FFFEFFFF100000
00001FFFFFFF700000CFFFFFFC000000
00000BFFFFFF4000009FFFFFF8000000
000007FFFFFF1000005FFFFFF3000000
000003FFFFFC0000002FFFFFE0000000
ENDCHAR
STARTCHAR x
ENCODING 120
SWIDTH 578 0
DWIDTH 21 0
BBX 21 20 0 0
BITMAP
3FFFFFD0000002EFFFFE10
08FFFFF700000AFFFFF500
00DFFFFE20004FFFFFB000
003FFFFFA000CFFFFE2000
0009FFFFF407FFFFF60000
0001DFFFFD2EFFFFB00000
00004FFFFFDFFFFE200000
00000AFFFFFFFFF6000000
000001EFFFFFFFC0000000
0000006FFFFFFF20000000
0000009FFFFFFF60000000
000004FFFFFFFFE2000000
00001DFFFFFFFFFB000000
00009FFFFF8FFFFF600000
0004FFFFF80BFFFFE10000
001DFFFFE103FFFFFA0000
008FFFFF50008FFFFF5000
03FFFFFB00001EFFFFE100
0CFFFFF3000005FFFFFA00
8FFFFF80000000BFFFFF50
ENDCHAR
STARTCHAR y
ENCODING 121
SWIDTH 568 0
DWIDTH 20 0
BBX 21 29 0 -9
BITMAP
CFFFFF100000006FFFFF50
6FFFFF50000000BFFFFE00
1EFFFFA0000001FFFFF900
0AFFFFE1000006FFFFF300
04FFFFF500000BFFFFC000
00DFFFFA00001FFFFF7000
007FFFFE00005FFFFF2000
001FFFFF5000AFFFFB0000
000AFFFF9000EFFFF50000
0004FFFFE004FFFFE10000
0000DFFFF409FFFF900000
00008FFFF90EFFFF400000
00002FFFFD3FFFFD000000
00000BFFFF7FFFF8000000
000005FFFFBFFFF2000000
000000EFFFFFFFC0000000
0000008FFFFFFF60000000
0000002FFFFFFF10000000
0000000CFFFFFA00000000
00000006FFFFF500000000
00000005FFFFE000000000
0000000BFFFF9000000000
0000003FFFFF3000000000
000002DFFFFC0000000000
06668EFFFFF50000000000
0CFFFFFFFFB00000000000
0CFFFFFFFC100000000000
0CFFFFFFA1000000000000
09EFED9400000000000000
ENDCHAR
STARTCHAR z
ENCODING 122
SWIDTH 487 0
DWIDTH 18 0
BBX 16 20 1 0
BITMAP
7FFFFFFFFFFFFFF3
7FFFFFFFFFFFFFF3
7FFFFFFFFFFFFFF3
7FFFFFFFFFFFFFF2
111111115FFFFF70
00000001DFFFFB00
0000000AFFFFE100
0000005FFFFF5000
000002EFFFF90000
00000CFFFFD10000
00008FFFFF300000
0003FFFFF7000000
001DFFFFB0000000
00AFFFFE20000000
05FFFFF500000000
2EFFFFA111111111
CFFFFFFFFFFFFFF7
FFFFFFFFFFFFFFF7
FFFFFFFFFFFFFFF7
FFFFFFFFFFFFFFF7
ENDCHAR
STARTCHAR braceleft
ENCODING 123
SWIDTH 394 0
DWIDTH 14 0
BBX 13 32 0 -6
BITMAP
000000038CDEB0
000000AFFFFFB0
000006FFFFFFB0
00000CFFFFFFB0
00000EFFFF9200
00000EFFFD0000
00000EFFFB0000
00000EFFFA0000
00000EFFFA0000
00000EFFFA0000
00000EFFFA0000
00001FFFFA0000
00007FFFF80000
125AFFFFF40000
7FFFFFFF900000
7FFFFEA4000000
7FFFFEA5000000
7FFFFFFFB00000
135BFFFFF60000
00009FFFFA0000
00001FFFFA0000
00000EFFFA0000
00000EFFFA0000
00000EFFFA0000
00000EFFFA0000
00000EFFFB0000
00000EFFFD0000
00000EFFFF9200
00000CFFFFFFB0
000006FFFFFFB0
000000AFFFFFB0
000000048CDEB0
ENDCHAR
STARTCHAR bar
ENCODING 124
SWIDTH 550 0
DWIDTH 20 0
BBX 4 35 8 -8
BITMAP
FFFD
FFFD
FFFD
FFFD
FFFD
FFFD
FFFD
FFFD
FFFD
FFFD
FFFD
FFFD
FFFD
FFFD
FFFD
FFFD
FFFD
FFFD
FFFD
FFFD
FFFD
FFFD
FFFD
FFFD
FFFD
FFFD
FFFD
FFFD
FFFD
FFFD
FFFD
FFFD
FFFD
FFFD
FFFD
ENDCHAR
STARTCHAR braceright
ENCODING 125
SWIDTH 394 0
DWIDTH 14 0
BBX 13 32 1 -6
BITMAP
8FECA500000000
8FFFFFC1000000
8FFFFFFA000000
8FFFFFFF000000
016FFFFF100000
000AFFFF200000
0008FFFF200000
0008FFFF200000
0008FFFF200000
0008FFFF200000
0008FFFF200000
0007FFFF300000
0006FFFF900000
0002FFFFFB5210
00006FFFFFFFA0
0000039DFFFFA0
0000039DFFFFA0
00008FFFFFFFA0
0003FFFFFB5310
0007FFFFA00000
0008FFFF400000
0008FFFF200000
0008FFFF200000
0008FFFF200000
0008FFFF200000
0008FFFF200000
000AFFFF200000
017FFFFF100000
8FFFFFFF000000
8FFFFFFA000000
8FFFFFC1000000
8FECA500000000
ENDCHAR
STARTCHAR asciitilde
ENCODING 126
SWIDTH 570 0
DWIDTH 21 0
BBX 18 6 1 10
BITMAP
007CEFDA6100000009
2CFFFFFFFEA41004CF
7FFFFFFFFFFFFEEFFF
7FFFDEFFFFFFFFFFFF
7F810026CFFFFFFFF7
63000000038CDFEA30
ENDCHAR
STARTCHAR nonbreakingspace
ENCODING 160
SWIDTH 259 0
DWIDTH 9 0
BBX 1 1 0 0
BITMAP
00
ENDCHAR
STARTCHAR exclamdown
ENCODING 161
SWIDTH 286 0
DWIDTH 10 0
BBX 7 26 2 -6
BITMAP
19EEB200
9FFFFC00
DFFFFF20
DFFFFF20
9FFFFD00
19DEB200
00000000
00000000
00000000
1FFFF400
2FFFF500
3FFFF600
3FFFF600
4FFFF700
5FFFF800
6FFFF900
7FFFFA00
7FFFFA00
8FFFFB00
9FFFFC00
AFFFFD00
BFFFFE00
BFFFFE00
CFFFFF00
DFFFFF10
EFFFFF20
ENDCHAR
STARTCHAR cent
ENCODING 162
SWIDTH 570 0
DWIDTH 21 0
BBX 17 26 2 0
BITMAP
00000002FFF0000000
00000002FFF0000000
00000002FFF0000000
0000038CFFFECA5100
0002BFFFFFFFFFFE20
002EFFFFFFFFFFFC00
00DFFFFFFFFFFFF700
07FFFFFF9557AEF100
0CFFFFF40000014000
2FFFFF900000000000
4FFFFF400000000000
6FFFFF100000000000
7FFFFF000000000000
7FFFFF000000000000
6FFFFF100000000000
5FFFFF400000000000
2FFFFF900000000000
0DFFFFF50000003600
07FFFFFFA6679DFA00
00DFFFFFFFFFFFFA00
002EFFFFFFFFFFFA00
0002BFFFFFFFFFF900
0000038CFFFEB83000
00000002FFF0000000
00000002FFF0000000
00000002FFF0000000
ENDCHAR
STARTCHAR sterling
ENCODING 163
SWIDTH 570 0
DWIDTH 21 0
BBX 19 26 1 0
BITMAP
000000049DEFEDA72000
000001BFFFFFFFFFFC00
00001CFFFFFFFFFFFB00
00007FFFFFFFFFFFF500
0000EFFFFFA668CFD000
0003FFFFF70000024000
0005FFFFF10000000000
0006FFFFE00000000000
0006FFFFD00000000000
0006FFFFD00000000000
0006FFFFD00000000000
8FFFFFFFFFFFFFF70000
8FFFFFFFFFFFFFF70000
8FFFFFFFFFFFFFF70000
7DDEFFFFFDDDDDD60000
0006FFFFD00000000000
0006FFFFD00000000000
0006FFFFD00000000000
0008FFFFB00000000000
000DFFFF500000000000
009FFFF8000000000000
4DFFFFC9999999999970
8FFFFFFFFFFFFFFFFFD0
8FFFFFFFFFFFFFFFFFD0
8FFFFFFFFFFFFFFFFFD0
8FFFFFFFFFFFFFFFFFD0
ENDCHAR
STARTCHAR currency
ENCODING 164
SWIDTH 570 0
DWIDTH 21 0
BBX 17 17 2 4
BITMAP
01A200000000076000
1CFD216897307FF600
BFFFDEFFFFFCFFFF50
4EFFFFFFFFFFFFFA00
04EFFFFFFFFFFFB000
00EFFF9204DFFF8000
05FFF900002EFFE000
08FFF2000008FFF200
0AFFF0000006FFF300
08FFF2000008FFF200
06FFF900001EFFE000
01EFFF8204CFFF8000
03EFFFFFFFFFFFA000
3EFFFFFFFFFFFFFA00
BFFFEEFFFFFDFFFF40
1BFD216897307FF600
019100000000075000
ENDCHAR
STARTCHAR yen
ENCODING 165
SWIDTH 570 0
DWIDTH 21 0
BBX 21 26 0 0
BITMAP
AFFFFD000000005FFFFF20
2FFFFF50000000BFFFF900
09FFFFB0000003FFFFF200
02FFFFF300000AFFFF9000
009FFFFA00002FFFFF2000
002FFFFF10008FFFF80000
0009FFFF8001EFFFE10000
0002FFFFE006FFFF800000
00008FFFF60DFFFE100000
00001EFFFC5FFFF7000000
000008FFFFDFFFE1000000
000001EFFFFFFF70000000
0000008FFFFFFD00000000
0009FFFFFFFFFFFFF20000
0009FFFFFFFFFFFFF20000
0009FFFFFFFFFFFFF20000
00012225FFFFC222200000
00000004FFFFC000000000
00000004FFFFC000000000
0009FFFFFFFFFFFFF20000
0009FFFFFFFFFFFFF20000
0009FFFFFFFFFFFFF20000
00012225FFFFC222200000
00000004FFFFC000000000
00000004FFFFC000000000
00000004FFFFC000000000
ENDCHAR
STARTCHAR brokenbar
ENCODING 166
SWIDTH 550 0
DWIDTH 20 0
BBX 4 35 8 -8
BITMAP
FFFD
FFFD
FFFD
FFFD
FFFD
FFFD
FFFD
FFFD
FFFD
FFFD
FFFD
FFFD
FFFD
FFFD
0000
0000
0000
0000
0000
0000
0000
FFFD
FFFD
FFFD
FFFD
FFFD
FFFD
FFFD
FFFD
FFFD
FFFD
FFFD
FFFD
FFFD
FFFD
ENDCHAR
STARTCHAR section
ENCODING 167
SWIDTH 485 0
DWIDTH 17 0
BBX 15 27 1 0
BITMAP
00005ADEFEC94000
003DFFFFFFFFFE50
02EFFFFFFFFFFF30
09FFFF9667BFFB00
0CFFF80000028400
0CFFF90000000000
09FFFF8100000000
02EFFFFE82000000
004EFFFFFFA30000
004EFFFFFFFF8000
02EFFFADFFFFF900
08FFF7004CFFFF40
0CFFF10000BFFF90
0DFFF400005FFFB0
0AFFFD30005FFF90
04FFFFFA31DFFF50
007FFFFFFEFFFC00
0004DFFFFFFFC100
000005CFFFFFF700
00000003AFFFFF40
0000000003EFFF90
0000000000AFFFB0
2B50000000CFFF90
2FFEA7557CFFFF40
2FFFFFFFFFFFFA00
1DFFFFFFFFFF8000
0059CEFFEB820000
ENDCHAR
STARTCHAR dieresis
ENCODING 168
SWIDTH 606 0
DWIDTH 22 0
BBX 13 5 4 22
BITMAP
018A700018A710
0CFFF800BFFFA0
1FFFFC00FFFFE0
0EFFFA00DFFFC0
04DEB2003CEC30
ENDCHAR
STARTCHAR copyright
ENCODING 169
SWIDTH 832 0
DWIDTH 30 0
BBX 28 26 1 0
BITMAP
00000000038BEFFDB83000000000
00000005CFFFFFFFFFFC40000000
000001AFFFFC9889CFFFFA100000
00002DFFE7100000027EFFD20000
0002DFFA100000000001AFFD1000
000CFF700017CEFEC83008FFB000
007FF80005EFFFFFFFF9009FF600
01EFC0004FFFFFFFFFF5001DFD00
06FF5000DFFFE8568DD00005FF50
0BFD0005FFFF300000200000EFB0
0EF90009FFFA0000000000009FE0
2FF6000CFFF50000000000006FF1
3FF4000DFFF30000000000005FF2
3FF4000DFFF30000000000005FF3
2FF6000CFFF40000000000006FF1
0EF90009FFF80000000000009FE0
0BFD0005FFFE200000200000EFB0
06FF4000DFFFE8558CF10005FF60
01EFC0003FFFFFFFFFF1001DFE10
007FF80004EFFFFFFFF1009FF600
000CFF700017BEFEC83008FFC000
0002EFFA100000000001AFFD2000
00002DFFE7100000017EFFD20000
000001BFFFFC9889CFFFFA100000
00000005CFFFFFFFFFFC50000000
00000000038BEFFEB83000000000
ENDCHAR
STARTCHAR ordfeminine
ENCODING 170
SWIDTH 382 0
DWIDTH 14 0
BBX 13 13 0 13
BITMAP
0005ADEFD92000
04EFFFFFFFE200
01EFFDCEFFFB00
00782000BFFF10
000000016FFF30
0017BDFFFFFF40
03EFFFFFFFFF40
0DFFF7315FFF40
2FFF80007FFF40
2FFF9002EFFF40
0EFFFBBFFFFF40
07FFFFFFA8FF40
005CEEC604FF40
ENDCHAR
STARTCHAR guillemotleft
ENCODING 171
SWIDTH 615 0
DWIDTH 22 0
BBX 20 16 1 2
BITMAP
0000007B30000009A200
000004FFF920006FFF81
00003EFFFF7004FFFFF5
0001DFFFFA002EFFFF80
000CFFFFC001DFFFFA00
00AFFFFD100BFFFFC100
07FFFFE3009FFFFE2000
5FFFFF5006FFFFF40000
5FFFFF5006FFFFF40000
08FFFFE3009FFFFE2000
00AFFFFD100BFFFFC100
001CFFFFC001DFFFFA00
0001DFFFFA002EFFFF80
00003EFFFF7004FFFFF5
000005FFF920006FFF81
0000007B30000009A200
ENDCHAR
STARTCHAR logicalnot
ENCODING 172
SWIDTH 570 0
DWIDTH 21 0
BBX 18 11 1 4
BITMAP
7FFFFFFFFFFFFFFFFF
7FFFFFFFFFFFFFFFFF
7FFFFFFFFFFFFFFFFF
6DDDDDDDDDDDDDFFFF
00000000000000DFFF
00000000000000DFFF
00000000000000DFFF
00000000000000DFFF
00000000000000DFFF
00000000000000DFFF
00000000000000DFFF
ENDCHAR
STARTCHAR uni00AD
ENCODING 173
SWIDTH 321 0
DWIDTH 12 0
BBX 10 5 1 7
BITMAP
EFFFFFFFF8
EFFFFFFFF8
EFFFFFFFF8
EFFFFFFFF8
5666666663
ENDCHAR
STARTCHAR registered
ENCODING 174
SWIDTH 832 0
DWIDTH 30 0
BBX 28 26 1 0
BITMAP
00000000038BEFFDB83000000000
00000005CFFFFFFFFFFC40000000
000001AFFFFC9889CFFFFA100000
00002DFFE7100000027EFFD20000
0002DFFA100000000001AFFD1000
000CFF707FFFFFEC710008FFB000
007FF8007FFFFFFFFE30009FF600
01EFC0007FFFFFFFFFC0001DFD00
06FF50007FFF905FFFF20005FF50
0BFD00007FFF900CFFF50000EFB0
0EF900007FFF900CFFF400009FE0
2FF600007FFF903FFFF200006FF1
3FF400007FFFEDFFFF9000005FF2
3FF400007FFFFFFFF90000005FF3
2FF600007FFFFFFFF20000006FF1
0EF900007FFF97FFFB0000009FE0
0BFD00007FFF90DFFF400000EFB0
06FF40007FFF905FFFD00005FF60
01EFC0007FFF900CFFF7001DFE10
007FF8007FFF9004FFFE209FF600
000CFF707FFF9000BFFFA8FFC000
0002EFFA100000000001AFFD2000
00002DFFE7100000017EFFD20000
000001BFFFFC9889CFFFFA100000
00000005CFFFFFFFFFFC50000000
00000000038BEFFEB83000000000
ENDCHAR
STARTCHAR overscore
ENCODING 175
SWIDTH 500 0
DWIDTH 18 0
BBX 20 4 -1 27
BITMAP
18888888888888888881
2FFFFFFFFFFFFFFFFFF2
2FFFFFFFFFFFFFFFFFF2
2FFFFFFFFFFFFFFFFFF2
ENDCHAR
STARTCHAR degree
ENCODING 176
SWIDTH 428 0
DWIDTH 15 0
BBX 13 12 1 14
BITMAP
00028DEDA40000
004EFFFFFF9000
03FFFFFFFFF800
0CFFFA67EFFF20
2FFF80002EFF80
5FFF10000AFFB0
5FFF10000AFFB0
3FFF70002EFF80
0DFFFA68EFFF30
04FFFFFFFFF900
005FFFFFFFA000
00029DFEB50000
ENDCHAR
STARTCHAR plusminus
ENCODING 177
SWIDTH 570 0
DWIDTH 21 0
BBX 18 23 1 0
BITMAP
00000008CCC3000000
0000000AFFF3000000
0000000AFFF3000000
0000000AFFF3000000
0000000AFFF3000000
0000000AFFF3000000
0000000AFFF3000000
7FFFFFFFFFFFFFFFFF
7FFFFFFFFFFFFFFFFF
7FFFFFFFFFFFFFFFFF
6DDDDDDEFFFDDDDDDD
0000000AFFF3000000
0000000AFFF3000000
0000000AFFF3000000
0000000AFFF3000000
0000000AFFF3000000
0000000AFFF3000000
000000069992000000
000000000000000000
6DDDDDDDDDDDDDDDDD
7FFFFFFFFFFFFFFFFF
7FFFFFFFFFFFFFFFFF
7FFFFFFFFFFFFFFFFF
ENDCHAR
STARTCHAR twosuperior
ENCODING 178
SWIDTH 378 0
DWIDTH 14 0
BBX 12 15 1 11
BITMAP
006ADFEC7100
4DFFFFFFFD10
DFFFFFFFFF90
3FFD87DFFFD0
0680005FFFD0
0000007FFFA0
000002EFFF30
00002DFFF700
0003EFFF8000
004EFFF70000
05FFFF500000
6FFFFB888883
FFFFFFFFFFF5
FFFFFFFFFFF5
FFFFFFFFFFF5
ENDCHAR
STARTCHAR threesuperior
ENCODING 179
SWIDTH 378 0
DWIDTH 14 0
BBX 12 15 1 11
BITMAP
016BEFEB6000
5EFFFFFFFB00
8FFFFFFFFF60
0CE6118FFFA0
0210002FFF90
000003AFFF30
009FFFFFB300
009FFFFE7100
007CCEFFFE30
0000004EFFD0
5000000BFFF2
FC62015FFFF2
FFFFFFFFFFC0
EFFFFFFFFD20
16BEFFEB7100
ENDCHAR
STARTCHAR acute
ENCODING 180
SWIDTH 606 0
DWIDTH 22 0
BBX 11 6 5 22
BITMAP
00005FFFFFC0
0002EFFFFB10
000BFFFFA000
008FFFF80000
05FFFE500000
1EFFD3000000
ENDCHAR
STARTCHAR mu
ENCODING 181
SWIDTH 660 0
DWIDTH 24 0
BBX 19 29 2 -9
BITMAP
3FFFFF30000006FFFFE0
3FFFFF30000006FFFFE0
3FFFFF30000006FFFFE0
3FFFFF30000006FFFFE0
3FFFFF30000006FFFFE0
3FFFFF30000006FFFFE0
3FFFFF30000006FFFFE0
3FFFFF30000006FFFFE0
3FFFFF30000006FFFFE0
3FFFFF30000006FFFFE0
3FFFFF30000007FFFFE0
3FFFFF30000008FFFFE0
3FFFFF4000000BFFFFE0
3FFFFF6000001FFFFFE0
3FFFFFC00000AFFFFFE0
3FFFFFFC646CFFFFFFE0
3FFFFFFFFFFFFFFFFFE0
3FFFFFFFFFFFF9BFFFE0
3FFFFFDFFFFFC17FFFE0
3FFFFF29DFD8104FFFE0
3FFFFF20000000000000
3FFFFF20000000000000
3FFFFF20000000000000
3FFFFF30000000000000
3FFFFF30000000000000
3FFFFF30000000000000
3FFFFF30000000000000
3FFFFF30000000000000
3FFFFF30000000000000
ENDCHAR
STARTCHAR paragraph
ENCODING 182
SWIDTH 654 0
DWIDTH 24 0
BBX 19 32 2 -5
BITMAP
00017BDFFFFFFFFFFF80
005EFFFFFFFFFFFFFF80
04FFFFFFFFFFFFFFFF80
0DFFFFFFFFFFD88AFF80
5FFFFFFFFFFFC005FF80
9FFFFFFFFFFFC005FF80
CFFFFFFFFFFFC005FF80
EFFFFFFFFFFFC005FF80
FFFFFFFFFFFFC005FF80
FFFFFFFFFFFFC005FF80
EFFFFFFFFFFFC005FF80
DFFFFFFFFFFFC005FF80
AFFFFFFFFFFFC005FF80
6FFFFFFFFFFFC005FF80
1EFFFFFFFFFFC005FF80
06FFFFFFFFFFC005FF80
007FFFFFFFFFC005FF80
00028CEFECFFC005FF80
0000000001FFC005FF80
0000000001FFC005FF80
0000000001FFC005FF80
0000000001FFC005FF80
0000000001FFC005FF80
0000000001FFC005FF80
0000000001FFC005FF80
0000000001FFC005FF80
0000000001FFC005FF80
0000000001FFC005FF80
0000000001FFC005FF80
0000000001FFC005FF80
0000000001FFC005FF80
0000000001FFC005FF80
ENDCHAR
STARTCHAR periodcentered
ENCODING 183
SWIDTH 285 0
DWIDTH 10 0
BBX 7 6 2 10
BITMAP
19EEB200
9FFFFD00
DFFFFF20
DFFFFF20
9FFFFC00
19DEB200
ENDCHAR
STARTCHAR cedilla
ENCODING 184
SWIDTH 205 0
DWIDTH 7 0
BBX 9 9 -1 -9
BITMAP
00AFFD0000
02FFF90000
08FFFE8000
003BFFFB00
0000EFFF30
2102FFFF50
AFFFFFFF20
AFFFFFF900
7DFFDB5000
ENDCHAR
STARTCHAR onesuperior
ENCODING 185
SWIDTH 378 0
DWIDTH 14 0
BBX 10 15 1 11
BITMAP
00001AFFF4
0003DFFFF4
006EFFFFF4
09FFFFFFF4
2DFFACFFF4
03E80DFFF4
00100EFFF4
00000EFFF4
00000EFFF4
00000EFFF4
00000EFFF4
00000EFFF4
00000EFFF4
00000EFFF4
00000EFFF4
ENDCHAR
STARTCHAR ordmasculine
ENCODING 186
SWIDTH 388 0
DWIDTH 14 0
BBX 12 13 1 13
BITMAP
0018DEEC7100
03EFFFFFFD20
1EFFFFFFFFC0
7FFF7008FFF6
CFFD0000EFFB
EFFA0000BFFD
FFF90000AFFE
EFFA0000BFFD
BFFD0000EFFB
7FFF7008FFF6
1DFFFEEFFFD1
03DFFFFFFD30
0018DEEC8100
ENDCHAR
STARTCHAR guillemotright
ENCODING 187
SWIDTH 615 0
DWIDTH 22 0
BBX 20 16 1 2
BITMAP
0018A000000299000000
17EFF800018FFF700000
4FFFFF6005FFFFF40000
06FFFFF4007FFFFE3000
009FFFFE200AFFFFD100
000BFFFFD101CFFFFB00
0001DFFFFB002EFFFF90
00002EFFFF8003FFFFF7
00002EFFFF9003FFFFF7
0001DFFFFB002EFFFFA0
000BFFFFD101CFFFFC00
009FFFFE200AFFFFD100
06FFFFF4007FFFFE3000
4FFFFF6005FFFFF40000
17EFF800018FFF700000
0019A000000299000000
ENDCHAR
STARTCHAR onequarter
ENCODING 188
SWIDTH 880 0
DWIDTH 32 0
BBX 29 26 1 0
BITMAP
00008FFF70000000006FFFC0000000
001BFFFF7000000001EFFF40000000
04EFFFFF7000000007FFFB00000000
7FFFFFFF700000001EFFF300000000
CFFCAFFF700000009FFF9000000000
1DA1AFFF70000002FFFE2000000000
0100BFFF7000000AFFF80000000000
0000BFFF7000004FFFE10000000000
0000BFFF700000CFFF600000000000
0000BFFF700005FFFD000000000000
0000BFFF70000DFFF5000000000000
0000BFFF70006FFFC00002EFFF6000
0000BFFF7001EFFF30000BFFFF6000
0000BFFF7008FFFA00006FFFFF6000
0000BFFF702EFFF20002EFFFFF6000
00000000009FFF90000BFECFFF6000
0000000003FFFE10006FF8BFFF6000
000000000BFFF70002EFE1CFFF6000
000000004FFFD1000BFF50CFFF6000
00000000CFFF60006FFB00CFFF6000
00000005FFFC0002EFE200CFFF6000
0000000DFFF40008FFFFFFFFFFFF90
0000007FFFB00008FFFFFFFFFFFF90
000001EFFF300008EEEEEEFFFFFE80
000008FFFA000000000000CFFF6000
00002FFFF2000000000000CFFF6000
ENDCHAR
STARTCHAR onehalf
ENCODING 189
SWIDTH 880 0
DWIDTH 32 0
BBX 30 26 1 0
BITMAP
00008FFF70000000006FFFC0000000
001BFFFF7000000001EFFF40000000
04EFFFFF7000000007FFFB00000000
7FFFFFFF700000001EFFF300000000
CFFCAFFF700000009FFF9000000000
1DA1AFFF70000002FFFE2000000000
0100BFFF7000000AFFF80000000000
0000BFFF7000004FFFE10000000000
0000BFFF700000CFFF600000000000
0000BFFF700005FFFD000000000000
0000BFFF70000DFFF5000000000000
0000BFFF70006FFFC0017BEFEB6000
0000BFFF7001EFFF305EFFFFFFFB00
0000BFFF7008FFFA02EFFFFFFFFF60
0000BFFF702EFFF2005FFC77EFFFA0
00000000009FFF90000860008FFFA0
0000000003FFFE1000000000AFFF70
000000000BFFF70000000004FFFE10
000000004FFFD1000000004EFFF500
00000000CFFF6000000004EFFF6000
00000005FFFC000000006FFFF50000
0000000DFFF400000007FFFE300000
0000007FFFB00000009FFFFA888881
000001EFFF30000003FFFFFFFFFFF3
000008FFFA00000003FFFFFFFFFFF3
00002FFFF200000003FFFFFFFFFFF3
ENDCHAR
STARTCHAR threequarters
ENCODING 190
SWIDTH 880 0
DWIDTH 32 0
BBX 30 26 1 0
BITMAP
0039DEFD920000000002FFFE100000
1AFFFFFFFF500000000BFFF8000000
1DFFFFFFFFE00000004FFFE1000000
04FA412DFFF3000000CFFF60000000
00300009FFF2000005FFFD00000000
0000015EFFA000000DFFF500000000
000FFFFFE80000007FFFB000000000
000FFFFFB4000001EFFF3000000000
000CCDFFFFA00008FFFA0000000000
00000019FFF7002FFFF20000000000
32000003FFFA00AFFF900000000000
6E94102AFFFA03FFFE10009FFFD000
6FFFFFFFFFF50BFFF70004FFFFD000
5FFFFFFFFF904FFFD1001DFFFFD000
038CEFED9400CFFF60008FFFFFD000
000000000006FFFC0003FFBFFFD000
00000000000DFFF4000DFE5FFFD000
00000000007FFFB0008FF84FFFD000
0000000001EFFF3003FFD04FFFD000
0000000008FFFA000DFF304FFFD000
000000002FFFF2008FF8004FFFD000
00000000AFFF8000FFFFFFFFFFFFF1
00000003FFFE1000FFFFFFFFFFFFF1
0000000BFFF70000EEEEEEFFFFFEE1
0000005FFFD000000000004FFFD000
000000DFFF5000000000004FFFD000
ENDCHAR
STARTCHAR questiondown
ENCODING 191
SWIDTH 477 0
DWIDTH 17 0
BBX 17 26 1 -6
BITMAP
0000001AEEA1000000
000000AFFFFB000000
000000FFFFFF000000
000000FFFFFF000000
000000BFFFFB000000
0000001AEEA2000000
000000000000000000
000000000000000000
000000000000000000
0000002FFFF8000000
0000003FFFF7000000
0000008FFFF5000000
000006FFFFE1000000
0001AFFFFF70000000
002DFFFFF700000000
03EFFFFE4000000000
1DFFFFB10000000000
7FFFFC000000000000
BFFFF5000000000000
DFFFF3000000000000
DFFFF80000005BB000
AFFFFFA657AEFFF300
4FFFFFFFFFFFFFFA00
09FFFFFFFFFFFFFF20
007EFFFFFFFFFEA300
00017BDEFEC9510000
ENDCHAR
STARTCHAR Agrave
ENCODING 192
SWIDTH 689 0
DWIDTH 25 0
BBX 25 34 0 0
BITMAP
000000DFFFFF40000000000000
0000001CFFFFD1000000000000
00000001BFFFFA000000000000
0000000009FFFF700000000000
00000000006FFFF40000000000
000000000003DFFE1000000000
00000000000000000000000000
00000000000000000000000000
000000002FFFFFFD0000000000
000000007FFFFFFF4000000000
00000000CFFFFFFF9000000000
00000002FFFFFFFFE000000000
00000007FFFFBFFFF500000000
0000000DFFFE3FFFFA00000000
0000003FFFFB0DFFFE10000000
0000008FFFF608FFFF50000000
000000DFFFF204FFFFB0000000
000004FFFFC000EFFFF1000000
000009FFFF70009FFFF6000000
00000EFFFF30005FFFFB000000
00004FFFFD00000EFFFF200000
0000AFFFF900000AFFFF700000
0001EFFFF4000005FFFFC00000
0005FFFFFFFFFFFFFFFFF20000
000AFFFFFFFFFFFFFFFFF80000
001FFFFFFFFFFFFFFFFFFD0000
006FFFFFFFFFFFFFFFFFFF3000
00BFFFFD999999999EFFFF8000
01FFFFF70000000009FFFFE000
06FFFFF30000000005FFFFF400
0CFFFFD00000000001FFFFF900
2FFFFF900000000000BFFFFE00
7FFFFF5000000000007FFFFF50
CFFFFF1000000000003FFFFFA0
ENDCHAR
STARTCHAR Aacute
ENCODING 193
SWIDTH 689 0
DWIDTH 25 0
BBX 25 34 0 0
BITMAP
0000000000000AFFFFF7000000
0000000000006FFFFF70000000
000000000002EFFFF600000000
00000000001DFFFE4000000000
0000000000AFFFD20000000000
0000000006FFFA100000000000
00000000000000000000000000
00000000000000000000000000
000000002FFFFFFD0000000000
000000007FFFFFFF4000000000
00000000CFFFFFFF9000000000
00000002FFFFFFFFE000000000
00000007FFFFBFFFF500000000
0000000DFFFE3FFFFA00000000
0000003FFFFB0DFFFE10000000
0000008FFFF608FFFF50000000
000000DFFFF204FFFFB0000000
000004FFFFC000EFFFF1000000
000009FFFF70009FFFF6000000
00000EFFFF30005FFFFB000000
00004FFFFD00000EFFFF200000
0000AFFFF900000AFFFF700000
0001EFFFF4000005FFFFC00000
0005FFFFFFFFFFFFFFFFF20000
000AFFFFFFFFFFFFFFFFF80000
001FFFFFFFFFFFFFFFFFFD0000
006FFFFFFFFFFFFFFFFFFF3000
00BFFFFD999999999EFFFF8000
01FFFFF70000000009FFFFE000
06FFFFF30000000005FFFFF400
0CFFFFD00000000001FFFFF900
2FFFFF900000000000BFFFFE00
7FFFFF5000000000007FFFFF50
CFFFFF1000000000003FFFFFA0
ENDCHAR
STARTCHAR Acircumflex
ENCODING 194
SWIDTH 689 0
DWIDTH 25 0
BBX 25 34 0 0
BITMAP
000000002EFFFFFD1000000000
00000000BFFFFFFF9000000000
00000008FFFFDFFFF600000000
0000006FFFF81BFFFF40000000
000005FFFF60009FFFE3000000
00002FFFD3000005EFFE000000
00000000000000000000000000
00000000000000000000000000
000000002FFFFFFD0000000000
000000007FFFFFFF4000000000
00000000CFFFFFFF9000000000
00000002FFFFFFFFE000000000
00000007FFFFBFFFF500000000
0000000DFFFE3FFFFA00000000
0000003FFFFB0DFFFE10000000
0000008FFFF608FFFF50000000
000000DFFFF204FFFFB0000000
000004FFFFC000EFFFF1000000
000009FFFF70009FFFF6000000
00000EFFFF30005FFFFB000000
00004FFFFD00000EFFFF200000
0000AFFFF900000AFFFF700000
0001EFFFF4000005FFFFC00000
0005FFFFFFFFFFFFFFFFF20000
000AFFFFFFFFFFFFFFFFF80000
001FFFFFFFFFFFFFFFFFFD0000
006FFFFFFFFFFFFFFFFFFF3000
00BFFFFD999999999EFFFF8000
01FFFFF70000000009FFFFE000
06FFFFF30000000005FFFFF400
0CFFFFD00000000001FFFFF900
2FFFFF900000000000BFFFFE00
7FFFFF5000000000007FFFFF50
CFFFFF1000000000003FFFFFA0
ENDCHAR
STARTCHAR Atilde
ENCODING 195
SWIDTH 689 0
DWIDTH 25 0
BBX 25 33 0 0
BITMAP
00000005CEEA51003FFA000000
0000008FFFFFFEB9EFF7000000
000003FFFFFFFFFFFFE1000000
000008FFD9BFFFFFFF60000000
00000CFE20016BEEB400000000
00000000000000000000000000
00000000000000000000000000
000000002FFFFFFD0000000000
000000007FFFFFFF4000000000
00000000CFFFFFFF9000000000
00000002FFFFFFFFE000000000
00000007FFFFBFFFF500000000
0000000DFFFE3FFFFA00000000
0000003FFFFB0DFFFE10000000
0000008FFFF608FFFF50000000
000000DFFFF204FFFFB0000000
000004FFFFC000EFFFF1000000
000009FFFF70009FFFF6000000
00000EFFFF30005FFFFB000000
00004FFFFD00000EFFFF200000
0000AFFFF900000AFFFF700000
0001EFFFF4000005FFFFC00000
0005FFFFFFFFFFFFFFFFF20000
000AFFFFFFFFFFFFFFFFF80000
001FFFFFFFFFFFFFFFFFFD0000
006FFFFFFFFFFFFFFFFFFF3000
00BFFFFD999999999EFFFF8000
01FFFFF70000000009FFFFE000
06FFFFF30000000005FFFFF400
0CFFFFD00000000001FFFFF900
2FFFFF900000000000BFFFFE00
7FFFFF5000000000007FFFFF50
CFFFFF1000000000003FFFFFA0
ENDCHAR
STARTCHAR Adieresis
ENCODING 196
SWIDTH 689 0
DWIDTH 25 0
BBX 25 33 0 0
BITMAP
00000005A930004AA400000000
0000004FFFE103FFFF30000000
0000008FFFF407FFFF70000000
0000006FFFF205FFFF40000000
00000009EE60009EE800000000
00000000000000000000000000
00000000000000000000000000
000000002FFFFFFD0000000000
000000007FFFFFFF4000000000
00000000CFFFFFFF9000000000
00000002FFFFFFFFE000000000
00000007FFFFBFFFF500000000
0000000DFFFE3FFFFA00000000
0000003FFFFB0DFFFE10000000
0000008FFFF608FFFF50000000
000000DFFFF204FFFFB0000000
000004FFFFC000EFFFF1000000
000009FFFF70009FFFF6000000
00000EFFFF30005FFFFB000000
00004FFFFD00000EFFFF200000
0000AFFFF900000AFFFF700000
0001EFFFF4000005FFFFC00000
0005FFFFFFFFFFFFFFFFF20000
000AFFFFFFFFFFFFFFFFF80000
001FFFFFFFFFFFFFFFFFFD0000
006FFFFFFFFFFFFFFFFFFF3000
00BFFFFD999999999EFFFF8000
01FFFFF70000000009FFFFE000
06FFFFF30000000005FFFFF400
0CFFFFD00000000001FFFFF900
2FFFFF900000000000BFFFFE00
7FFFFF5000000000007FFFFF50
CFFFFF1000000000003FFFFFA0
ENDCHAR
STARTCHAR Aring
ENCODING 197
SWIDTH 689 0
DWIDTH 25 0
BBX 25 32 0 0
BITMAP
00000000003676200000000000
0000000009FFFFF70000000000
000000007FFFFFFF5000000000
00000000DFE305FFB000000000
00000000EFB000EFD000000000
00000000CFE316FFB000000000
000000008FFFFFFF5000000000
000000007FFFFFFF4000000000
00000000CFFFFFFF9000000000
00000002FFFFFFFFE000000000
00000007FFFFBFFFF500000000
0000000DFFFE3FFFFA00000000
0000003FFFFB0DFFFE10000000
0000008FFFF608FFFF50000000
000000DFFFF204FFFFB0000000
000004FFFFC000EFFFF1000000
000009FFFF70009FFFF6000000
00000EFFFF30005FFFFB000000
00004FFFFD00000EFFFF200000
0000AFFFF900000AFFFF700000
0001EFFFF4000005FFFFC00000
0005FFFFFFFFFFFFFFFFF20000
000AFFFFFFFFFFFFFFFFF80000
001FFFFFFFFFFFFFFFFFFD0000
006FFFFFFFFFFFFFFFFFFF3000
00BFFFFD999999999EFFFF8000
01FFFFF70000000009FFFFE000
06FFFFF30000000005FFFFF400
0CFFFFD00000000001FFFFF900
2FFFFF900000000000BFFFFE00
7FFFFF5000000000007FFFFF50
CFFFFF1000000000003FFFFFA0
ENDCHAR
STARTCHAR AE
ENCODING 198
SWIDTH 952 0
DWIDTH 34 0
BBX 33 26 0 0
BITMAP
00000000000BFFFFFFFFFFFFFFFFFFFF20
00000000002FFFFFFFFFFFFFFFFFFFFF20
00000000009FFFFFFFFFFFFFFFFFFFFF20
0000000001EFFFFFFFFFFFFFFFFFFFFF20
0000000007FFFFCABFFFFF977777777710
000000000DFFFF303FFFFF400000000000
000000005FFFFC003FFFFF400000000000
00000000CFFFF5003FFFFF400000000000
00000004FFFFE0003FFFFF400000000000
0000000AFFFF80003FFFFF400000000000
0000002FFFFF10003FFFFFFFFFFFFFF800
0000009FFFFA00003FFFFFFFFFFFFFF800
000001EFFFF300003FFFFFFFFFFFFFF800
000007FFFFC000003FFFFFFFFFFFFFF800
00000DFFFF6000003FFFFF977777777400
00005FFFFFFFFFFFFFFFFF400000000000
0000CFFFFFFFFFFFFFFFFF400000000000
0004FFFFFFFFFFFFFFFFFF400000000000
000AFFFFFFFFFFFFFFFFFF400000000000
002FFFFF99999999AFFFFF400000000000
009FFFFC000000003FFFFF400000000000
01EFFFF6000000003FFFFF988888888810
07FFFFE1000000003FFFFFFFFFFFFFFF20
0DFFFF80000000003FFFFFFFFFFFFFFF20
5FFFFF20000000003FFFFFFFFFFFFFFF20
CFFFFB00000000003FFFFFFFFFFFFFFF20
ENDCHAR
STARTCHAR Ccedilla
ENCODING 199
SWIDTH 637 0
DWIDTH 23 0
BBX 20 35 2 -9
BITMAP
000000038BDEFEC95100
000004CFFFFFFFFFFFA3
00008FFFFFFFFFFFFFF6
0009FFFFFFFFFFFFFFE1
007FFFFFFFB98AEFFF90
02EFFFFFB2000004AF30
09FFFFFA000000000100
1EFFFFE1000000000000
5FFFFF70000000000000
8FFFFF20000000000000
BFFFFE00000000000000
DFFFFC00000000000000
DFFFFB00000000000000
DFFFFB00000000000000
CFFFFC00000000000000
BFFFFD00000000000000
9FFFFF10000000000000
6FFFFF50000000000000
2FFFFFC0000000000000
0CFFFFF7000000000000
05FFFFFF810000003780
00BFFFFFFEB989BEFFB0
002EFFFFFFFFFFFFFFB0
0002DFFFFFFFFFFFFFB0
000018EFFFFFFFFFFF90
00000016ADEFFEC96200
000000002FFF60000000
000000009FFF20000000
00000001FFFFC4000000
0000000016EFFF400000
00000000007FFFB00000
00000013009FFFC00000
0000002FFFFFFF900000
0000002FFFFFFE200000
0000001CEFEC82000000
ENDCHAR
STARTCHAR Egrave
ENCODING 200
SWIDTH 560 0
DWIDTH 20 0
BBX 15 34 3 0
BITMAP
04FFFFFD00000000
004FFFFF90000000
0003EFFFF5000000
00002DFFFE200000
000001BFFFC10000
00000008FFF90000
0000000000000000
0000000000000000
CFFFFFFFFFFFFFF0
CFFFFFFFFFFFFFF0
CFFFFFFFFFFFFFF0
CFFFFFFFFFFFFFF0
CFFFFD7777777770
CFFFFA0000000000
CFFFFA0000000000
CFFFFA0000000000
CFFFFA0000000000
CFFFFA0000000000
CFFFFFFFFFFFFF60
CFFFFFFFFFFFFF60
CFFFFFFFFFFFFF60
CFFFFFFFFFFFFF60
CFFFFD7777777730
CFFFFA0000000000
CFFFFA0000000000
CFFFFA0000000000
CFFFFA0000000000
CFFFFA0000000000
CFFFFA0000000000
CFFFFD8888888880
CFFFFFFFFFFFFFF0
CFFFFFFFFFFFFFF0
CFFFFFFFFFFFFFF0
CFFFFFFFFFFFFFF0
ENDCHAR
STARTCHAR Eacute
ENCODING 201
SWIDTH 560 0
DWIDTH 20 0
BBX 15 34 3 0
BITMAP
00000000BFFFFF60
00000006FFFFF700
0000003FFFFF5000
000001DFFFE30000
00000BFFFC200000
00006FFFA1000000
0000000000000000
0000000000000000
CFFFFFFFFFFFFFF0
CFFFFFFFFFFFFFF0
CFFFFFFFFFFFFFF0
CFFFFFFFFFFFFFF0
CFFFFD7777777770
CFFFFA0000000000
CFFFFA0000000000
CFFFFA0000000000
CFFFFA0000000000
CFFFFA0000000000
CFFFFFFFFFFFFF60
CFFFFFFFFFFFFF60
CFFFFFFFFFFFFF60
CFFFFFFFFFFFFF60
CFFFFD7777777730
CFFFFA0000000000
CFFFFA0000000000
CFFFFA0000000000
CFFFFA0000000000
CFFFFA0000000000
CFFFFA0000000000
CFFFFD8888888880
CFFFFFFFFFFFFFF0
CFFFFFFFFFFFFFF0
CFFFFFFFFFFFFFF0
CFFFFFFFFFFFFFF0
ENDCHAR
STARTCHAR Ecircumflex
ENCODING 202
SWIDTH 560 0
DWIDTH 20 0
BBX 16 34 3 0
BITMAP
0000BFFFFFF30000
0007FFFFFFFD1000
004FFFFDFFFFA000
02EFFFC18FFFF800
2DFFFA1006EFFF60
CFFE6000002CFFF4
0000000000000000
0000000000000000
CFFFFFFFFFFFFFF0
CFFFFFFFFFFFFFF0
CFFFFFFFFFFFFFF0
CFFFFFFFFFFFFFF0
CFFFFD7777777770
CFFFFA0000000000
CFFFFA0000000000
CFFFFA0000000000
CFFFFA0000000000
CFFFFA0000000000
CFFFFFFFFFFFFF60
CFFFFFFFFFFFFF60
CFFFFFFFFFFFFF60
CFFFFFFFFFFFFF60
CFFFFD7777777730
CFFFFA0000000000
CFFFFA0000000000
CFFFFA0000000000
CFFFFA0000000000
CFFFFA0000000000
CFFFFA0000000000
CFFFFD8888888880
CFFFFFFFFFFFFFF0
CFFFFFFFFFFFFFF0
CFFFFFFFFFFFFFF0
CFFFFFFFFFFFFFF0
ENDCHAR
STARTCHAR Edieresis
ENCODING 203
SWIDTH 560 0
DWIDTH 20 0
BBX 15 33 3 0
BITMAP
0029A600028A7000
00DFFF600DFFF800
03FFFFA01FFFFC00
01FFFF800EFFFA00
005DEA1005DEB200
0000000000000000
0000000000000000
CFFFFFFFFFFFFFF0
CFFFFFFFFFFFFFF0
CFFFFFFFFFFFFFF0
CFFFFFFFFFFFFFF0
CFFFFD7777777770
CFFFFA0000000000
CFFFFA0000000000
CFFFFA0000000000
CFFFFA0000000000
CFFFFA0000000000
CFFFFFFFFFFFFF60
CFFFFFFFFFFFFF60
CFFFFFFFFFFFFF60
CFFFFFFFFFFFFF60
CFFFFD7777777730
CFFFFA0000000000
CFFFFA0000000000
CFFFFA0000000000
CFFFFA0000000000
CFFFFA0000000000
CFFFFA0000000000
CFFFFD8888888880
CFFFFFFFFFFFFFF0
CFFFFFFFFFFFFFF0
CFFFFFFFFFFFFFF0
CFFFFFFFFFFFFFF0
ENDCHAR
STARTCHAR Igrave
ENCODING 204
SWIDTH 331 0
DWIDTH 12 0
BBX 11 34 -1 0
BITMAP
CFFFFF500000
1CFFFFE10000
01AFFFFB0000
0008FFFF8000
00006FFFF500
000003DFFE10
000000000000
000000000000
0000CFFFFA00
0000CFFFFA00
0000CFFFFA00
0000CFFFFA00
0000CFFFFA00
0000CFFFFA00
0000CFFFFA00
0000CFFFFA00
0000CFFFFA00
0000CFFFFA00
0000CFFFFA00
0000CFFFFA00
0000CFFFFA00
0000CFFFFA00
0000CFFFFA00
0000CFFFFA00
0000CFFFFA00
0000CFFFFA00
0000CFFFFA00
0000CFFFFA00
0000CFFFFA00
0000CFFFFA00
0000CFFFFA00
0000CFFFFA00
0000CFFFFA00
0000CFFFFA00
ENDCHAR
STARTCHAR Iacute
ENCODING 205
SWIDTH 331 0
DWIDTH 12 0
BBX 10 34 3 0
BITMAP
0004FFFFFD
001DFFFFC1
00AFFFFB10
07FFFF9000
4FFFF60000
EFFE400000
0000000000
0000000000
CFFFFA0000
CFFFFA0000
CFFFFA0000
CFFFFA0000
CFFFFA0000
CFFFFA0000
CFFFFA0000
CFFFFA0000
CFFFFA0000
CFFFFA0000
CFFFFA0000
CFFFFA0000
CFFFFA0000
CFFFFA0000
CFFFFA0000
CFFFFA0000
CFFFFA0000
CFFFFA0000
CFFFFA0000
CFFFFA0000
CFFFFA0000
CFFFFA0000
CFFFFA0000
CFFFFA0000
CFFFFA0000
CFFFFA0000
ENDCHAR
STARTCHAR Icircumflex
ENCODING 206
SWIDTH 331 0
DWIDTH 12 0
BBX 16 34 -2 0
BITMAP
00008FFFFFF60000
0003FFFFFFFE3000
001DFFFEFFFFD100
01CFFFE35FFFFB00
0BFFFC2003DFFFA0
9FFF9000001AFFF7
0000000000000000
0000000000000000
00000CFFFFA00000
00000CFFFFA00000
00000CFFFFA00000
00000CFFFFA00000
00000CFFFFA00000
00000CFFFFA00000
00000CFFFFA00000
00000CFFFFA00000
00000CFFFFA00000
00000CFFFFA00000
00000CFFFFA00000
00000CFFFFA00000
00000CFFFFA00000
00000CFFFFA00000
00000CFFFFA00000
00000CFFFFA00000
00000CFFFFA00000
00000CFFFFA00000
00000CFFFFA00000
00000CFFFFA00000
00000CFFFFA00000
00000CFFFFA00000
00000CFFFFA00000
00000CFFFFA00000
00000CFFFFA00000
00000CFFFFA00000
ENDCHAR
STARTCHAR Idieresis
ENCODING 207
SWIDTH 331 0
DWIDTH 12 0
BBX 12 33 0 0
BITMAP
18A700018A81
BFFF800AFFFA
FFFFC00EFFFF
DFFFA00CFFFC
4DEB2003CEC3
000000000000
000000000000
000CFFFFA000
000CFFFFA000
000CFFFFA000
000CFFFFA000
000CFFFFA000
000CFFFFA000
000CFFFFA000
000CFFFFA000
000CFFFFA000
000CFFFFA000
000CFFFFA000
000CFFFFA000
000CFFFFA000
000CFFFFA000
000CFFFFA000
000CFFFFA000
000CFFFFA000
000CFFFFA000
000CFFFFA000
000CFFFFA000
000CFFFFA000
000CFFFFA000
000CFFFFA000
000CFFFFA000
000CFFFFA000
000CFFFFA000
ENDCHAR
STARTCHAR Eth
ENCODING 208
SWIDTH 740 0
DWIDTH 27 0
BBX 25 26 0 0
BITMAP
000CFFFFFFFFEDB74000000000
000CFFFFFFFFFFFFFD60000000
000CFFFFFFFFFFFFFFFC200000
000CFFFFFFFFFFFFFFFFE30000
000CFFFFD7778AEFFFFFFE2000
000CFFFFA0000006EFFFFFB000
000CFFFFA00000003EFFFFF400
000CFFFFA000000005FFFFFB00
000CFFFFA000000000DFFFFE00
000CFFFFA0000000008FFFFF40
000CFFFFA0000000005FFFFF60
3FFFFFFFFFFFD000003FFFFF70
3FFFFFFFFFFFD000002FFFFF80
3FFFFFFFFFFFD000002FFFFF80
3FFFFFFFFFFFD000003FFFFF60
177DFFFFD7776000005FFFFF50
000CFFFFA0000000009FFFFF20
000CFFFFA000000000EFFFFD00
000CFFFFA000000007FFFFF900
000CFFFFA00000005FFFFFF200
000CFFFFA0000018FFFFFF9000
000CFFFFD8889CFFFFFFFC1000
000CFFFFFFFFFFFFFFFFD20000
000CFFFFFFFFFFFFFFFA100000
000CFFFFFFFFFFFFFB40000000
000CFFFFFFFEDC962000000000
ENDCHAR
STARTCHAR Ntilde
ENCODING 209
SWIDTH 812 0
DWIDTH 29 0
BBX 23 33 3 0
BITMAP
0000004BEEB61001EFD00000
000005FFFFFFFB9DFFA00000
00001EFFFFFFFFFFFF400000
00006FFE9BEFFFFFF9000000
00009FF40005AEFC60000000
000000000000000000000000
000000000000000000000000
CFFFFFF60000000000DFFFF0
CFFFFFFE1000000000DFFFF0
CFFFFFFF8000000000DFFFF0
CFFFFFFFF200000000DFFFF0
CFFFFFFFFA00000000DFFFF0
CFFFFFFFFF40000000DFFFF0
CFFFDEFFFFC0000000DFFFF0
CFFFD6FFFFF6000000DFFFF0
CFFFD0CFFFFE100000DFFFF0
CFFFE04FFFFF800000DFFFF0
CFFFF00BFFFFF20000DFFFF0
CFFFF102FFFFFA0000DFFFF0
CFFFF1009FFFFF4000DFFFF0
CFFFF2001EFFFFC000DFFFF0
CFFFF20007FFFFF600DFFFF0
CFFFF20000DFFFFE10CFFFF0
CFFFF200004FFFFF80BFFFF0
CFFFF200000BFFFFF2BFFFF0
CFFFF2000003FFFFFBAFFFF0
CFFFF20000009FFFFFDFFFF0
CFFFF20000001EFFFFFFFFF0
CFFFF200000007FFFFFFFFF0
CFFFF200000000DFFFFFFFF0
CFFFF2000000005FFFFFFFF0
CFFFF2000000000BFFFFFFF0
CFFFF20000000003FFFFFFF0
ENDCHAR
STARTCHAR Ograve
ENCODING 210
SWIDTH 795 0
DWIDTH 29 0
BBX 25 34 2 0
BITMAP
000001DFFFFF40000000000000
0000001CFFFFD1000000000000
00000001BFFFFA000000000000
0000000009FFFF600000000000
00000000007FFFF40000000000
000000000004EFFE0000000000
00000000000000000000000000
00000000000000000000000000
000000048BDEFEDA7200000000
000005DFFFFFFFFFFFA3000000
0001AFFFFFFFFFFFFFFF600000
001CFFFFFFFFFFFFFFFFF70000
009FFFFFFFC98ADFFFFFFF4000
04FFFFFFA2000004DFFFFFD000
0BFFFFFA000000001DFFFFF500
2FFFFFE10000000004FFFFFC00
6FFFFF800000000000DFFFFF10
9FFFFF3000000000008FFFFF40
BFFFFF0000000000005FFFFF60
CFFFFD0000000000003FFFFF70
DFFFFD0000000000003FFFFF80
DFFFFD0000000000003FFFFF80
CFFFFD0000000000004FFFFF70
BFFFFF0000000000005FFFFF60
9FFFFF3000000000008FFFFF40
5FFFFF800000000000DFFFFF00
2FFFFFE10000000004FFFFFB00
0AFFFFFA000000002DFFFFF500
04FFFFFFB2000004DFFFFFD000
009FFFFFFFCA9ADFFFFFFF4000
000CFFFFFFFFFFFFFFFFF70000
0001AFFFFFFFFFFFFFFF600000
000005DFFFFFFFFFFFA3000000
000000048BDEFEDA7200000000
ENDCHAR
STARTCHAR Oacute
ENCODING 211
SWIDTH 795 0
DWIDTH 29 0
BBX 25 34 2 0
BITMAP
00000000000009FFFFF8000000
0000000000005FFFFF80000000
000000000002EFFFF600000000
00000000000CFFFE4000000000
00000000009FFFD30000000000
0000000005FFFB100000000000
00000000000000000000000000
00000000000000000000000000
000000048BDEFEDA7200000000
000005DFFFFFFFFFFFA3000000
0001AFFFFFFFFFFFFFFF600000
001CFFFFFFFFFFFFFFFFF70000
009FFFFFFFC98ADFFFFFFF4000
04FFFFFFA2000004DFFFFFD000
0BFFFFFA000000001DFFFFF500
2FFFFFE10000000004FFFFFC00
6FFFFF800000000000DFFFFF10
9FFFFF3000000000008FFFFF40
BFFFFF0000000000005FFFFF60
CFFFFD0000000000003FFFFF70
DFFFFD0000000000003FFFFF80
DFFFFD0000000000003FFFFF80
CFFFFD0000000000004FFFFF70
BFFFFF0000000000005FFFFF60
9FFFFF3000000000008FFFFF40
5FFFFF800000000000DFFFFF00
2FFFFFE10000000004FFFFFB00
0AFFFFFA000000002DFFFFF500
04FFFFFFB2000004DFFFFFD000
009FFFFFFFCA9ADFFFFFFF4000
000CFFFFFFFFFFFFFFFFF70000
0001AFFFFFFFFFFFFFFF600000
000005DFFFFFFFFFFFA3000000
000000048BDEFEDA7200000000
ENDCHAR
STARTCHAR Ocircumflex
ENCODING 212
SWIDTH 795 0
DWIDTH 29 0
BBX 25 34 2 0
BITMAP
000000002FFFFFFC0000000000
00000000CFFFFFFF8000000000
00000009FFFFDFFFF400000000
0000007FFFF71CFFFE30000000
000006FFFE5001AFFFD2000000
00003FFFC2000006EFFD000000
00000000000000000000000000
00000000000000000000000000
000000048BDEFEDA7200000000
000005DFFFFFFFFFFFA3000000
0001AFFFFFFFFFFFFFFF600000
001CFFFFFFFFFFFFFFFFF70000
009FFFFFFFC98ADFFFFFFF4000
04FFFFFFA2000004DFFFFFD000
0BFFFFFA000000001DFFFFF500
2FFFFFE10000000004FFFFFC00
6FFFFF800000000000DFFFFF10
9FFFFF3000000000008FFFFF40
BFFFFF0000000000005FFFFF60
CFFFFD0000000000003FFFFF70
DFFFFD0000000000003FFFFF80
DFFFFD0000000000003FFFFF80
CFFFFD0000000000004FFFFF70
BFFFFF0000000000005FFFFF60
9FFFFF3000000000008FFFFF40
5FFFFF800000000000DFFFFF00
2FFFFFE10000000004FFFFFB00
0AFFFFFA000000002DFFFFF500
04FFFFFFB2000004DFFFFFD000
009FFFFFFFCA9ADFFFFFFF4000
000CFFFFFFFFFFFFFFFFF70000
0001AFFFFFFFFFFFFFFF600000
000005DFFFFFFFFFFFA3000000
000000048BDEFEDA7200000000
ENDCHAR
STARTCHAR Otilde
ENCODING 213
SWIDTH 795 0
DWIDTH 29 0
BBX 25 33 2 0
BITMAP
00000006CFDA50004FF9000000
0000009FFFFFFEBAEFF5000000
000004FFFFFFFFFFFFE1000000
00000AFFD9BFFFFFFF50000000
00000DFD10017CEEB300000000
00000000000000000000000000
00000000000000000000000000
000000048BDEFEDA7200000000
000005DFFFFFFFFFFFA3000000
0001AFFFFFFFFFFFFFFF600000
001CFFFFFFFFFFFFFFFFF70000
009FFFFFFFC98ADFFFFFFF4000
04FFFFFFA2000004DFFFFFD000
0BFFFFFA000000001DFFFFF500
2FFFFFE10000000004FFFFFC00
6FFFFF800000000000DFFFFF10
9FFFFF3000000000008FFFFF40
BFFFFF0000000000005FFFFF60
CFFFFD0000000000003FFFFF70
DFFFFD0000000000003FFFFF80
DFFFFD0000000000003FFFFF80
CFFFFD0000000000004FFFFF70
BFFFFF0000000000005FFFFF60
9FFFFF3000000000008FFFFF40
5FFFFF800000000000DFFFFF00
2FFFFFE10000000004FFFFFB00
0AFFFFFA000000002DFFFFF500
04FFFFFFB2000004DFFFFFD000
009FFFFFFFCA9ADFFFFFFF4000
000CFFFFFFFFFFFFFFFFF70000
0001AFFFFFFFFFFFFFFF600000
000005DFFFFFFFFFFFA3000000
000000048BDEFEDA7200000000
ENDCHAR
STARTCHAR Odieresis
ENCODING 214
SWIDTH 795 0
DWIDTH 29 0
BBX 25 33 2 0
BITMAP
00000006A920005A9300000000
0000006FFFD105FFFE20000000
0000009FFFF308FFFF50000000
0000008FFFF106FFFF30000000
0000001AED5000AEE700000000
00000000000000000000000000
00000000000000000000000000
000000048BDEFEDA7200000000
000005DFFFFFFFFFFFA3000000
0001AFFFFFFFFFFFFFFF600000
001CFFFFFFFFFFFFFFFFF70000
009FFFFFFFC98ADFFFFFFF4000
04FFFFFFA2000004DFFFFFD000
0BFFFFFA000000001DFFFFF500
2FFFFFE10000000004FFFFFC00
6FFFFF800000000000DFFFFF10
9FFFFF3000000000008FFFFF40
BFFFFF0000000000005FFFFF60
CFFFFD0000000000003FFFFF70
DFFFFD0000000000003FFFFF80
DFFFFD0000000000003FFFFF80
CFFFFD0000000000004FFFFF70
BFFFFF0000000000005FFFFF60
9FFFFF3000000000008FFFFF40
5FFFFF800000000000DFFFFF00
2FFFFFE10000000004FFFFFB00
0AFFFFFA000000002DFFFFF500
04FFFFFFB2000004DFFFFFD000
009FFFFFFFCA9ADFFFFFFF4000
000CFFFFFFFFFFFFFFFFF70000
0001AFFFFFFFFFFFFFFF600000
000005DFFFFFFFFFFFA3000000
000000048BDEFEDA7200000000
ENDCHAR
STARTCHAR multiply
ENCODING 215
SWIDTH 570 0
DWIDTH 21 0
BBX 17 17 2 4
BITMAP
002100000000040000
02ED100000006F9000
2DFFD2000007FFF900
6FFFFD20007FFFFC10
07FFFFD207FFFFC100
007FFFFD8FFFFC1000
0007FFFFFFFFC10000
00007FFFFFFC100000
00000BFFFFF3000000
00007FFFFFFC100000
0007FFFFFFFFC10000
007FFFFD8FFFFC1000
07FFFFD107FFFFC100
6FFFFC10007FFFFC10
2DFFC1000006FFF800
02DC100000006F8000
002100000000030000
ENDCHAR
STARTCHAR Oslash
ENCODING 216
SWIDTH 795 0
DWIDTH 29 0
BBX 25 29 2 -2
BITMAP
00000000000000000006910000
000000048BDEFEDB722EFD4000
000005DFFFFFFFFFFFEFFF4000
0001AFFFFFFFFFFFFFFFF90000
001CFFFFFFFFFFFFFFFFF70000
009FFFFFFFC98ADFFFFFFF4000
04FFFFFFA2000009FFFFFFD000
0BFFFFFA0000003FFFFFFFF500
2FFFFFE1000000CFFFFFFFFB00
6FFFFF80000008FFF8DFFFFF00
9FFFFF3000003FFFC08FFFFF40
BFFFFF000001DFFF305FFFFF60
CFFFFD000009FFF7003FFFFF70
DFFFFD00004FFFC0003FFFFF80
DFFFFC0001DFFE20003FFFFF80
CFFFFD000AFFF700004FFFFF70
BFFFFF005FFFB000005FFFFF60
9FFFFF31EFFE2000008FFFFF40
5FFFFF8AFFF6000000DFFFFF00
2FFFFFFFFFA0000004FFFFFB00
0BFFFFFFFE1000002DFFFFF500
04FFFFFFF7000004DFFFFFD000
00AFFFFFFFCA9ADFFFFFFF4000
000CFFFFFFFFFFFFFFFFF70000
000BFFFFFFFFFFFFFFFF600000
007FFFFFFFFFFFFFFFA3000000
00AFFE149CEFFEDA7200000000
0005E500000000000000000000
00001000000000000000000000
ENDCHAR
STARTCHAR Ugrave
ENCODING 217
SWIDTH 755 0
DWIDTH 27 0
BBX 22 34 3 0
BITMAP
0004FFFFFD100000000000
00004EFFFF900000000000
000003EFFFF50000000000
0000002CFFFE2000000000
00000001AFFFD100000000
0000000007FFF900000000
0000000000000000000000
0000000000000000000000
EFFFF70000000004FFFFF2
EFFFF70000000004FFFFF2
EFFFF70000000004FFFFF2
EFFFF70000000004FFFFF2
EFFFF70000000004FFFFF2
EFFFF70000000004FFFFF2
EFFFF70000000004FFFFF2
EFFFF70000000004FFFFF2
EFFFF70000000004FFFFF2
EFFFF70000000004FFFFF2
EFFFF70000000004FFFFF2
EFFFF70000000004FFFFF2
EFFFF70000000004FFFFF2
EFFFF70000000004FFFFF2
EFFFF70000000004FFFFF2
EFFFF70000000004FFFFF2
EFFFF80000000005FFFFF2
DFFFFA0000000007FFFFF1
BFFFFD000000000AFFFFE0
8FFFFF500000002FFFFFB0
3FFFFFE5000003DFFFFF60
0BFFFFFFDA9ACFFFFFFD00
02EFFFFFFFFFFFFFFFF300
003EFFFFFFFFFFFFFE4000
0001AFFFFFFFFFFFA20000
0000027ADEFEDB72000000
ENDCHAR
STARTCHAR Uacute
ENCODING 218
SWIDTH 755 0
DWIDTH 27 0
BBX 22 34 3 0
BITMAP
000000000009FFFFF80000
00000000004FFFFF800000
0000000002EFFFF7000000
000000000CFFFE50000000
000000009FFFD300000000
00000005FFFB1000000000
0000000000000000000000
0000000000000000000000
EFFFF70000000004FFFFF2
EFFFF70000000004FFFFF2
EFFFF70000000004FFFFF2
EFFFF70000000004FFFFF2
EFFFF70000000004FFFFF2
EFFFF70000000004FFFFF2
EFFFF70000000004FFFFF2
EFFFF70000000004FFFFF2
EFFFF70000000004FFFFF2
EFFFF70000000004FFFFF2
EFFFF70000000004FFFFF2
EFFFF70000000004FFFFF2
EFFFF70000000004FFFFF2
EFFFF70000000004FFFFF2
EFFFF70000000004FFFFF2
EFFFF70000000004FFFFF2
EFFFF80000000005FFFFF2
DFFFFA0000000007FFFFF1
BFFFFD000000000AFFFFE0
8FFFFF500000002FFFFFB0
3FFFFFE5000003DFFFFF60
0BFFFFFFDA9ACFFFFFFD00
02EFFFFFFFFFFFFFFFF300
003EFFFFFFFFFFFFFE4000
0001AFFFFFFFFFFFA20000
0000027ADEFEDB72000000
ENDCHAR
STARTCHAR Ucircumflex
ENCODING 219
SWIDTH 755 0
DWIDTH 27 0
BBX 22 34 3 0
BITMAP
0000000CFFFFFE20000000
0000008FFFFFFFC0000000
000005FFFFDFFFF9000000
00003FFFFA19FFFF600000
0003EFFF80007FFFF50000
000DFFE5000003DFFF2000
0000000000000000000000
0000000000000000000000
EFFFF70000000004FFFFF2
EFFFF70000000004FFFFF2
EFFFF70000000004FFFFF2
EFFFF70000000004FFFFF2
EFFFF70000000004FFFFF2
EFFFF70000000004FFFFF2
EFFFF70000000004FFFFF2
EFFFF70000000004FFFFF2
EFFFF70000000004FFFFF2
EFFFF70000000004FFFFF2
EFFFF70000000004FFFFF2
EFFFF70000000004FFFFF2
EFFFF70000000004FFFFF2
EFFFF70000000004FFFFF2
EFFFF70000000004FFFFF2
EFFFF70000000004FFFFF2
EFFFF80000000005FFFFF2
DFFFFA0000000007FFFFF1
BFFFFD000000000AFFFFE0
8FFFFF500000002FFFFFB0
3FFFFFE5000003DFFFFF60
0BFFFFFFDA9ACFFFFFFD00
02EFFFFFFFFFFFFFFFF300
003EFFFFFFFFFFFFFE4000
0001AFFFFFFFFFFFA20000
0000027ADEFEDB72000000
ENDCHAR
STARTCHAR Udieresis
ENCODING 220
SWIDTH 755 0
DWIDTH 27 0
BBX 22 33 3 0
BITMAP
000003AA400039A5000000
00002FFFF301EFFF500000
00005FFFF704FFFF900000
00003FFFF502FFFF700000
000007EE90006DEA100000
0000000000000000000000
0000000000000000000000
EFFFF70000000004FFFFF2
EFFFF70000000004FFFFF2
EFFFF70000000004FFFFF2
EFFFF70000000004FFFFF2
EFFFF70000000004FFFFF2
EFFFF70000000004FFFFF2
EFFFF70000000004FFFFF2
EFFFF70000000004FFFFF2
EFFFF70000000004FFFFF2
EFFFF70000000004FFFFF2
EFFFF70000000004FFFFF2
EFFFF70000000004FFFFF2
EFFFF70000000004FFFFF2
EFFFF70000000004FFFFF2
EFFFF70000000004FFFFF2
EFFFF70000000004FFFFF2
EFFFF80000000005FFFFF2
DFFFFA0000000007FFFFF1
BFFFFD000000000AFFFFE0
8FFFFF500000002FFFFFB0
3FFFFFE5000003DFFFFF60
0BFFFFFFDA9ACFFFFFFD00
02EFFFFFFFFFFFFFFFF300
003EFFFFFFFFFFFFFE4000
0001AFFFFFFFFFFFA20000
0000027ADEFEDB72000000
ENDCHAR
STARTCHAR Yacute
ENCODING 221
SWIDTH 624 0
DWIDTH 22 0
BBX 23 34 0 0
BITMAP
000000000002EFFFFE200000
00000000000BFFFFD3000000
00000000008FFFFC20000000
0000000004FFFFB100000000
000000002EFFF80000000000
00000000CFFE500000000000
000000000000000000000000
000000000000000000000000
BFFFFF2000000000AFFFFF30
3FFFFFA000000003FFFFFA00
0AFFFFF20000000AFFFFF200
02FFFFFA0000003FFFFF9000
009FFFFF200000AFFFFE1000
002EFFFFA00003FFFFF80000
0008FFFFF2000AFFFFE10000
0001EFFFFA003FFFFF600000
00007FFFFF20AFFFFD000000
00001DFFFFA3FFFFF5000000
000006FFFFFCFFFFC0000000
000000DFFFFFFFFF40000000
0000005FFFFFFFFB00000000
0000000CFFFFFFF300000000
00000004FFFFFFA000000000
00000000BFFFFF2000000000
000000007FFFFE0000000000
000000007FFFFE0000000000
000000007FFFFE0000000000
000000007FFFFE0000000000
000000007FFFFE0000000000
000000007FFFFE0000000000
000000007FFFFE0000000000
000000007FFFFE0000000000
000000007FFFFE0000000000
000000007FFFFE0000000000
ENDCHAR
STARTCHAR Thorn
ENCODING 222
SWIDTH 627 0
DWIDTH 23 0
BBX 18 26 3 0
BITMAP
CFFFFA000000000000
CFFFFA000000000000
CFFFFA000000000000
CFFFFA000000000000
CFFFFFFFFEDB820000
CFFFFFFFFFFFFFA100
CFFFFFFFFFFFFFFD10
CFFFFFFFFFFFFFFFB0
CFFFFC7779DFFFFFF4
CFFFFA000009FFFFF9
CFFFFA000000DFFFFC
CFFFFA0000009FFFFE
CFFFFA0000008FFFFE
CFFFFA0000009FFFFD
CFFFFA000000EFFFFC
CFFFFA00001AFFFFF8
CFFFFC6679EFFFFFF2
CFFFFFFFFFFFFFFF80
CFFFFFFFFFFFFFFA00
CFFFFFFFFFFFFE7000
CFFFFFFFFEDA610000
CFFFFA000000000000
CFFFFA000000000000
CFFFFA000000000000
CFFFFA000000000000
CFFFFA000000000000
ENDCHAR
STARTCHAR germandbls
ENCODING 223
SWIDTH 710 0
DWIDTH 26 0
BBX 23 27 2 0
BITMAP
0000028BDEFEDB8400000000
0002BFFFFFFFFFFFD5000000
004EFFFFFFFFFFFFFF900000
02EFFFFFFFFFFFFFFFF60000
09FFFFFE85348EFFFFFC0000
0EFFFFD1000001DFFFFE0000
2FFFFF500000008FFFFD0000
3FFFFF30000000CFFFF80000
3FFFFF30000009FFFFE10000
3FFFFF300001BFFFFE300000
3FFFFF30002DFFFFC2000000
3FFFFF3000DFFFF900000000
3FFFFF3004FFFFF000000000
3FFFFF3006FFFFF800000000
3FFFFF3003FFFFFFC3000000
3FFFFF30009FFFFFFF910000
3FFFFF300009FFFFFFFD3000
3FFFFF3000004CFFFFFFE200
3FFFFF300000006EFFFFFB00
3FFFFF3000000002CFFFFF20
3FFFFF30000000004FFFFF40
3FFFFF30010000004FFFFF40
3FFFFF301E940002BFFFFF20
3FFFFF301FFFFDEFFFFFFC00
3FFFFF301FFFFFFFFFFFF400
3FFFFF301FFFFFFFFFFE4000
3FFFFF30028CEFFEDA610000
ENDCHAR
STARTCHAR agrave
ENCODING 224
SWIDTH 604 0
DWIDTH 22 0
BBX 18 28 1 0
BITMAP
0009FFFFF800000000
00009FFFFF30000000
000008FFFFD1000000
0000005FFFFB000000
00000003EFFF800000
000000002CFFF40000
000000000000000000
000000000000000000
000026ACEFEDB82000
003BFFFFFFFFFFF800
005FFFFFFFFFFFFFA0
000CFFFFFFFFFFFFF4
0005FD841017FFFFFA
0000300000009FFFFE
0000000000006FFFFF
0000000000004FFFFF
0000269BDEEEFFFFFF
003BFFFFFFFFFFFFFF
04EFFFFFFFFFFFFFFF
0DFFFFFC74326FFFFF
4FFFFF9000004FFFFF
6FFFFF1000006FFFFF
7FFFFF100001DFFFFF
5FFFFFA1014CFFFFFF
1FFFFFFFEFFFFFFFFF
09FFFFFFFFFFA9FFFF
01BFFFFFFFF903FFFF
0005BEFED93000DFFF
ENDCHAR
STARTCHAR aacute
ENCODING 225
SWIDTH 604 0
DWIDTH 22 0
BBX 18 28 1 0
BITMAP
00000000007FFFFFB0
0000000002EFFFFA00
000000001CFFFF9000
000000009FFFF70000
00000006FFFE400000
0000002FFFC2000000
000000000000000000
000000000000000000
000026ACEFEDB82000
003BFFFFFFFFFFF800
005FFFFFFFFFFFFFA0
000CFFFFFFFFFFFFF4
0005FD841017FFFFFA
0000300000009FFFFE
0000000000006FFFFF
0000000000004FFFFF
0000269BDEEEFFFFFF
003BFFFFFFFFFFFFFF
04EFFFFFFFFFFFFFFF
0DFFFFFC74326FFFFF
4FFFFF9000004FFFFF
6FFFFF1000006FFFFF
7FFFFF100001DFFFFF
5FFFFFA1014CFFFFFF
1FFFFFFFEFFFFFFFFF
09FFFFFFFFFFA9FFFF
01BFFFFFFFF903FFFF
0005BEFED93000DFFF
ENDCHAR
STARTCHAR acircumflex
ENCODING 226
SWIDTH 604 0
DWIDTH 22 0
BBX 18 28 1 0
BITMAP
000000BFFFFFF30000
000006FFFFFFFD1000
00003FFFFDFFFFB000
0002EFFFC17FFFF800
001DFFFA1005EFFF70
00CFFF6000002CFFF4
000000000000000000
000000000000000000
000026ACEFEDB82000
003BFFFFFFFFFFF800
005FFFFFFFFFFFFFA0
000CFFFFFFFFFFFFF4
0005FD841017FFFFFA
0000300000009FFFFE
0000000000006FFFFF
0000000000004FFFFF
0000269BDEEEFFFFFF
003BFFFFFFFFFFFFFF
04EFFFFFFFFFFFFFFF
0DFFFFFC74326FFFFF
4FFFFF9000004FFFFF
6FFFFF1000006FFFFF
7FFFFF100001DFFFFF
5FFFFFA1014CFFFFFF
1FFFFFFFEFFFFFFFFF
09FFFFFFFFFFA9FFFF
01BFFFFFFFF903FFFF
0005BEFED93000DFFF
ENDCHAR
STARTCHAR atilde
ENCODING 227
SWIDTH 604 0
DWIDTH 22 0
BBX 18 27 1 0
BITMAP
000018DFD930008FF5
0001CFFFFFFDAAFFF2
0008FFFFFFFFFFFFB0
000EFFC9CFFFFFFE20
002FFB00038CFE9200
000000000000000000
000000000000000000
000026ACEFEDB82000
003BFFFFFFFFFFF800
005FFFFFFFFFFFFFA0
000CFFFFFFFFFFFFF4
0005FD841017FFFFFA
0000300000009FFFFE
0000000000006FFFFF
0000000000004FFFFF
0000269BDEEEFFFFFF
003BFFFFFFFFFFFFFF
04EFFFFFFFFFFFFFFF
0DFFFFFC74326FFFFF
4FFFFF9000004FFFFF
6FFFFF1000006FFFFF
7FFFFF100001DFFFFF
5FFFFFA1014CFFFFFF
1FFFFFFFEFFFFFFFFF
09FFFFFFFFFFA9FFFF
01BFFFFFFFF903FFFF
0005BEFED93000DFFF
ENDCHAR
STARTCHAR adieresis
ENCODING 228
SWIDTH 604 0
DWIDTH 22 0
BBX 18 27 1 0
BITMAP
000018A710017A8100
0000AFFF9009FFFB00
0000EFFFD00DFFFF00
0000CFFFB00BFFFD00
00003CEC2003CEC400
000000000000000000
000000000000000000
000026ACEFEDB82000
003BFFFFFFFFFFF800
005FFFFFFFFFFFFFA0
000CFFFFFFFFFFFFF4
0005FD841017FFFFFA
0000300000009FFFFE
0000000000006FFFFF
0000000000004FFFFF
0000269BDEEEFFFFFF
003BFFFFFFFFFFFFFF
04EFFFFFFFFFFFFFFF
0DFFFFFC74326FFFFF
4FFFFF9000004FFFFF
6FFFFF1000006FFFFF
7FFFFF100001DFFFFF
5FFFFFA1014CFFFFFF
1FFFFFFFEFFFFFFFFF
09FFFFFFFFFFA9FFFF
01BFFFFFFFF903FFFF
0005BEFED93000DFFF
ENDCHAR
STARTCHAR aring
ENCODING 229
SWIDTH 604 0
DWIDTH 22 0
BBX 18 30 1 0
BITMAP
00000005CEFC600000
0000007FFFFFF90000
000001FFF98EFF3000
000004FF7006FF7000
000004FF7006FF7000
000001FFE99EFF3000
0000007FFFFFF90000
00000005CEFC600000
000000000000000000
000000000000000000
000026ACEFEDB82000
003BFFFFFFFFFFF800
005FFFFFFFFFFFFFA0
000CFFFFFFFFFFFFF4
0005FD841017FFFFFA
0000300000009FFFFE
0000000000006FFFFF
0000000000004FFFFF
0000269BDEEEFFFFFF
003BFFFFFFFFFFFFFF
04EFFFFFFFFFFFFFFF
0DFFFFFC74326FFFFF
4FFFFF9000004FFFFF
6FFFFF1000006FFFFF
7FFFFF100001DFFFFF
5FFFFFA1014CFFFFFF
1FFFFFFFEFFFFFFFFF
09FFFFFFFFFFA9FFFF
01BFFFFFFFF903FFFF
0005BEFED93000DFFF
ENDCHAR
STARTCHAR ae
ENCODING 230
SWIDTH 916 0
DWIDTH 33 0
BBX 31 20 1 0
BITMAP
000027ADEFEDA500016BDEEDA6000000
003BFFFFFFFFFFC25EFFFFFFFFD30000
005FFFFFFFFFFFFEFFFFFFFFFFFF4000
000CFFFFFFFFFFFFFFFFFDDFFFFFE100
0005FB630029FFFFFFF81003DFFFF800
000020000000DFFFFF9000004FFFFE00
000000000000AFFFFF2000000CFFFF30
000000000000AFFFFE0000000AFFFF50
000037ACDEEFFFFFFFFFFFFFFFFFFF70
003CFFFFFFFFFFFFFFFFFFFFFFFFFF70
04FFFFFFFFFFFFFFFFFFFFFFFFFFFF70
0EFFFFFB6432AFFFFE88888888888840
4FFFFF800000AFFFFD00000000000000
7FFFFF100000CFFFFF30000000000000
7FFFFF100003FFFFFFC1000000001200
5FFFFFA1016EFFFFFFFD5100147BF500
1FFFFFFFEFFFFFBFFFFFFFFFFFFFF500
08FFFFFFFFFFFA05FFFFFFFFFFFFF500
009FFFFFFFFF80003CFFFFFFFFFFE400
0004ADFFEB8200000049CEFEEC951000
ENDCHAR
STARTCHAR ccedilla
ENCODING 231
SWIDTH 514 0
DWIDTH 19 0
BBX 17 29 1 -9
BITMAP
0000017ADEFECA6100
00008EFFFFFFFFFE30
000BFFFFFFFFFFFE00
009FFFFFFFFFFFF900
03FFFFFFA657AFF300
09FFFFF60000015000
0EFFFFB00000000000
2FFFFF600000000000
4FFFFF300000000000
5FFFFF200000000000
5FFFFF100000000000
4FFFFF300000000000
3FFFFF500000000000
0FFFFFB00000000000
0BFFFFF60000005A00
05FFFFFFA6569DFC00
00CFFFFFFFFFFFFC00
002EFFFFFFFFFFFC00
0002BFFFFFFFFFF900
0000048CEFFEC83000
0000000DFFA0000000
0000005FFF60000000
000000CFFFD6000000
00000004DFFF800000
000000003FFFF10000
000003105FFFF10000
00000DFFFFFFE00000
00000DFFFFFF600000
000009EFFDA4000000
ENDCHAR
STARTCHAR egrave
ENCODING 232
SWIDTH 590 0
DWIDTH 21 0
BBX 19 28 1 0
BITMAP
0007FFFFFA0000000000
00008FFFFF5000000000
000006FFFFE200000000
0000004EFFFC00000000
00000002DFFFA0000000
000000001BFFF5000000
00000000000000000000
00000000000000000000
0000017BDEEDA6100000
00007EFFFFFFFFE50000
000AFFFFFFFFFFFF7000
008FFFFFFDDFFFFFF400
02FFFFFB2002BFFFFC00
09FFFFD100001EFFFF30
0EFFFF70000008FFFF70
2FFFFF40000006FFFF90
4FFFFFFFFFFFFFFFFFA0
5FFFFFFFFFFFFFFFFFB0
5FFFFFFFFFFFFFFFFFB0
4FFFFF98888888888860
2FFFFF30000000000000
0EFFFF70000000000000
09FFFFE3000000001300
02FFFFFE7200136AE900
007FFFFFFFFFFFFFF900
0009FFFFFFFFFFFFF900
00005DFFFFFFFFFFF700
00000059CEFFECA62000
ENDCHAR
STARTCHAR eacute
ENCODING 233
SWIDTH 590 0
DWIDTH 21 0
BBX 19 28 1 0
BITMAP
00000000005FFFFFC000
0000000002EFFFFB1000
000000000BFFFFA00000
000000008FFFF8000000
00000005FFFF50000000
0000001EFFD300000000
00000000000000000000
00000000000000000000
0000017BDEEDA6100000
00007EFFFFFFFFE50000
000AFFFFFFFFFFFF7000
008FFFFFFDDFFFFFF400
02FFFFFB2002BFFFFC00
09FFFFD100001EFFFF30
0EFFFF70000008FFFF70
2FFFFF40000006FFFF90
4FFFFFFFFFFFFFFFFFA0
5FFFFFFFFFFFFFFFFFB0
5FFFFFFFFFFFFFFFFFB0
4FFFFF98888888888860
2FFFFF30000000000000
0EFFFF70000000000000
09FFFFE3000000001300
02FFFFFE7200136AE900
007FFFFFFFFFFFFFF900
0009FFFFFFFFFFFFF900
00005DFFFFFFFFFFF700
00000059CEFFECA62000
ENDCHAR
STARTCHAR ecircumflex
ENCODING 234
SWIDTH 590 0
DWIDTH 21 0
BBX 19 28 1 0
BITMAP
0000006FFFFFF8000000
000002EFFFFFFF400000
00001DFFFEEFFFE20000
0000BFFFE34EFFFC1000
000AFFFD2002DFFFB000
007FFFA1000019FFF900
00000000000000000000
00000000000000000000
0000017BDEEDA6100000
00007EFFFFFFFFE50000
000AFFFFFFFFFFFF7000
008FFFFFFDDFFFFFF400
02FFFFFB2002BFFFFC00
09FFFFD100001EFFFF30
0EFFFF70000008FFFF70
2FFFFF40000006FFFF90
4FFFFFFFFFFFFFFFFFA0
5FFFFFFFFFFFFFFFFFB0
5FFFFFFFFFFFFFFFFFB0
4FFFFF98888888888860
2FFFFF30000000000000
0EFFFF70000000000000
09FFFFE3000000001300
02FFFFFE7200136AE900
007FFFFFFFFFFFFFF900
0009FFFFFFFFFFFFF900
00005DFFFFFFFFFFF700
00000059CEFFECA62000
ENDCHAR
STARTCHAR edieresis
ENCODING 235
SWIDTH 590 0
DWIDTH 21 0
BBX 19 27 1 0
BITMAP
000007A820006A920000
00007FFFC006FFFE1000
0000BFFFF10AFFFF3000
00009FFFE008FFFF2000
00002BED4001AED60000
00000000000000000000
00000000000000000000
0000017BDEEDA6100000
00007EFFFFFFFFE50000
000AFFFFFFFFFFFF7000
008FFFFFFDDFFFFFF400
02FFFFFB2002BFFFFC00
09FFFFD100001EFFFF30
0EFFFF70000008FFFF70
2FFFFF40000006FFFF90
4FFFFFFFFFFFFFFFFFA0
5FFFFFFFFFFFFFFFFFB0
5FFFFFFFFFFFFFFFFFB0
4FFFFF98888888888860
2FFFFF30000000000000
0EFFFF70000000000000
09FFFFE3000000001300
02FFFFFE7200136AE900
007FFFFFFFFFFFFFF900
0009FFFFFFFFFFFFF900
00005DFFFFFFFFFFF700
00000059CEFFECA62000
ENDCHAR
STARTCHAR igrave
ENCODING 236
SWIDTH 305 0
DWIDTH 11 0
BBX 11 28 -2 0
BITMAP
9FFFFF800000
09FFFFF40000
007FFFFD1000
0005FFFFB000
00003DFFF800
000001BFFF40
000000000000
000000000000
00003FFFFF30
00003FFFFF30
00003FFFFF30
00003FFFFF30
00003FFFFF30
00003FFFFF30
00003FFFFF30
00003FFFFF30
00003FFFFF30
00003FFFFF30
00003FFFFF30
00003FFFFF30
00003FFFFF30
00003FFFFF30
00003FFFFF30
00003FFFFF30
00003FFFFF30
00003FFFFF30
00003FFFFF30
00003FFFFF30
ENDCHAR
STARTCHAR iacute
ENCODING 237
SWIDTH 305 0
DWIDTH 11 0
BBX 11 28 2 0
BITMAP
0000AFFFFF80
0005FFFFF800
002EFFFF6000
00CFFFE40000
09FFFD200000
5FFFB1000000
000000000000
000000000000
3FFFFF300000
3FFFFF300000
3FFFFF300000
3FFFFF300000
3FFFFF300000
3FFFFF300000
3FFFFF300000
3FFFFF300000
3FFFFF300000
3FFFFF300000
3FFFFF300000
3FFFFF300000
3FFFFF300000
3FFFFF300000
3FFFFF300000
3FFFFF300000
3FFFFF300000
3FFFFF300000
3FFFFF300000
3FFFFF300000
ENDCHAR
STARTCHAR icircumflex
ENCODING 238
SWIDTH 305 0
DWIDTH 11 0
BBX 17 28 -3 0
BITMAP
00001EFFFFFD100000
0000AFFFFFFFA00000
0007FFFFDFFFF70000
005FFFF91BFFFF5000
04FFFF70008FFFE300
1EFFD4000004DFFE10
000000000000000000
000000000000000000
000003FFFFF3000000
000003FFFFF3000000
000003FFFFF3000000
000003FFFFF3000000
000003FFFFF3000000
000003FFFFF3000000
000003FFFFF3000000
000003FFFFF3000000
000003FFFFF3000000
000003FFFFF3000000
000003FFFFF3000000
000003FFFFF3000000
000003FFFFF3000000
000003FFFFF3000000
000003FFFFF3000000
000003FFFFF3000000
000003FFFFF3000000
000003FFFFF3000000
000003FFFFF3000000
000003FFFFF3000000
ENDCHAR
STARTCHAR idieresis
ENCODING 239
SWIDTH 305 0
DWIDTH 11 0
BBX 13 27 -1 0
BITMAP
05A930004AA400
3FFFF203FFFF30
7FFFF506FFFF70
5FFFF304FFFF50
09EE70008EE900
00000000000000
00000000000000
0003FFFFF30000
0003FFFFF30000
0003FFFFF30000
0003FFFFF30000
0003FFFFF30000
0003FFFFF30000
0003FFFFF30000
0003FFFFF30000
0003FFFFF30000
0003FFFFF30000
0003FFFFF30000
0003FFFFF30000
0003FFFFF30000
0003FFFFF30000
0003FFFFF30000
0003FFFFF30000
0003FFFFF30000
0003FFFFF30000
0003FFFFF30000
0003FFFFF30000
ENDCHAR
STARTCHAR eth
ENCODING 240
SWIDTH 619 0
DWIDTH 22 0
BBX 20 27 1 0
BITMAP
0000003C4000005B0000
000000CFFC302BFF8000
000006FFFFFBEFFFF200
000003CFFFFFFFFC3000
00000008FFFFFFA00000
0000007EFFFFFFF50000
00000CFFFFEFFFFF3000
000008FFF81AFFFFD100
000000DB2000CFFFF900
0000001000002EFFFF20
000005ADEFEB58FFFF80
0003DFFFFFFFFBFFFFD0
004FFFFFFFFFFFFFFFF2
02EFFFFFFFFFFFFFFFF5
09FFFFFA30029FFFFFF8
0EFFFFB0000008FFFFF9
3FFFFF50000001FFFFFA
5FFFFF20000000DFFFFA
5FFFFF10000000DFFFF8
4FFFFF20000000EFFFF7
2FFFFF50000003FFFFF3
0DFFFFC000000AFFFFD0
07FFFFFB40029FFFFF70
00CFFFFFFFFFFFFFFC00
002DFFFFFFFFFFFFD200
00019FFFFFFFFFF91000
0000027BDEFDB8200000
ENDCHAR
STARTCHAR ntilde
ENCODING 241
SWIDTH 657 0
DWIDTH 24 0
BBX 19 27 2 0
BITMAP
00002AEEC72000CFF100
0003EFFFFFFC9CFFC000
000CFFFFFFFFFFFF7000
003FFFAAEFFFFFFB0000
006FF60004ADFD700000
00000000000000000000
00000000000000000000
3FFFF10049DEEDA40000
3FFFF41AFFFFFFFFA100
3FFFF9BFFFFFFFFFFA00
3FFFFFFFFFFFFFFFFF30
3FFFFFFFB657EFFFFF90
3FFFFFF700002FFFFFC0
3FFFFFC000000AFFFFE0
3FFFFF80000007FFFFE0
3FFFFF50000006FFFFE0
3FFFFF30000006FFFFE0
3FFFFF30000006FFFFE0
3FFFFF30000006FFFFE0
3FFFFF30000006FFFFE0
3FFFFF30000006FFFFE0
3FFFFF30000006FFFFE0
3FFFFF30000006FFFFE0
3FFFFF30000006FFFFE0
3FFFFF30000006FFFFE0
3FFFFF30000006FFFFE0
3FFFFF30000006FFFFE0
ENDCHAR
STARTCHAR ograve
ENCODING 242
SWIDTH 619 0
DWIDTH 22 0
BBX 20 28 1 0
BITMAP
000AFFFFF70000000000
0000AFFFFF3000000000
000008FFFFD100000000
0000006FFFFA00000000
00000004EFFF70000000
000000002CFFF3000000
00000000000000000000
00000000000000000000
0000016ADEFEB7200000
00007EFFFFFFFFF91000
000AFFFFFFFFFFFFC100
008FFFFFFFFFFFFFFB00
02FFFFFF9658EFFFFF60
09FFFFF400002DFFFFD0
0EFFFFA0000006FFFFF3
2FFFFF50000001FFFFF7
4FFFFF20000000EFFFF9
5FFFFF10000000DFFFFA
5FFFFF10000000DFFFFA
4FFFFF30000000EFFFF8
2FFFFF50000001FFFFF7
0DFFFFA0000006FFFFF3
08FFFFF400001DFFFFD0
02FFFFFF9658EFFFFF60
007FFFFFFFFFFFFFFB00
0009FFFFFFFFFFFFC100
00006EFFFFFFFFF91000
0000016ADFFDB8200000
ENDCHAR
STARTCHAR oacute
ENCODING 243
SWIDTH 619 0
DWIDTH 22 0
BBX 20 28 1 0
BITMAP
00000000001EFFFFF300
0000000000AFFFFE4000
0000000006FFFFD30000
000000003FFFFC100000
00000001DFFFA0000000
0000000AFFF700000000
00000000000000000000
00000000000000000000
0000016ADEFEB7200000
00007EFFFFFFFFF91000
000AFFFFFFFFFFFFC100
008FFFFFFFFFFFFFFB00
02FFFFFF9658EFFFFF60
09FFFFF400002DFFFFD0
0EFFFFA0000006FFFFF3
2FFFFF50000001FFFFF7
4FFFFF20000000EFFFF9
5FFFFF10000000DFFFFA
5FFFFF10000000DFFFFA
4FFFFF30000000EFFFF8
2FFFFF50000001FFFFF7
0DFFFFA0000006FFFFF3
08FFFFF400001DFFFFD0
02FFFFFF9658EFFFFF60
007FFFFFFFFFFFFFFB00
0009FFFFFFFFFFFFC100
00006EFFFFFFFFF91000
0000016ADFFDB8200000
ENDCHAR
STARTCHAR ocircumflex
ENCODING 244
SWIDTH 619 0
DWIDTH 22 0
BBX 20 28 1 0
BITMAP
0000005FFFFFF9000000
000002EFFFFFFF500000
00000CFFFFEFFFE20000
0000AFFFE43EFFFD1000
0009FFFD3002CFFFC100
006FFFA1000008FFFA00
00000000000000000000
00000000000000000000
0000016ADEFEB7200000
00007EFFFFFFFFF91000
000AFFFFFFFFFFFFC100
008FFFFFFFFFFFFFFB00
02FFFFFF9658EFFFFF60
09FFFFF400002DFFFFD0
0EFFFFA0000006FFFFF3
2FFFFF50000001FFFFF7
4FFFFF20000000EFFFF9
5FFFFF10000000DFFFFA
5FFFFF10000000DFFFFA
4FFFFF30000000EFFFF8
2FFFFF50000001FFFFF7
0DFFFFA0000006FFFFF3
08FFFFF400001DFFFFD0
02FFFFFF9658EFFFFF60
007FFFFFFFFFFFFFFB00
0009FFFFFFFFFFFFC100
00006EFFFFFFFFF91000
0000016ADFFDB8200000
ENDCHAR
STARTCHAR otilde
ENCODING 245
SWIDTH 619 0
DWIDTH 22 0
BBX 20 27 1 0
BITMAP
000018DFD940007FF500
0000CFFFFFFDAAFFF200
0007FFFFFFFFFFFFB000
000DFFC9CFFFFFFE2000
001FFB00028CEEA20000
00000000000000000000
00000000000000000000
0000016ADEFEB7200000
00007EFFFFFFFFF91000
000AFFFFFFFFFFFFC100
008FFFFFFFFFFFFFFB00
02FFFFFF9658EFFFFF60
09FFFFF400002DFFFFD0
0EFFFFA0000006FFFFF3
2FFFFF50000001FFFFF7
4FFFFF20000000EFFFF9
5FFFFF10000000DFFFFA
5FFFFF10000000DFFFFA
4FFFFF30000000EFFFF8
2FFFFF50000001FFFFF7
0DFFFFA0000006FFFFF3
08FFFFF400001DFFFFD0
02FFFFFF9658EFFFFF60
007FFFFFFFFFFFFFFB00
0009FFFFFFFFFFFFC100
00006EFFFFFFFFF91000
0000016ADFFDB8200000
ENDCHAR
STARTCHAR odieresis
ENCODING 246
SWIDTH 619 0
DWIDTH 22 0
BBX 20 27 1 0
BITMAP
000017A810007A920000
00009FFFB008FFFD0000
0000CFFFF00BFFFF2000
0000BFFFD009FFFE1000
00002CEC3002BED50000
00000000000000000000
00000000000000000000
0000016ADEFEB7200000
00007EFFFFFFFFF91000
000AFFFFFFFFFFFFC100
008FFFFFFFFFFFFFFB00
02FFFFFF9658EFFFFF60
09FFFFF400002DFFFFD0
0EFFFFA0000006FFFFF3
2FFFFF50000001FFFFF7
4FFFFF20000000EFFFF9
5FFFFF10000000DFFFFA
5FFFFF10000000DFFFFA
4FFFFF30000000EFFFF8
2FFFFF50000001FFFFF7
0DFFFFA0000006FFFFF3
08FFFFF400001DFFFFD0
02FFFFFF9658EFFFFF60
007FFFFFFFFFFFFFFB00
0009FFFFFFFFFFFFC100
00006EFFFFFFFFF91000
0000016ADFFDB8200000
ENDCHAR
STARTCHAR divide
ENCODING 247
SWIDTH 570 0
DWIDTH 21 0
BBX 18 18 1 4
BITMAP
00000004DEA1000000
0000000EFFF7000000
0000002FFFFA000000
0000001FFFF9000000
00000008FFE2000000
000000003410000000
000000000000000000
7FFFFFFFFFFFFFFFFF
7FFFFFFFFFFFFFFFFF
7FFFFFFFFFFFFFFFFF
6DDDDDDDDDDDDDDDDD
000000000000000000
00000005DEA1000000
0000000EFFF7000000
0000002FFFFA000000
0000001FFFF8000000
00000008FFE2000000
000000003410000000
ENDCHAR
STARTCHAR oslash
ENCODING 248
SWIDTH 619 0
DWIDTH 22 0
BBX 20 22 1 -1
BITMAP
00000000000000040000
0000016ADEFDB74FC300
00007EFFFFFFFFFFFE10
000AFFFFFFFFFFFFF600
008FFFFFFFFFFFFFFA00
02FFFFFF9659FFFFFF60
09FFFFF40008FFFFFFD0
0EFFFFA0004FFFFFFFF3
2FFFFF5001DFFEFFFFF6
4FFFFF2009FFF5DFFFF8
5FFFFF105FFFA0CFFFFA
5FFFFF21EFFD10DFFFFA
4FFFFF3AFFF400EFFFF8
2FFFFFBFFF9001FFFFF7
0DFFFFFFFD1006FFFFF3
08FFFFFFF3001DFFFFD0
02FFFFFFD558EFFFFF60
007FFFFFFFFFFFFFFB00
000DFFFFFFFFFFFFC100
007FFFFFFFFFFFF91000
006EFC6ADEFDB8200000
0002B200000000000000
ENDCHAR
STARTCHAR ugrave
ENCODING 249
SWIDTH 657 0
DWIDTH 24 0
BBX 19 28 2 0
BITMAP
007FFFFFA00000000000
0008FFFFF50000000000
00006FFFFE2000000000
000004EFFFC000000000
0000002DFFFA00000000
00000001BFFF50000000
00000000000000000000
00000000000000000000
4FFFFF10000008FFFFD0
4FFFFF10000008FFFFD0
4FFFFF10000008FFFFD0
4FFFFF10000008FFFFD0
4FFFFF10000008FFFFD0
4FFFFF10000008FFFFD0
4FFFFF10000008FFFFD0
4FFFFF10000008FFFFD0
4FFFFF10000008FFFFD0
4FFFFF10000008FFFFD0
4FFFFF10000008FFFFD0
4FFFFF1000000AFFFFD0
4FFFFF2000000DFFFFD0
4FFFFF5000002FFFFFD0
2FFFFFB00000BFFFFFD0
0EFFFFFB547DFFFFFFD0
09FFFFFFFFFFFFFFFFD0
02EFFFFFFFFFF7DFFFD0
003EFFFFFFFF70AFFFD0
00017BEFEC82006FFFD0
ENDCHAR
STARTCHAR uacute
ENCODING 250
SWIDTH 657 0
DWIDTH 24 0
BBX 19 28 2 0
BITMAP
00000000007FFFFFB000
0000000002EFFFFA0000
000000001CFFFF900000
000000009FFFF7000000
00000006FFFE40000000
0000002FFFC200000000
00000000000000000000
00000000000000000000
4FFFFF10000008FFFFD0
4FFFFF10000008FFFFD0
4FFFFF10000008FFFFD0
4FFFFF10000008FFFFD0
4FFFFF10000008FFFFD0
4FFFFF10000008FFFFD0
4FFFFF10000008FFFFD0
4FFFFF10000008FFFFD0
4FFFFF10000008FFFFD0
4FFFFF10000008FFFFD0
4FFFFF10000008FFFFD0
4FFFFF1000000AFFFFD0
4FFFFF2000000DFFFFD0
4FFFFF5000002FFFFFD0
2FFFFFB00000BFFFFFD0
0EFFFFFB547DFFFFFFD0
09FFFFFFFFFFFFFFFFD0
02EFFFFFFFFFF7DFFFD0
003EFFFFFFFF70AFFFD0
00017BEFEC82006FFFD0
ENDCHAR
STARTCHAR ucircumflex
ENCODING 251
SWIDTH 657 0
DWIDTH 24 0
BBX 19 28 2 0
BITMAP
000000BFFFFFF4000000
000006FFFFFFFD100000
00003FFFFDFFFFB00000
0002EFFFC17FFFF90000
001DFFFA1005EFFF7000
00BFFF7000002BFFF400
00000000000000000000
00000000000000000000
4FFFFF10000008FFFFD0
4FFFFF10000008FFFFD0
4FFFFF10000008FFFFD0
4FFFFF10000008FFFFD0
4FFFFF10000008FFFFD0
4FFFFF10000008FFFFD0
4FFFFF10000008FFFFD0
4FFFFF10000008FFFFD0
4FFFFF10000008FFFFD0
4FFFFF10000008FFFFD0
4FFFFF10000008FFFFD0
4FFFFF1000000AFFFFD0
4FFFFF2000000DFFFFD0
4FFFFF5000002FFFFFD0
2FFFFFB00000BFFFFFD0
0EFFFFFB547DFFFFFFD0
09FFFFFFFFFFFFFFFFD0
02EFFFFFFFFFF7DFFFD0
003EFFFFFFFF70AFFFD0
00017BEFEC82006FFFD0
ENDCHAR
STARTCHAR udieresis
ENCODING 252
SWIDTH 657 0
DWIDTH 24 0
BBX 19 27 2 0
BITMAP
000039A500029A600000
0001EFFF500DFFF70000
0003FFFF902FFFFB0000
0002FFFF701FFFF90000
00006DEA1005DEB10000
00000000000000000000
00000000000000000000
4FFFFF10000008FFFFD0
4FFFFF10000008FFFFD0
4FFFFF10000008FFFFD0
4FFFFF10000008FFFFD0
4FFFFF10000008FFFFD0
4FFFFF10000008FFFFD0
4FFFFF10000008FFFFD0
4FFFFF10000008FFFFD0
4FFFFF10000008FFFFD0
4FFFFF10000008FFFFD0
4FFFFF10000008FFFFD0
4FFFFF1000000AFFFFD0
4FFFFF2000000DFFFFD0
4FFFFF5000002FFFFFD0
2FFFFFB00000BFFFFFD0
0EFFFFFB547DFFFFFFD0
09FFFFFFFFFFFFFFFFD0
02EFFFFFFFFFF7DFFFD0
003EFFFFFFFF70AFFFD0
00017BEFEC82006FFFD0
ENDCHAR
STARTCHAR yacute
ENCODING 253
SWIDTH 568 0
DWIDTH 20 0
BBX 21 37 0 -9
BITMAP
00000000004FFFFFD00000
0000000001DFFFFC100000
000000000AFFFFB1000000
000000007FFFF900000000
00000004FFFF6000000000
0000001EFFD30000000000
0000000000000000000000
0000000000000000000000
CFFFFF100000006FFFFF50
6FFFFF50000000BFFFFE00
1EFFFFA0000001FFFFF900
0AFFFFE1000006FFFFF300
04FFFFF500000BFFFFC000
00DFFFFA00001FFFFF7000
007FFFFE00005FFFFF2000
001FFFFF5000AFFFFB0000
000AFFFF9000EFFFF50000
0004FFFFE004FFFFE10000
0000DFFFF409FFFF900000
00008FFFF90EFFFF400000
00002FFFFD3FFFFD000000
00000BFFFF7FFFF8000000
000005FFFFBFFFF2000000
000000EFFFFFFFC0000000
0000008FFFFFFF60000000
0000002FFFFFFF10000000
0000000CFFFFFA00000000
00000006FFFFF500000000
00000005FFFFE000000000
0000000BFFFF9000000000
0000003FFFFF3000000000
000002DFFFFC0000000000
06668EFFFFF50000000000
0CFFFFFFFFB00000000000
0CFFFFFFFC100000000000
0CFFFFFFA1000000000000
09EFED9400000000000000
ENDCHAR
STARTCHAR thorn
ENCODING 254
SWIDTH 632 0
DWIDTH 23 0
BBX 20 36 2 -9
BITMAP
3FFFFF30000000000000
3FFFFF30000000000000
3FFFFF30000000000000
3FFFFF30000000000000
3FFFFF30000000000000
3FFFFF30000000000000
3FFFFF20000000000000
3FFFFF204ADFEC710000
3FFFFF19FFFFFFFD3000
3FFFFF8FFFFFFFFFE200
3FFFFFFFFFFFFFFFFA00
3FFFFFFE8559FFFFFF30
3FFFFFF300006FFFFF80
3FFFFF9000000CFFFFC0
3FFFFF50000008FFFFF0
3FFFFF30000006FFFFF1
3FFFFF30000005FFFFF2
3FFFFF30000005FFFFF2
3FFFFF40000006FFFFF1
3FFFFF60000008FFFFF0
3FFFFFB000000DFFFFC0
3FFFFFF400007FFFFF80
3FFFFFFFA66AFFFFFF30
3FFFFFFFFFFFFFFFFA00
3FFFFFDFFFFFFFFFE200
3FFFFF2CFFFFFFFD3000
3FFFFF106BEFEC710000
3FFFFF20000000000000
3FFFFF30000000000000
3FFFFF30000000000000
3FFFFF30000000000000
3FFFFF30000000000000
3FFFFF30000000000000
3FFFFF30000000000000
3FFFFF30000000000000
3FFFFF30000000000000
ENDCHAR
STARTCHAR ydieresis
ENCODING 255
SWIDTH 568 0
DWIDTH 20 0
BBX 21 36 0 -9
BITMAP
000006A920006A93000000
00007FFFD006FFFE100000
0000AFFFF209FFFF400000
00008FFFE107FFFF200000
00001BED5001AED6000000
0000000000000000000000
0000000000000000000000
CFFFFF100000006FFFFF50
6FFFFF50000000BFFFFE00
1EFFFFA0000001FFFFF900
0AFFFFE1000006FFFFF300
04FFFFF500000BFFFFC000
00DFFFFA00001FFFFF7000
007FFFFE00005FFFFF2000
001FFFFF5000AFFFFB0000
000AFFFF9000EFFFF50000
0004FFFFE004FFFFE10000
0000DFFFF409FFFF900000
00008FFFF90EFFFF400000
00002FFFFD3FFFFD000000
00000BFFFF7FFFF8000000
000005FFFFBFFFF2000000
000000EFFFFFFFC0000000
0000008FFFFFFF60000000
0000002FFFFFFF10000000
0000000CFFFFFA00000000
00000006FFFFF500000000
00000005FFFFE000000000
0000000BFFFF9000000000
0000003FFFFF3000000000
000002DFFFFC0000000000
06668EFFFFF50000000000
0CFFFFFFFFB00000000000
0CFFFFFFFC100000000000
0CFFFFFFA1000000000000
09EFED9400000000000000
ENDCHAR
STARTCHAR Amacron
ENCODING 256
SWIDTH 689 0
DWIDTH 25 0
BBX 25 32 0 0
BITMAP
0000005BBBBBBBBBBB50000000
0000007FFFFFFFFFFF70000000
0000007FFFFFFFFFFF70000000
0000007FFFFFFFFFFF70000000
00000000000000000000000000
00000000000000000000000000
000000002FFFFFFD0000000000
000000007FFFFFFF4000000000
00000000CFFFFFFF9000000000
00000002FFFFFFFFE000000000
00000007FFFFBFFFF500000000
0000000DFFFE3FFFFA00000000
0000003FFFFB0DFFFE10000000
0000008FFFF608FFFF50000000
000000DFFFF204FFFFB0000000
000004FFFFC000EFFFF1000000
000009FFFF70009FFFF6000000
00000EFFFF30005FFFFB000000
00004FFFFD00000EFFFF200000
0000AFFFF900000AFFFF700000
0001EFFFF4000005FFFFC00000
0005FFFFFFFFFFFFFFFFF20000
000AFFFFFFFFFFFFFFFFF80000
001FFFFFFFFFFFFFFFFFFD0000
006FFFFFFFFFFFFFFFFFFF3000
00BFFFFD999999999EFFFF8000
01FFFFF70000000009FFFFE000
06FFFFF30000000005FFFFF400
0CFFFFD00000000001FFFFF900
2FFFFF900000000000BFFFFE00
7FFFFF5000000000007FFFFF50
CFFFFF1000000000003FFFFFA0
ENDCHAR
STARTCHAR amacron
ENCODING 257
SWIDTH 604 0
DWIDTH 22 0
BBX 18 26 1 0
BITMAP
00009BBBBBBBBBBB10
0000DFFFFFFFFFFF10
0000DFFFFFFFFFFF10
0000DFFFFFFFFFFF10
000000000000000000
000000000000000000
000026ACEFEDB82000
003BFFFFFFFFFFF800
005FFFFFFFFFFFFFA0
000CFFFFFFFFFFFFF4
0005FD841017FFFFFA
0000300000009FFFFE
0000000000006FFFFF
0000000000004FFFFF
0000269BDEEEFFFFFF
003BFFFFFFFFFFFFFF
04EFFFFFFFFFFFFFFF
0DFFFFFC74326FFFFF
4FFFFF9000004FFFFF
6FFFFF1000006FFFFF
7FFFFF100001DFFFFF
5FFFFFA1014CFFFFFF
1FFFFFFFEFFFFFFFFF
09FFFFFFFFFFA9FFFF
01BFFFFFFFF903FFFF
0005BEFED93000DFFF
ENDCHAR
STARTCHAR Abreve
ENCODING 258
SWIDTH 689 0
DWIDTH 25 0
BBX 25 34 0 0
BITMAP
000007FF90000000DFF4000000
000004FFE4000019FFF1000000
000000DFFFECCDFFFFA0000000
0000005FFFFFFFFFFD10000000
00000006FFFFFFFFC200000000
0000000028CEFEB60000000000
00000000000000000000000000
00000000000000000000000000
000000002FFFFFFD0000000000
000000007FFFFFFF4000000000
00000000CFFFFFFF9000000000
00000002FFFFFFFFE000000000
00000007FFFFBFFFF500000000
0000000DFFFE3FFFFA00000000
0000003FFFFB0DFFFE10000000
0000008FFFF608FFFF50000000
000000DFFFF204FFFFB0000000
000004FFFFC000EFFFF1000000
000009FFFF70009FFFF6000000
00000EFFFF30005FFFFB000000
00004FFFFD00000EFFFF200000
0000AFFFF900000AFFFF700000
0001EFFFF4000005FFFFC00000
0005FFFFFFFFFFFFFFFFF20000
000AFFFFFFFFFFFFFFFFF80000
001FFFFFFFFFFFFFFFFFFD0000
006FFFFFFFFFFFFFFFFFFF3000
00BFFFFD999999999EFFFF8000
01FFFFF70000000009FFFFE000
06FFFFF30000000005FFFFF400
0CFFFFD00000000001FFFFF900
2FFFFF900000000000BFFFFE00
7FFFFF5000000000007FFFFF50
CFFFFF1000000000003FFFFFA0
ENDCHAR
STARTCHAR abreve
ENCODING 259
SWIDTH 604 0
DWIDTH 22 0
BBX 18 28 1 0
BITMAP
000BFF50000003FFE0
0008FFC200003CFFB0
0003FFFFDCCDFFFF50
00009FFFFFFFFFFA00
00000AFFFFFFFFA000
0000004ADFFDA40000
000000000000000000
000000000000000000
000026ACEFEDB82000
003BFFFFFFFFFFF800
005FFFFFFFFFFFFFA0
000CFFFFFFFFFFFFF4
0005FD841017FFFFFA
0000300000009FFFFE
0000000000006FFFFF
0000000000004FFFFF
0000269BDEEEFFFFFF
003BFFFFFFFFFFFFFF
04EFFFFFFFFFFFFFFF
0DFFFFFC74326FFFFF
4FFFFF9000004FFFFF
6FFFFF1000006FFFFF
7FFFFF100001DFFFFF
5FFFFFA1014CFFFFFF
1FFFFFFFEFFFFFFFFF
09FFFFFFFFFFA9FFFF
01BFFFFFFFF903FFFF
0005BEFED93000DFFF
ENDCHAR
STARTCHAR Aogonek
ENCODING 260
SWIDTH 689 0
DWIDTH 25 0
BBX 25 35 0 -9
BITMAP
000000002FFFFFFD0000000000
000000007FFFFFFF4000000000
00000000CFFFFFFF9000000000
00000002FFFFFFFFE000000000
00000007FFFFBFFFF500000000
0000000DFFFE3FFFFA00000000
0000003FFFFB0DFFFE10000000
0000008FFFF608FFFF50000000
000000DFFFF204FFFFB0000000
000004FFFFC000EFFFF1000000
000009FFFF70009FFFF6000000
00000EFFFF30005FFFFB000000
00004FFFFD00000EFFFF200000
0000AFFFF900000AFFFF700000
0001EFFFF4000005FFFFC00000
0005FFFFFFFFFFFFFFFFF20000
000AFFFFFFFFFFFFFFFFF80000
001FFFFFFFFFFFFFFFFFFD0000
006FFFFFFFFFFFFFFFFFFF3000
00BFFFFD999999999EFFFF8000
01FFFFF70000000009FFFFE000
06FFFFF30000000005FFFFF400
0CFFFFD00000000001FFFFF900
2FFFFF900000000000BFFFFE00
7FFFFF5000000000007FFFFF50
CFFFFF1000000000003FFFFFA0
0000000000000000009FFA0000
00000000000000000AFFC00000
00000000000000007FFF200000
0000000000000000EFFA000000
0000000000000002FFF9000000
0000000000000002FFFE546000
0000000000000000DFFFFFF000
00000000000000004FFFFFF000
000000000000000003BEFDA000
ENDCHAR
STARTCHAR aogonek
ENCODING 261
SWIDTH 604 0
DWIDTH 22 0
BBX 19 29 1 -9
BITMAP
000026ACEFEDB8200000
003BFFFFFFFFFFF80000
005FFFFFFFFFFFFFA000
000CFFFFFFFFFFFFF400
0005FD841017FFFFFA00
0000300000009FFFFE00
0000000000006FFFFF00
0000000000004FFFFF00
0000269BDEEEFFFFFF00
003BFFFFFFFFFFFFFF00
04EFFFFFFFFFFFFFFF00
0DFFFFFC74326FFFFF00
4FFFFF9000004FFFFF00
6FFFFF1000006FFFFF00
7FFFFF100001DFFFFF00
5FFFFFA1014CFFFFFF00
1FFFFFFFEFFFFFFFFF00
09FFFFFFFFFFA9FFFF00
01BFFFFFFFF903FFFF00
0005BEFED93000DFFF00
00000000000004EFE200
0000000000005FFF3000
000000000002EFF70000
000000000008FFF10000
00000000000BFFE00000
00000000000BFFF84530
000000000007FFFFFF50
000000000001CFFFFF50
00000000000018DFEC30
ENDCHAR
STARTCHAR Cacute
ENCODING 262
SWIDTH 637 0
DWIDTH 23 0
BBX 20 34 2 0
BITMAP
000000000000AFFFFF70
000000000006FFFFF700
00000000002EFFFF6000
0000000001DFFFE40000
000000000AFFFD200000
000000006FFFA1000000
00000000000000000000
00000000000000000000
000000038BDEFEC95100
000004CFFFFFFFFFFFA3
00008FFFFFFFFFFFFFF6
0009FFFFFFFFFFFFFFE1
007FFFFFFFB98AEFFF90
02EFFFFFB2000004AF30
09FFFFFA000000000100
1EFFFFE1000000000000
5FFFFF70000000000000
8FFFFF20000000000000
BFFFFE00000000000000
DFFFFC00000000000000
DFFFFB00000000000000
DFFFFB00000000000000
CFFFFC00000000000000
BFFFFD00000000000000
9FFFFF10000000000000
6FFFFF50000000000000
2FFFFFC0000000000000
0CFFFFF7000000000000
05FFFFFF810000003780
00BFFFFFFEB989BEFFB0
002EFFFFFFFFFFFFFFB0
0002DFFFFFFFFFFFFFB0
000018EFFFFFFFFFFF90
00000016ADEFFEC96200
ENDCHAR
STARTCHAR cacute
ENCODING 263
SWIDTH 514 0
DWIDTH 19 0
BBX 17 28 1 0
BITMAP
00000000006FFFFFB0
0000000002EFFFFB10
000000000CFFFF9000
000000009FFFF70000
00000006FFFE500000
0000002FFFD2000000
000000000000000000
000000000000000000
0000017ADEFECA6100
00008EFFFFFFFFFE30
000BFFFFFFFFFFFE00
009FFFFFFFFFFFF900
03FFFFFFA657AFF300
09FFFFF60000015000
0EFFFFB00000000000
2FFFFF600000000000
4FFFFF300000000000
5FFFFF200000000000
5FFFFF100000000000
4FFFFF300000000000
3FFFFF500000000000
0FFFFFB00000000000
0BFFFFF60000005A00
05FFFFFFA6569DFC00
00CFFFFFFFFFFFFC00
002EFFFFFFFFFFFC00
0002BFFFFFFFFFF900
0000048CEFFEC83000
ENDCHAR
STARTCHAR Ccircumflex
ENCODING 264
SWIDTH 637 0
DWIDTH 23 0
BBX 20 34 2 0
BITMAP
000000009FFFFFF50000
00000004FFFFFFFE2000
0000002EFFFEFFFFC100
000001DFFFD25FFFFA00
00001CFFFB1004EFFF90
0000AFFF8000001AFFF6
00000000000000000000
00000000000000000000
000000038BDEFEC95100
000004CFFFFFFFFFFFA3
00008FFFFFFFFFFFFFF6
0009FFFFFFFFFFFFFFE1
007FFFFFFFB98AEFFF90
02EFFFFFB2000004AF30
09FFFFFA000000000100
1EFFFFE1000000000000
5FFFFF70000000000000
8FFFFF20000000000000
BFFFFE00000000000000
DFFFFC00000000000000
DFFFFB00000000000000
DFFFFB00000000000000
CFFFFC00000000000000
BFFFFD00000000000000
9FFFFF10000000000000
6FFFFF50000000000000
2FFFFFC0000000000000
0CFFFFF7000000000000
05FFFFFF810000003780
00BFFFFFFEB989BEFFB0
002EFFFFFFFFFFFFFFB0
0002DFFFFFFFFFFFFFB0
000018EFFFFFFFFFFF90
00000016ADEFFEC96200
ENDCHAR
STARTCHAR ccircumflex
ENCODING 265
SWIDTH 514 0
DWIDTH 19 0
BBX 18 28 1 0
BITMAP
000000CFFFFFE20000
000008FFFFFFFC0000
00005FFFFDFFFF9000
0003FFFFA19FFFF600
003EFFF80007FFFF50
00DFFE5000003DFFF2
000000000000000000
000000000000000000
0000017ADEFECA6100
00008EFFFFFFFFFE30
000BFFFFFFFFFFFE00
009FFFFFFFFFFFF900
03FFFFFFA657AFF300
09FFFFF60000015000
0EFFFFB00000000000
2FFFFF600000000000
4FFFFF300000000000
5FFFFF200000000000
5FFFFF100000000000
4FFFFF300000000000
3FFFFF500000000000
0FFFFFB00000000000
0BFFFFF60000005A00
05FFFFFFA6569DFC00
00CFFFFFFFFFFFFC00
002EFFFFFFFFFFFC00
0002BFFFFFFFFFF900
0000048CEFFEC83000
ENDCHAR
STARTCHAR Cdot
ENCODING 266
SWIDTH 637 0
DWIDTH 23 0
BBX 20 34 2 0
BITMAP
00000000001330000000
0000000006FFFD200000
000000000EFFFF900000
000000001FFFFFA00000
000000000DFFFF700000
0000000003CEE9000000
00000000000000000000
00000000000000000000
000000038BDEFEC95100
000004CFFFFFFFFFFFA3
00008FFFFFFFFFFFFFF6
0009FFFFFFFFFFFFFFE1
007FFFFFFFB98AEFFF90
02EFFFFFB2000004AF30
09FFFFFA000000000100
1EFFFFE1000000000000
5FFFFF70000000000000
8FFFFF20000000000000
BFFFFE00000000000000
DFFFFC00000000000000
DFFFFB00000000000000
DFFFFB00000000000000
CFFFFC00000000000000
BFFFFD00000000000000
9FFFFF10000000000000
6FFFFF50000000000000
2FFFFFC0000000000000
0CFFFFF7000000000000
05FFFFFF810000003780
00BFFFFFFEB989BEFFB0
002EFFFFFFFFFFFFFFB0
0002DFFFFFFFFFFFFFB0
000018EFFFFFFFFFFF90
00000016ADEFFEC96200
ENDCHAR
STARTCHAR cdot
ENCODING 267
SWIDTH 514 0
DWIDTH 19 0
BBX 17 28 1 0
BITMAP
000000001331000000
00000003EFFE400000
0000000BFFFFC00000
0000000DFFFFE00000
0000000AFFFFA00000
00000001AEEB200000
000000000000000000
000000000000000000
0000017ADEFECA6100
00008EFFFFFFFFFE30
000BFFFFFFFFFFFE00
009FFFFFFFFFFFF900
03FFFFFFA657AFF300
09FFFFF60000015000
0EFFFFB00000000000
2FFFFF600000000000
4FFFFF300000000000
5FFFFF200000000000
5FFFFF100000000000
4FFFFF300000000000
3FFFFF500000000000
0FFFFFB00000000000
0BFFFFF60000005A00
05FFFFFFA6569DFC00
00CFFFFFFFFFFFFC00
002EFFFFFFFFFFFC00
0002BFFFFFFFFFF900
0000048CEFFEC83000
ENDCHAR
STARTCHAR Ccaron
ENCODING 268
SWIDTH 637 0
DWIDTH 23 0
BBX 20 34 2 0
BITMAP
00009FFF8000001AFFF7
00000BFFFC2003DFFFA0
000001CFFFD25EFFFC00
0000002EFFFEFFFFD100
00000004FFFFFFFE3000
000000008FFFFFF60000
00000000000000000000
00000000000000000000
000000038BDEFEC95100
000004CFFFFFFFFFFFA3
00008FFFFFFFFFFFFFF6
0009FFFFFFFFFFFFFFE1
007FFFFFFFB98AEFFF90
02EFFFFFB2000004AF30
09FFFFFA000000000100
1EFFFFE1000000000000
5FFFFF70000000000000
8FFFFF20000000000000
BFFFFE00000000000000
DFFFFC00000000000000
DFFFFB00000000000000
DFFFFB00000000000000
CFFFFC00000000000000
BFFFFD00000000000000
9FFFFF10000000000000
6FFFFF50000000000000
2FFFFFC0000000000000
0CFFFFF7000000000000
05FFFFFF810000003780
00BFFFFFFEB989BEFFB0
002EFFFFFFFFFFFFFFB0
0002DFFFFFFFFFFFFFB0
000018EFFFFFFFFFFF90
00000016ADEFFEC96200
ENDCHAR
STARTCHAR ccaron
ENCODING 269
SWIDTH 514 0
DWIDTH 19 0
BBX 18 28 1 0
BITMAP
009FFF8000001AFFF7
001CFFFB1003DFFFA0
0001DFFFD25FFFFB00
00002EFFFEFFFFD100
000004FFFFFFFE2000
0000009FFFFFF60000
000000000000000000
000000000000000000
0000017ADEFECA6100
00008EFFFFFFFFFE30
000BFFFFFFFFFFFE00
009FFFFFFFFFFFF900
03FFFFFFA657AFF300
09FFFFF60000015000
0EFFFFB00000000000
2FFFFF600000000000
4FFFFF300000000000
5FFFFF200000000000
5FFFFF100000000000
4FFFFF300000000000
3FFFFF500000000000
0FFFFFB00000000000
0BFFFFF60000005A00
05FFFFFFA6569DFC00
00CFFFFFFFFFFFFC00
002EFFFFFFFFFFFC00
0002BFFFFFFFFFF900
0000048CEFFEC83000
ENDCHAR
STARTCHAR Dcaron
ENCODING 270
SWIDTH 740 0
DWIDTH 27 0
BBX 22 34 3 0
BITMAP
00CFFE6000002CFFF40000
002DFFFA1005EFFF700000
0002EFFFC17FFFF9000000
00004FFFFDFFFFB0000000
000007FFFFFFFD10000000
000000BFFFFFF300000000
0000000000000000000000
0000000000000000000000
CFFFFFFFFEDB7400000000
CFFFFFFFFFFFFFD6000000
CFFFFFFFFFFFFFFFC20000
CFFFFFFFFFFFFFFFFE3000
CFFFFD7778AEFFFFFFE200
CFFFFA0000006EFFFFFB00
CFFFFA00000002EFFFFF40
CFFFFA000000005FFFFFB0
CFFFFA000000000DFFFFE0
CFFFFA0000000008FFFFF4
CFFFFA0000000005FFFFF6
CFFFFA0000000003FFFFF7
CFFFFA0000000002FFFFF8
CFFFFA0000000002FFFFF8
CFFFFA0000000003FFFFF6
CFFFFA0000000005FFFFF5
CFFFFA0000000009FFFFF2
CFFFFA000000000EFFFFD0
CFFFFA000000007FFFFF90
CFFFFA00000005FFFFFF20
CFFFFA0000018FFFFFF900
CFFFFD8889CFFFFFFFC100
CFFFFFFFFFFFFFFFFD2000
CFFFFFFFFFFFFFFFA10000
CFFFFFFFFFFFFFB4000000
CFFFFFFFEDC96200000000
ENDCHAR
STARTCHAR dcaron
ENCODING 271
SWIDTH 632 0
DWIDTH 23 0
BBX 27 27 1 0
BITMAP
00000000000006FFFFF006FFFF80
00000000000006FFFFF008FFFF20
00000000000006FFFFF00BFFF900
00000000000006FFFFF00EFFE200
00000000000006FFFFF03FFF7000
00000000000006FFFFF04BBA0000
00000000000005FFFFF000000000
000017CEED9305FFFFF000000000
0004EFFFFFFF93FFFFF000000000
003EFFFFFFFFF9FFFFF000000000
00DFFFFFFFFFFFFFFFF000000000
06FFFFFFA66AFFFFFFF000000000
0BFFFFF500004FFFFFF000000000
0FFFFFA0000009FFFFF000000000
3FFFFF50000004FFFFF000000000
4FFFFF20000002FFFFF000000000
5FFFFF10000001FFFFF000000000
5FFFFF10000000FFFFF000000000
4FFFFF20000001FFFFF000000000
3FFFFF40000003FFFFF000000000
0FFFFF90000007FFFFF000000000
0CFFFFF400002EFFFFF000000000
06FFFFFF8558EFFFFFF000000000
01DFFFFFFFFFFFFFFFF000000000
004FFFFFFFFFF6FFFFF000000000
0005EFFFFFFF60AFFFF000000000
000028CEED92005FFFF000000000
ENDCHAR
STARTCHAR Dcroat
ENCODING 272
SWIDTH 740 0
DWIDTH 27 0
BBX 25 26 0 0
BITMAP
000CFFFFFFFFEDB74000000000
000CFFFFFFFFFFFFFD60000000
000CFFFFFFFFFFFFFFFC200000
000CFFFFFFFFFFFFFFFFE30000
000CFFFFD7778AEFFFFFFE2000
000CFFFFA0000006EFFFFFB000
000CFFFFA00000003EFFFFF400
000CFFFFA000000005FFFFFB00
000CFFFFA000000000DFFFFE00
000CFFFFA0000000008FFFFF40
000CFFFFA0000000005FFFFF60
3FFFFFFFFFFFD000003FFFFF70
3FFFFFFFFFFFD000002FFFFF80
3FFFFFFFFFFFD000002FFFFF80
3FFFFFFFFFFFD000003FFFFF60
177DFFFFD7776000005FFFFF50
000CFFFFA0000000009FFFFF20
000CFFFFA000000000EFFFFD00
000CFFFFA000000007FFFFF900
000CFFFFA00000005FFFFFF200
000CFFFFA0000018FFFFFF9000
000CFFFFD8889CFFFFFFFC1000
000CFFFFFFFFFFFFFFFFD20000
000CFFFFFFFFFFFFFFFA100000
000CFFFFFFFFFFFFFB40000000
000CFFFFFFFEDC962000000000
ENDCHAR
STARTCHAR dcroat
ENCODING 273
SWIDTH 648 0
DWIDTH 23 0
BBX 22 27 1 0
BITMAP
00000000000006FFFFF000
00000000000006FFFFF000
00000000000006FFFFF000
00000000EFFFFFFFFFFFFB
00000000EFFFFFFFFFFFFB
00000000EFFFFFFFFFFFFB
0000000078888AFFFFF885
00000000000006FFFFF000
00005ADEED9305FFFFF000
001BFFFFFFFF83FFFFF000
00BFFFFFFFFFF9FFFFF000
04FFFFFFFFFFFFFFFFF000
0AFFFFFE9668EFFFFFF000
0EFFFFF400001DFFFFF000
2FFFFFC0000006FFFFF000
4FFFFF90000003FFFFF000
5FFFFF70000001FFFFF000
5FFFFF70000000FFFFF000
5FFFFF70000001FFFFF000
4FFFFF90000002FFFFF000
1FFFFFD0000006FFFFF000
0DFFFFF600001DFFFFF000
08FFFFFF9547DFFFFFF000
02EFFFFFFFFFFFFFFFF000
006FFFFFFFFFD7FFFFF000
0007FFFFFFFD30EFFFF000
000039DFEC71009FFFF000
ENDCHAR
STARTCHAR Emacron
ENCODING 274
SWIDTH 560 0
DWIDTH 20 0
BBX 15 32 3 0
BITMAP
02BBBBBBBBBBB800
03FFFFFFFFFFFB00
03FFFFFFFFFFFB00
03FFFFFFFFFFFB00
0000000000000000
0000000000000000
CFFFFFFFFFFFFFF0
CFFFFFFFFFFFFFF0
CFFFFFFFFFFFFFF0
CFFFFFFFFFFFFFF0
CFFFFD7777777770
CFFFFA0000000000
CFFFFA0000000000
CFFFFA0000000000
CFFFFA0000000000
CFFFFA0000000000
CFFFFFFFFFFFFF60
CFFFFFFFFFFFFF60
CFFFFFFFFFFFFF60
CFFFFFFFFFFFFF60
CFFFFD7777777730
CFFFFA0000000000
CFFFFA0000000000
CFFFFA0000000000
CFFFFA0000000000
CFFFFA0000000000
CFFFFA0000000000
CFFFFD8888888880
CFFFFFFFFFFFFFF0
CFFFFFFFFFFFFFF0
CFFFFFFFFFFFFFF0
CFFFFFFFFFFFFFF0
ENDCHAR
STARTCHAR emacron
ENCODING 275
SWIDTH 590 0
DWIDTH 21 0
BBX 19 26 1 0
BITMAP
0001BBBBBBBBBBB90000
0002FFFFFFFFFFFC0000
0002FFFFFFFFFFFC0000
0002FFFFFFFFFFFC0000
00000000000000000000
00000000000000000000
0000017BDEEDA6100000
00007EFFFFFFFFE50000
000AFFFFFFFFFFFF7000
008FFFFFFDDFFFFFF400
02FFFFFB2002BFFFFC00
09FFFFD100001EFFFF30
0EFFFF70000008FFFF70
2FFFFF40000006FFFF90
4FFFFFFFFFFFFFFFFFA0
5FFFFFFFFFFFFFFFFFB0
5FFFFFFFFFFFFFFFFFB0
4FFFFF98888888888860
2FFFFF30000000000000
0EFFFF70000000000000
09FFFFE3000000001300
02FFFFFE7200136AE900
007FFFFFFFFFFFFFF900
0009FFFFFFFFFFFFF900
00005DFFFFFFFFFFF700
00000059CEFFECA62000
ENDCHAR
STARTCHAR Ebreve
ENCODING 276
SWIDTH 560 0
DWIDTH 20 0
BBX 15 34 3 0
BITMAP
5FFB0000000CFF50
2FFF5000018FFF20
0CFFFECCDFFFFB00
04FFFFFFFFFFE200
005EFFFFFFFD3000
00018CEFEB610000
0000000000000000
0000000000000000
CFFFFFFFFFFFFFF0
CFFFFFFFFFFFFFF0
CFFFFFFFFFFFFFF0
CFFFFFFFFFFFFFF0
CFFFFD7777777770
CFFFFA0000000000
CFFFFA0000000000
CFFFFA0000000000
CFFFFA0000000000
CFFFFA0000000000
CFFFFFFFFFFFFF60
CFFFFFFFFFFFFF60
CFFFFFFFFFFFFF60
CFFFFFFFFFFFFF60
CFFFFD7777777730
CFFFFA0000000000
CFFFFA0000000000
CFFFFA0000000000
CFFFFA0000000000
CFFFFA0000000000
CFFFFA0000000000
CFFFFD8888888880
CFFFFFFFFFFFFFF0
CFFFFFFFFFFFFFF0
CFFFFFFFFFFFFFF0
CFFFFFFFFFFFFFF0
ENDCHAR
STARTCHAR ebreve
ENCODING 277
SWIDTH 590 0
DWIDTH 21 0
BBX 19 28 1 0
BITMAP
000EFF10000006FFB000
000CFFA100004EFF8000
0006FFFFCCCEFFFF2000
0000CFFFFFFFFFF70000
00001CFFFFFFFF700000
0000005AEFEC92000000
00000000000000000000
00000000000000000000
0000017BDEEDA6100000
00007EFFFFFFFFE50000
000AFFFFFFFFFFFF7000
008FFFFFFDDFFFFFF400
02FFFFFB2002BFFFFC00
09FFFFD100001EFFFF30
0EFFFF70000008FFFF70
2FFFFF40000006FFFF90
4FFFFFFFFFFFFFFFFFA0
5FFFFFFFFFFFFFFFFFB0
5FFFFFFFFFFFFFFFFFB0
4FFFFF98888888888860
2FFFFF30000000000000
0EFFFF70000000000000
09FFFFE3000000001300
02FFFFFE7200136AE900
007FFFFFFFFFFFFFF900
0009FFFFFFFFFFFFF900
00005DFFFFFFFFFFF700
00000059CEFFECA62000
ENDCHAR
STARTCHAR Edotaccent
ENCODING 278
SWIDTH 560 0
DWIDTH 20 0
BBX 15 34 3 0
BITMAP
0000001330000000
000006FFFD200000
00000EFFFF900000
00001FFFFFB00000
00000DFFFF700000
000003CEE9100000
0000000000000000
0000000000000000
CFFFFFFFFFFFFFF0
CFFFFFFFFFFFFFF0
CFFFFFFFFFFFFFF0
CFFFFFFFFFFFFFF0
CFFFFD7777777770
CFFFFA0000000000
CFFFFA0000000000
CFFFFA0000000000
CFFFFA0000000000
CFFFFA0000000000
CFFFFFFFFFFFFF60
CFFFFFFFFFFFFF60
CFFFFFFFFFFFFF60
CFFFFFFFFFFFFF60
CFFFFD7777777730
CFFFFA0000000000
CFFFFA0000000000
CFFFFA0000000000
CFFFFA0000000000
CFFFFA0000000000
CFFFFA0000000000
CFFFFD8888888880
CFFFFFFFFFFFFFF0
CFFFFFFFFFFFFFF0
CFFFFFFFFFFFFFF0
CFFFFFFFFFFFFFF0
ENDCHAR
STARTCHAR edotaccent
ENCODING 279
SWIDTH 590 0
DWIDTH 21 0
BBX 19 28 1 0
BITMAP
00000000033100000000
00000003DFFE50000000
0000000AFFFFD0000000
0000000CFFFFF0000000
00000009FFFFC0000000
00000001AEEB20000000
00000000000000000000
00000000000000000000
0000017BDEEDA6100000
00007EFFFFFFFFE50000
000AFFFFFFFFFFFF7000
008FFFFFFDDFFFFFF400
02FFFFFB2002BFFFFC00
09FFFFD100001EFFFF30
0EFFFF70000008FFFF70
2FFFFF40000006FFFF90
4FFFFFFFFFFFFFFFFFA0
5FFFFFFFFFFFFFFFFFB0
5FFFFFFFFFFFFFFFFFB0
4FFFFF98888888888860
2FFFFF30000000000000
0EFFFF70000000000000
09FFFFE3000000001300
02FFFFFE7200136AE900
007FFFFFFFFFFFFFF900
0009FFFFFFFFFFFFF900
00005DFFFFFFFFFFF700
00000059CEFFECA62000
ENDCHAR
STARTCHAR Eogonek
ENCODING 280
SWIDTH 560 0
DWIDTH 20 0
BBX 15 35 3 -9
BITMAP
CFFFFFFFFFFFFFF0
CFFFFFFFFFFFFFF0
CFFFFFFFFFFFFFF0
CFFFFFFFFFFFFFF0
CFFFFD7777777770
CFFFFA0000000000
CFFFFA0000000000
CFFFFA0000000000
CFFFFA0000000000
CFFFFA0000000000
CFFFFFFFFFFFFF60
CFFFFFFFFFFFFF60
CFFFFFFFFFFFFF60
CFFFFFFFFFFFFF60
CFFFFD7777777730
CFFFFA0000000000
CFFFFA0000000000
CFFFFA0000000000
CFFFFA0000000000
CFFFFA0000000000
CFFFFA0000000000
CFFFFD8888888880
CFFFFFFFFFFFFFF0
CFFFFFFFFFFFFFF0
CFFFFFFFFFFFFFF0
CFFFFFFFFFFFFFF0
0000000005FFD100
000000006FFE2000
00000003FFF60000
0000000AFFE00000
0000000DFFD00000
0000000CFFF74620
00000008FFFFFF40
00000001DFFFFF40
0000000019EFEB20
ENDCHAR
STARTCHAR eogonek
ENCODING 281
SWIDTH 590 0
DWIDTH 21 0
BBX 19 29 1 -9
BITMAP
0000017BDEEDA6100000
00007EFFFFFFFFE50000
000AFFFFFFFFFFFF7000
008FFFFFFDDFFFFFF400
02FFFFFB2002BFFFFC00
09FFFFD100001EFFFF30
0EFFFF70000008FFFF70
2FFFFF40000006FFFF90
4FFFFFFFFFFFFFFFFFA0
5FFFFFFFFFFFFFFFFFB0
5FFFFFFFFFFFFFFFFFB0
4FFFFF98888888888860
2FFFFF30000000000000
0EFFFF70000000000000
09FFFFE3000000001300
02FFFFFE7200136AE900
007FFFFFFFFFFFFFF900
0009FFFFFFFFFFFFF900
00005DFFFFFFFFFFF700
00000059CEFFECA62000
000000000004EFE30000
00000000004FFF400000
0000000001EFF8000000
0000000007FFF2000000
000000000AFFF1000000
000000000AFFF9453000
0000000006FFFFFF6000
0000000000CFFFFF6000
000000000018DFEC4000
ENDCHAR
STARTCHAR Ecaron
ENCODING 282
SWIDTH 560 0
DWIDTH 20 0
BBX 16 34 3 0
BITMAP
CFFE6000002CFFF4
2DFFFA0005EFFF70
03EFFFB17FFFF900
004FFFFDFFFFA000
0007FFFFFFFD1000
0000BFFFFFF30000
0000000000000000
0000000000000000
CFFFFFFFFFFFFFF0
CFFFFFFFFFFFFFF0
CFFFFFFFFFFFFFF0
CFFFFFFFFFFFFFF0
CFFFFD7777777770
CFFFFA0000000000
CFFFFA0000000000
CFFFFA0000000000
CFFFFA0000000000
CFFFFA0000000000
CFFFFFFFFFFFFF60
CFFFFFFFFFFFFF60
CFFFFFFFFFFFFF60
CFFFFFFFFFFFFF60
CFFFFD7777777730
CFFFFA0000000000
CFFFFA0000000000
CFFFFA0000000000
CFFFFA0000000000
CFFFFA0000000000
CFFFFA0000000000
CFFFFD8888888880
CFFFFFFFFFFFFFF0
CFFFFFFFFFFFFFF0
CFFFFFFFFFFFFFF0
CFFFFFFFFFFFFFF0
ENDCHAR
STARTCHAR ecaron
ENCODING 283
SWIDTH 590 0
DWIDTH 21 0
BBX 19 28 1 0
BITMAP
009FFF8000001AFFF700
000BFFFC2003DFFFA000
0001CFFFD25EFFFC0000
00002EFFFEFFFFD10000
000004FFFFFFFE300000
0000008FFFFFF6000000
00000000000000000000
00000000000000000000
0000017BDEEDA6100000
00007EFFFFFFFFE50000
000AFFFFFFFFFFFF7000
008FFFFFFDDFFFFFF400
02FFFFFB2002BFFFFC00
09FFFFD100001EFFFF30
0EFFFF70000008FFFF70
2FFFFF40000006FFFF90
4FFFFFFFFFFFFFFFFFA0
5FFFFFFFFFFFFFFFFFB0
5FFFFFFFFFFFFFFFFFB0
4FFFFF98888888888860
2FFFFF30000000000000
0EFFFF70000000000000
09FFFFE3000000001300
02FFFFFE7200136AE900
007FFFFFFFFFFFFFF900
0009FFFFFFFFFFFFF900
00005DFFFFFFFFFFF700
00000059CEFFECA62000
ENDCHAR
STARTCHAR Gcircumflex
ENCODING 284
SWIDTH 724 0
DWIDTH 26 0
BBX 22 34 2 0
BITMAP
000000005FFFFFF9000000
00000002EFFFFFFF500000
0000000CFFFFEFFFE20000
000000AFFFE43EFFFD1000
000009FFFD3002CFFFC100
00006FFFB1000008FFFA00
0000000000000000000000
0000000000000000000000
0000000148BDEFEDB95100
0000017EFFFFFFFFFFFFA0
00004EFFFFFFFFFFFFFFC0
0006FFFFFFFFFFFFFFFF50
004FFFFFFFFC989BEFFE00
01EFFFFFF8100000039700
08FFFFFE40000000000000
1EFFFFF500000000000000
4FFFFFB000000000000000
8FFFFF4000000000000000
BFFFFF0000000000000000
CFFFFC00000FFFFFFFFFF3
DFFFFB00000FFFFFFFFFF3
DFFFFB00000FFFFFFFFFF3
CFFFFC00000FFFFFFFFFF3
BFFFFE0000088889FFFFF3
9FFFFF2000000002FFFFF3
6FFFFF6000000002FFFFF3
2FFFFFD100000002FFFFF3
0BFFFFF900000002FFFFF3
04FFFFFFA2000002FFFFF3
00AFFFFFFFC989ADFFFFF3
001DFFFFFFFFFFFFFFFFF3
0001CFFFFFFFFFFFFFFFF3
000007EFFFFFFFFFFFFFB2
000000159CDEFEDCA74100
ENDCHAR
STARTCHAR gcircumflex
ENCODING 285
SWIDTH 564 0
DWIDTH 20 0
BBX 20 37 0 -9
BITMAP
0000003FFFFFFB000000
000001DFFFFFFF700000
00000AFFFFEFFFF40000
00008FFFF62DFFFE2000
0007FFFE4001BFFFD100
004FFFC2000007EFFC00
00000000000000000000
00000000000000000000
0000059CEFFFFFFFFFFE
0003CFFFFFFFFFFFFFFE
002EFFFFFFFFFFFFFFFC
00BFFFFE746CFFFFF510
02FFFFF30001EFFFF400
05FFFFD000009FFFF800
06FFFFB000007FFFFA00
04FFFFD000009FFFF900
01FFFFF30001EFFFF600
00AFFFFE756CFFFFE100
001DFFFFFFFFFFFF5000
00019FFFFFFFFFD40000
0002CFFEEFEDA5000000
001DFFF2000000000000
007FFFD0000000000000
008FFFFA655554310000
004FFFFFFFFFFFFFB300
0009FFFFFFFFFFFFFF50
0016DFFFFFFFFFFFFFE1
03DFFFFFFFFFFFFFFFF6
2EFFFE62000015DFFFF9
9FFFF3000000003FFFFA
CFFFC0000000002FFFF9
DFFFD0000000007FFFF5
BFFFF800000018FFFFE1
6FFFFFEA889CFFFFFF50
0BFFFFFFFFFFFFFFF600
009FFFFFFFFFFFFB3000
00027BDEFEECA7200000
ENDCHAR
STARTCHAR Gbreve
ENCODING 286
SWIDTH 724 0
DWIDTH 26 0
BBX 22 34 2 0
BITMAP
000009FF70000001FFF100
000006FFD300002BFFD000
000002FFFFDCCDFFFF7000
0000007FFFFFFFFFFC0000
00000008FFFFFFFFB10000
0000000039DEFDA5000000
0000000000000000000000
0000000000000000000000
0000000148BDEFEDB95100
0000017EFFFFFFFFFFFFA0
00004EFFFFFFFFFFFFFFC0
0006FFFFFFFFFFFFFFFF50
004FFFFFFFFC989BEFFE00
01EFFFFFF8100000039700
08FFFFFE40000000000000
1EFFFFF500000000000000
4FFFFFB000000000000000
8FFFFF4000000000000000
BFFFFF0000000000000000
CFFFFC00000FFFFFFFFFF3
DFFFFB00000FFFFFFFFFF3
DFFFFB00000FFFFFFFFFF3
CFFFFC00000FFFFFFFFFF3
BFFFFE0000088889FFFFF3
9FFFFF2000000002FFFFF3
6FFFFF6000000002FFFFF3
2FFFFFD100000002FFFFF3
0BFFFFF900000002FFFFF3
04FFFFFFA2000002FFFFF3
00AFFFFFFFC989ADFFFFF3
001DFFFFFFFFFFFFFFFFF3
0001CFFFFFFFFFFFFFFFF3
000007EFFFFFFFFFFFFFB2
000000159CDEFEDCA74100
ENDCHAR
STARTCHAR gbreve
ENCODING 287
SWIDTH 564 0
DWIDTH 20 0
BBX 20 37 0 -9
BITMAP
0007FF80000000EFF300
0005FFE400002AFFE100
0000EFFFDCCDFFFF9000
00005FFFFFFFFFFD1000
000006FFFFFFFFC20000
00000028CEFEB5000000
00000000000000000000
00000000000000000000
0000059CEFFFFFFFFFFE
0003CFFFFFFFFFFFFFFE
002EFFFFFFFFFFFFFFFC
00BFFFFE746CFFFFF510
02FFFFF30001EFFFF400
05FFFFD000009FFFF800
06FFFFB000007FFFFA00
04FFFFD000009FFFF900
01FFFFF30001EFFFF600
00AFFFFE756CFFFFE100
001DFFFFFFFFFFFF5000
00019FFFFFFFFFD40000
0002CFFEEFEDA5000000
001DFFF2000000000000
007FFFD0000000000000
008FFFFA655554310000
004FFFFFFFFFFFFFB300
0009FFFFFFFFFFFFFF50
0016DFFFFFFFFFFFFFE1
03DFFFFFFFFFFFFFFFF6
2EFFFE62000015DFFFF9
9FFFF3000000003FFFFA
CFFFC0000000002FFFF9
DFFFD0000000007FFFF5
BFFFF800000018FFFFE1
6FFFFFEA889CFFFFFF50
0BFFFFFFFFFFFFFFF600
009FFFFFFFFFFFFB3000
00027BDEFEECA7200000
ENDCHAR
STARTCHAR Gdot
ENCODING 288
SWIDTH 724 0
DWIDTH 26 0
BBX 22 34 2 0
BITMAP
0000000000023200000000
0000000000BFFF90000000
0000000005FFFFF3000000
0000000007FFFFF5000000
0000000004FFFFF2000000
00000000007DFD50000000
0000000000000000000000
0000000000000000000000
0000000148BDEFEDB95100
0000017EFFFFFFFFFFFFA0
00004EFFFFFFFFFFFFFFC0
0006FFFFFFFFFFFFFFFF50
004FFFFFFFFC989BEFFE00
01EFFFFFF8100000039700
08FFFFFE40000000000000
1EFFFFF500000000000000
4FFFFFB000000000000000
8FFFFF4000000000000000
BFFFFF0000000000000000
CFFFFC00000FFFFFFFFFF3
DFFFFB00000FFFFFFFFFF3
DFFFFB00000FFFFFFFFFF3
CFFFFC00000FFFFFFFFFF3
BFFFFE0000088889FFFFF3
9FFFFF2000000002FFFFF3
6FFFFF6000000002FFFFF3
2FFFFFD100000002FFFFF3
0BFFFFF900000002FFFFF3
04FFFFFFA2000002FFFFF3
00AFFFFFFFC989ADFFFFF3
001DFFFFFFFFFFFFFFFFF3
0001CFFFFFFFFFFFFFFFF3
000007EFFFFFFFFFFFFFB2
000000159CDEFEDCA74100
ENDCHAR
STARTCHAR gdot
ENCODING 289
SWIDTH 564 0
DWIDTH 20 0
BBX 20 37 0 -9
BITMAP
00000000033100000000
00000002DFFE50000000
0000000AFFFFE0000000
0000000BFFFFF0000000
00000008FFFFC0000000
00000001AEEB20000000
00000000000000000000
00000000000000000000
0000059CEFFFFFFFFFFE
0003CFFFFFFFFFFFFFFE
002EFFFFFFFFFFFFFFFC
00BFFFFE746CFFFFF510
02FFFFF30001EFFFF400
05FFFFD000009FFFF800
06FFFFB000007FFFFA00
04FFFFD000009FFFF900
01FFFFF30001EFFFF600
00AFFFFE756CFFFFE100
001DFFFFFFFFFFFF5000
00019FFFFFFFFFD40000
0002CFFEEFEDA5000000
001DFFF2000000000000
007FFFD0000000000000
008FFFFA655554310000
004FFFFFFFFFFFFFB300
0009FFFFFFFFFFFFFF50
0016DFFFFFFFFFFFFFE1
03DFFFFFFFFFFFFFFFF6
2EFFFE62000015DFFFF9
9FFFF3000000003FFFFA
CFFFC0000000002FFFF9
DFFFD0000000007FFFF5
BFFFF800000018FFFFE1
6FFFFFEA889CFFFFFF50
0BFFFFFFFFFFFFFFF600
009FFFFFFFFFFFFB3000
00027BDEFEECA7200000
ENDCHAR
STARTCHAR Gcommaaccent
ENCODING 290
SWIDTH 724 0
DWIDTH 26 0
BBX 22 34 2 -8
BITMAP
0000000148BDEFEDB95100
0000017EFFFFFFFFFFFFA0
00004EFFFFFFFFFFFFFFC0
0006FFFFFFFFFFFFFFFF50
004FFFFFFFFC989BEFFE00
01EFFFFFF8100000039700
08FFFFFE40000000000000
1EFFFFF500000000000000
4FFFFFB000000000000000
8FFFFF4000000000000000
BFFFFF0000000000000000
CFFFFC00000FFFFFFFFFF3
DFFFFB00000FFFFFFFFFF3
DFFFFB00000FFFFFFFFFF3
CFFFFC00000FFFFFFFFFF3
BFFFFE0000088889FFFFF3
9FFFFF2000000002FFFFF3
6FFFFF6000000002FFFFF3
2FFFFFD100000002FFFFF3
0BFFFFF900000002FFFFF3
04FFFFFFA2000002FFFFF3
00AFFFFFFFC989ADFFFFF3
001DFFFFFFFFFFFFFFFFF3
0001CFFFFFFFFFFFFFFFF3
000007EFFFFFFFFFFFFFB2
000000159CDEFEDCA74100
0000000000000000000000
0000000000000000000000
0000000000EFFFE1000000
0000000001FFFF90000000
0000000004FFFF20000000
0000000007FFF900000000
000000000AFFE100000000
000000000EFF7000000000
ENDCHAR
STARTCHAR gcommaaccent
ENCODING 291
SWIDTH 564 0
DWIDTH 20 0
BBX 20 37 0 -9
BITMAP
0000000000DFF7000000
0000000007FFF4000000
000000001EFFF1000000
000000008FFFC0000000
00000001EFFFA0000000
00000007FFFF70000000
00000000000000000000
00000000000000000000
0000059CEFFFFFFFFFFE
0003CFFFFFFFFFFFFFFE
002EFFFFFFFFFFFFFFFC
00BFFFFE746CFFFFF510
02FFFFF30001EFFFF400
05FFFFD000009FFFF800
06FFFFB000007FFFFA00
04FFFFD000009FFFF900
01FFFFF30001EFFFF600
00AFFFFE756CFFFFE100
001DFFFFFFFFFFFF5000
00019FFFFFFFFFD40000
0002CFFEEFEDA5000000
001DFFF2000000000000
007FFFD0000000000000
008FFFFA655554310000
004FFFFFFFFFFFFFB300
0009FFFFFFFFFFFFFF50
0016DFFFFFFFFFFFFFE1
03DFFFFFFFFFFFFFFFF6
2EFFFE62000015DFFFF9
9FFFF3000000003FFFFA
CFFFC0000000002FFFF9
DFFFD0000000007FFFF5
BFFFF800000018FFFFE1
6FFFFFEA889CFFFFFF50
0BFFFFFFFFFFFFFFF600
009FFFFFFFFFFFFB3000
00027BDEFEECA7200000
ENDCHAR
STARTCHAR Hcircumflex
ENCODING 292
SWIDTH 765 0
DWIDTH 28 0
BBX 22 34 3 0
BITMAP
0000000BFFFFFF30000000
0000007FFFFFFFD1000000
000004FFFFDFFFFA000000
00002EFFFC18FFFF800000
0002DFFFA1006EFFF60000
000CFFE6000002CFFF4000
0000000000000000000000
0000000000000000000000
CFFFFA0000000002FFFFF4
CFFFFA0000000002FFFFF4
CFFFFA0000000002FFFFF4
CFFFFA0000000002FFFFF4
CFFFFA0000000002FFFFF4
CFFFFA0000000002FFFFF4
CFFFFA0000000002FFFFF4
CFFFFA0000000002FFFFF4
CFFFFA0000000002FFFFF4
CFFFFA0000000002FFFFF4
CFFFFFFFFFFFFFFFFFFFF4
CFFFFFFFFFFFFFFFFFFFF4
CFFFFFFFFFFFFFFFFFFFF4
CFFFFFFFFFFFFFFFFFFFF4
CFFFFD8888888889FFFFF4
CFFFFA0000000002FFFFF4
CFFFFA0000000002FFFFF4
CFFFFA0000000002FFFFF4
CFFFFA0000000002FFFFF4
CFFFFA0000000002FFFFF4
CFFFFA0000000002FFFFF4
CFFFFA0000000002FFFFF4
CFFFFA0000000002FFFFF4
CFFFFA0000000002FFFFF4
CFFFFA0000000002FFFFF4
CFFFFA0000000002FFFFF4
ENDCHAR
STARTCHAR hcircumflex
ENCODING 293
SWIDTH 657 0
DWIDTH 24 0
BBX 19 35 2 0
BITMAP
0000009FFFFFF5000000
000005FFFFFFFE200000
00002EFFFEFFFFC00000
0001DFFFD26FFFFA0000
001CFFFB1004EFFF8000
00AFFF7000002BFFF500
00000000000000000000
00000000000000000000
3FFFFF30000000000000
3FFFFF30000000000000
3FFFFF30000000000000
3FFFFF30000000000000
3FFFFF30000000000000
3FFFFF30000000000000
3FFFFF20000000000000
3FFFFF1039DEEDA40000
3FFFFF18FFFFFFFFA100
3FFFFE7FFFFFFFFFFA00
3FFFFFFFFFFFFFFFFF30
3FFFFFFFB657EFFFFF90
3FFFFFF700003FFFFFC0
3FFFFFD000000AFFFFE0
3FFFFF80000007FFFFE0
3FFFFF50000006FFFFE0
3FFFFF30000006FFFFE0
3FFFFF30000006FFFFE0
3FFFFF30000006FFFFE0
3FFFFF30000006FFFFE0
3FFFFF30000006FFFFE0
3FFFFF30000006FFFFE0
3FFFFF30000006FFFFE0
3FFFFF30000006FFFFE0
3FFFFF30000006FFFFE0
3FFFFF30000006FFFFE0
3FFFFF30000006FFFFE0
ENDCHAR
STARTCHAR Hbar
ENCODING 294
SWIDTH 765 0
DWIDTH 28 0
BBX 28 26 0 0
BITMAP
000CFFFFA0000000002FFFFF4000
000CFFFFA0000000002FFFFF4000
000CFFFFA0000000002FFFFF4000
FFFFFFFFFFFFFFFFFFFFFFFFFFF8
FFFFFFFFFFFFFFFFFFFFFFFFFFF8
FFFFFFFFFFFFFFFFFFFFFFFFFFF8
888DFFFFD8888888889FFFFFA884
000CFFFFA0000000002FFFFF4000
000CFFFFA0000000002FFFFF4000
000CFFFFA0000000002FFFFF4000
000CFFFFFFFFFFFFFFFFFFFF4000
000CFFFFFFFFFFFFFFFFFFFF4000
000CFFFFFFFFFFFFFFFFFFFF4000
000CFFFFFFFFFFFFFFFFFFFF4000
000CFFFFD8888888889FFFFF4000
000CFFFFA0000000002FFFFF4000
000CFFFFA0000000002FFFFF4000
000CFFFFA0000000002FFFFF4000
000CFFFFA0000000002FFFFF4000
000CFFFFA0000000002FFFFF4000
000CFFFFA0000000002FFFFF4000
000CFFFFA0000000002FFFFF4000
000CFFFFA0000000002FFFFF4000
000CFFFFA0000000002FFFFF4000
000CFFFFA0000000002FFFFF4000
000CFFFFA0000000002FFFFF4000
ENDCHAR
STARTCHAR hbar
ENCODING 295
SWIDTH 657 0
DWIDTH 24 0
BBX 21 27 0 0
BITMAP
003FFFFF30000000000000
003FFFFF30000000000000
003FFFFF30000000000000
EFFFFFFFFFFFFB00000000
EFFFFFFFFFFFFB00000000
EFFFFFFFFFFFFB00000000
789FFFFF98888500000000
003FFFFF20000000000000
003FFFFF2039DEEDA40000
003FFFFF18FFFFFFFFA100
003FFFFE7FFFFFFFFFFA00
003FFFFFFFFFFFFFFFFF30
003FFFFFFFA647EFFFFF90
003FFFFFF700002FFFFFC0
003FFFFFD000000AFFFFE0
003FFFFF80000007FFFFE0
003FFFFF50000006FFFFE0
003FFFFF30000006FFFFE0
003FFFFF30000006FFFFE0
003FFFFF30000006FFFFE0
003FFFFF30000006FFFFE0
003FFFFF30000006FFFFE0
003FFFFF30000006FFFFE0
003FFFFF30000006FFFFE0
003FFFFF30000006FFFFE0
003FFFFF30000006FFFFE0
003FFFFF30000006FFFFE0
ENDCHAR
STARTCHAR Itilde
ENCODING 296
SWIDTH 331 0
DWIDTH 12 0
BBX 16 33 -2 0
BITMAP
0019DFC830009FF3
01DFFFFFFDABFFE0
0AFFFFFFFFFFFF90
1FFFBADFFFFFFD10
4FF900039DFD9100
0000000000000000
0000000000000000
00000CFFFFA00000
00000CFFFFA00000
00000CFFFFA00000
00000CFFFFA00000
00000CFFFFA00000
00000CFFFFA00000
00000CFFFFA00000
00000CFFFFA00000
00000CFFFFA00000
00000CFFFFA00000
00000CFFFFA00000
00000CFFFFA00000
00000CFFFFA00000
00000CFFFFA00000
00000CFFFFA00000
00000CFFFFA00000
00000CFFFFA00000
00000CFFFFA00000
00000CFFFFA00000
00000CFFFFA00000
00000CFFFFA00000
00000CFFFFA00000
00000CFFFFA00000
00000CFFFFA00000
00000CFFFFA00000
00000CFFFFA00000
ENDCHAR
STARTCHAR itilde
ENCODING 297
SWIDTH 305 0
DWIDTH 11 0
BBX 15 27 -2 0
BITMAP
005CEEB61002FFB0
07FFFFFFEB9EFF80
2FFFFFFFFFFFFF20
8FFE9BEFFFFFF700
BFF20016BEEC5000
0000000000000000
0000000000000000
00003FFFFF300000
00003FFFFF300000
00003FFFFF300000
00003FFFFF300000
00003FFFFF300000
00003FFFFF300000
00003FFFFF300000
00003FFFFF300000
00003FFFFF300000
00003FFFFF300000
00003FFFFF300000
00003FFFFF300000
00003FFFFF300000
00003FFFFF300000
00003FFFFF300000
00003FFFFF300000
00003FFFFF300000
00003FFFFF300000
00003FFFFF300000
00003FFFFF300000
ENDCHAR
STARTCHAR Imacron
ENCODING 298
SWIDTH 331 0
DWIDTH 12 0
BBX 12 32 0 0
BITMAP
ABBBBBBBBBBA
EFFFFFFFFFFF
EFFFFFFFFFFF
EFFFFFFFFFFF
000000000000
000000000000
000CFFFFA000
000CFFFFA000
000CFFFFA000
000CFFFFA000
000CFFFFA000
000CFFFFA000
000CFFFFA000
000CFFFFA000
000CFFFFA000
000CFFFFA000
000CFFFFA000
000CFFFFA000
000CFFFFA000
000CFFFFA000
000CFFFFA000
000CFFFFA000
000CFFFFA000
000CFFFFA000
000CFFFFA000
000CFFFFA000
000CFFFFA000
000CFFFFA000
000CFFFFA000
000CFFFFA000
000CFFFFA000
000CFFFFA000
ENDCHAR
STARTCHAR imacron
ENCODING 299
SWIDTH 305 0
DWIDTH 11 0
BBX 13 26 -1 0
BITMAP
4BBBBBBBBBBB60
6FFFFFFFFFFF80
6FFFFFFFFFFF80
6FFFFFFFFFFF80
00000000000000
00000000000000
0003FFFFF30000
0003FFFFF30000
0003FFFFF30000
0003FFFFF30000
0003FFFFF30000
0003FFFFF30000
0003FFFFF30000
0003FFFFF30000
0003FFFFF30000
0003FFFFF30000
0003FFFFF30000
0003FFFFF30000
0003FFFFF30000
0003FFFFF30000
0003FFFFF30000
0003FFFFF30000
0003FFFFF30000
0003FFFFF30000
0003FFFFF30000
0003FFFFF30000
ENDCHAR
STARTCHAR Ibreve
ENCODING 300
SWIDTH 331 0
DWIDTH 12 0
BBX 14 34 -1 0
BITMAP
DFF30000005FFC
AFFB100004DFF9
5FFFFDCCEFFFF3
0BFFFFFFFFFF80
01BFFFFFFFF800
0005ADFED93000
00000000000000
00000000000000
0000CFFFFA0000
0000CFFFFA0000
0000CFFFFA0000
0000CFFFFA0000
0000CFFFFA0000
0000CFFFFA0000
0000CFFFFA0000
0000CFFFFA0000
0000CFFFFA0000
0000CFFFFA0000
0000CFFFFA0000
0000CFFFFA0000
0000CFFFFA0000
0000CFFFFA0000
0000CFFFFA0000
0000CFFFFA0000
0000CFFFFA0000
0000CFFFFA0000
0000CFFFFA0000
0000CFFFFA0000
0000CFFFFA0000
0000CFFFFA0000
0000CFFFFA0000
0000CFFFFA0000
0000CFFFFA0000
0000CFFFFA0000
ENDCHAR
STARTCHAR ibreve
ENCODING 301
SWIDTH 305 0
DWIDTH 11 0
BBX 15 28 -2 0
BITMAP
6FFA0000000DFF50
3FFF5000019FFF20
0DFFFECCDFFFFB00
04FFFFFFFFFFE200
005EFFFFFFFD3000
00028CEFEB610000
0000000000000000
0000000000000000
00003FFFFF300000
00003FFFFF300000
00003FFFFF300000
00003FFFFF300000
00003FFFFF300000
00003FFFFF300000
00003FFFFF300000
00003FFFFF300000
00003FFFFF300000
00003FFFFF300000
00003FFFFF300000
00003FFFFF300000
00003FFFFF300000
00003FFFFF300000
00003FFFFF300000
00003FFFFF300000
00003FFFFF300000
00003FFFFF300000
00003FFFFF300000
00003FFFFF300000
ENDCHAR
STARTCHAR Iogonek
ENCODING 302
SWIDTH 331 0
DWIDTH 12 0
BBX 8 35 2 -9
BITMAP
0CFFFFA0
0CFFFFA0
0CFFFFA0
0CFFFFA0
0CFFFFA0
0CFFFFA0
0CFFFFA0
0CFFFFA0
0CFFFFA0
0CFFFFA0
0CFFFFA0
0CFFFFA0
0CFFFFA0
0CFFFFA0
0CFFFFA0
0CFFFFA0
0CFFFFA0
0CFFFFA0
0CFFFFA0
0CFFFFA0
0CFFFFA0
0CFFFFA0
0CFFFFA0
0CFFFFA0
0CFFFFA0
0CFFFFA0
008FFB00
09FFD100
5FFF3000
CFFC0000
FFFB0000
FFFF6461
BFFFFFF1
3EFFFFF1
02AEFEB1
ENDCHAR
STARTCHAR iogonek
ENCODING 303
SWIDTH 305 0
DWIDTH 11 0
BBX 9 36 0 -9
BITMAP
0006DFD600
003FFFFF30
006FFFFF60
004FFFFF40
000AFFF900
0000232000
0000000000
003FFFFF30
003FFFFF30
003FFFFF30
003FFFFF30
003FFFFF30
003FFFFF30
003FFFFF30
003FFFFF30
003FFFFF30
003FFFFF30
003FFFFF30
003FFFFF30
003FFFFF30
003FFFFF30
003FFFFF30
003FFFFF30
003FFFFF30
003FFFFF30
003FFFFF30
003FFFFF30
000AFF9000
00BFFB0000
08FFE10000
1EFF900000
3FFF800000
3FFFD54600
0EFFFFFD00
05FFFFFD00
004BEFD900
ENDCHAR
STARTCHAR Idotaccent
ENCODING 304
SWIDTH 331 0
DWIDTH 12 0
BBX 6 34 3 0
BITMAP
013300
4EFFE3
DFFFFB
EFFFFC
BFFFF9
2BEEA1
000000
000000
CFFFFA
CFFFFA
CFFFFA
CFFFFA
CFFFFA
CFFFFA
CFFFFA
CFFFFA
CFFFFA
CFFFFA
CFFFFA
CFFFFA
CFFFFA
CFFFFA
CFFFFA
CFFFFA
CFFFFA
CFFFFA
CFFFFA
CFFFFA
CFFFFA
CFFFFA
CFFFFA
CFFFFA
CFFFFA
CFFFFA
ENDCHAR
STARTCHAR dotlessi
ENCODING 305
SWIDTH 305 0
DWIDTH 11 0
BBX 7 20 2 0
BITMAP
3FFFFF30
3FFFFF30
3FFFFF30
3FFFFF30
3FFFFF30
3FFFFF30
3FFFFF30
3FFFFF30
3FFFFF30
3FFFFF30
3FFFFF30
3FFFFF30
3FFFFF30
3FFFFF30
3FFFFF30
3FFFFF30
3FFFFF30
3FFFFF30
3FFFFF30
3FFFFF30
ENDCHAR
STARTCHAR IJ
ENCODING 306
SWIDTH 720 0
DWIDTH 26 0
BBX 20 33 3 -7
BITMAP
CFFFFA00000000BFFFFB
CFFFFA00000000BFFFFB
CFFFFA00000000BFFFFB
CFFFFA00000000BFFFFB
CFFFFA00000000BFFFFB
CFFFFA00000000BFFFFB
CFFFFA00000000BFFFFB
CFFFFA00000000BFFFFB
CFFFFA00000000BFFFFB
CFFFFA00000000BFFFFB
CFFFFA00000000BFFFFB
CFFFFA00000000BFFFFB
CFFFFA00000000BFFFFB
CFFFFA00000000BFFFFB
CFFFFA00000000BFFFFB
CFFFFA00000000BFFFFB
CFFFFA00000000BFFFFB
CFFFFA00000000BFFFFB
CFFFFA00000000BFFFFB
CFFFFA00000000BFFFFB
CFFFFA00000000BFFFFB
CFFFFA00000000BFFFFB
CFFFFA00000000BFFFFB
CFFFFA00000000BFFFFB
CFFFFA00000000CFFFFA
CFFFFA00000000DFFFF9
00000000000002FFFFF7
0000000000000BFFFFF4
000000008B99DFFFFFD0
00000000AFFFFFFFFF60
00000000AFFFFFFFFB00
00000000AFFFFFFFA000
000000007DEFEC930000
ENDCHAR
STARTCHAR ij
ENCODING 307
SWIDTH 590 0
DWIDTH 21 0
BBX 17 36 2 -9
BITMAP
06DFD6000003CEE910
3FFFFF30000DFFFF70
6FFFFF60001FFFFFA0
4FFFFF40000EFFFF80
0AFFF9000006FFFC10
002320000000132000
000000000000000000
3FFFFF30000DFFFF70
3FFFFF30000DFFFF70
3FFFFF30000DFFFF70
3FFFFF30000DFFFF70
3FFFFF30000DFFFF70
3FFFFF30000DFFFF70
3FFFFF30000DFFFF70
3FFFFF30000DFFFF70
3FFFFF30000DFFFF70
3FFFFF30000DFFFF70
3FFFFF30000DFFFF70
3FFFFF30000DFFFF70
3FFFFF30000DFFFF70
3FFFFF30000DFFFF70
3FFFFF30000DFFFF70
3FFFFF30000DFFFF70
3FFFFF30000DFFFF70
3FFFFF30000DFFFF70
3FFFFF30000DFFFF70
3FFFFF30000DFFFF70
00000000000DFFFF70
00000000000EFFFF70
00000000000FFFFF70
00000000005FFFFF60
0000009658EFFFFF30
000000FFFFFFFFFD00
000000FFFFFFFFF400
000000FFFFFFFE6000
000000ADEFEC820000
ENDCHAR
STARTCHAR Jcircumflex
ENCODING 308
SWIDTH 331 0
DWIDTH 12 0
BBX 17 41 -3 -7
BITMAP
000007FFFFFF700000
00003EFFFFFFF30000
0001DFFFEEFFFD1000
000BFFFE34EFFFC100
00AFFFD2003DFFFA00
08FFF91000019FFF80
000000000000000000
000000000000000000
000000CFFFFA000000
000000CFFFFA000000
000000CFFFFA000000
000000CFFFFA000000
000000CFFFFA000000
000000CFFFFA000000
000000CFFFFA000000
000000CFFFFA000000
000000CFFFFA000000
000000CFFFFA000000
000000CFFFFA000000
000000CFFFFA000000
000000CFFFFA000000
000000CFFFFA000000
000000CFFFFA000000
000000CFFFFA000000
000000CFFFFA000000
000000CFFFFA000000
000000CFFFFA000000
000000CFFFFA000000
000000CFFFFA000000
000000CFFFFA000000
000000CFFFFA000000
000000CFFFFA000000
000000CFFFFA000000
000000EFFFF9000000
000002FFFFF7000000
00000BFFFFF3000000
9B9ADFFFFFD0000000
AFFFFFFFFF60000000
AFFFFFFFFB00000000
AFFFFFFF9000000000
7DEFEC930000000000
ENDCHAR
STARTCHAR jcircumflex
ENCODING 309
SWIDTH 305 0
DWIDTH 11 0
BBX 16 37 -3 -9
BITMAP
00002EFFFFFD1000
0000BFFFFFFF9000
0008FFFFDFFFF600
006FFFF81BFFFF40
05FFFF60009FFFE3
2FFFD3000005EFFE
0000000000000000
0000000000000000
000003FFFFF30000
000003FFFFF30000
000003FFFFF30000
000003FFFFF30000
000003FFFFF30000
000003FFFFF30000
000003FFFFF30000
000003FFFFF30000
000003FFFFF30000
000003FFFFF30000
000003FFFFF30000
000003FFFFF30000
000003FFFFF30000
000003FFFFF30000
000003FFFFF30000
000003FFFFF30000
000003FFFFF30000
000003FFFFF30000
000003FFFFF30000
000003FFFFF30000
000003FFFFF30000
000003FFFFF30000
000004FFFFF20000
000009FFFFF10000
3866AFFFFFD00000
4FFFFFFFFF800000
4FFFFFFFFD100000
4FFFFFFFD3000000
3BDEFEB610000000
ENDCHAR
STARTCHAR Kcommaaccent
ENCODING 310
SWIDTH 664 0
DWIDTH 24 0
BBX 21 34 3 -8
BITMAP
CFFFFA000000009FFFFF70
CFFFFA00000006FFFFFA00
CFFFFA0000003FFFFFD100
CFFFFA000001DFFFFE2000
CFFFFA00000BFFFFF50000
CFFFFA00008FFFFF800000
CFFFFA0005FFFFFB000000
CFFFFA003EFFFFD1000000
CFFFFA01DFFFFF30000000
CFFFFA0AFFFFF600000000
CFFFFA5FFFFFA000000000
CFFFFCEFFFFF1000000000
CFFFFFFFFFFF8000000000
CFFFFFFFFFFFF200000000
CFFFFFFFFFFFFB00000000
CFFFFFE5BFFFFF60000000
CFFFFD202EFFFFE1000000
CFFFFA0007FFFFF9000000
CFFFFA0000DFFFFF400000
CFFFFA00004FFFFFD00000
CFFFFA00000AFFFFF70000
CFFFFA000001EFFFFF2000
CFFFFA0000006FFFFFB000
CFFFFA0000000CFFFFF500
CFFFFA00000003FFFFFE10
CFFFFA000000009FFFFF90
0000000000000000000000
0000000000000000000000
0000001FFFFD0000000000
0000003FFFF60000000000
0000006FFFE00000000000
0000009FFF700000000000
000000DFFD000000000000
000001FFF5000000000000
ENDCHAR
STARTCHAR kcommaaccent
ENCODING 311
SWIDTH 620 0
DWIDTH 22 0
BBX 21 35 2 -8
BITMAP
3FFFFF3000000000000000
3FFFFF3000000000000000
3FFFFF3000000000000000
3FFFFF3000000000000000
3FFFFF3000000000000000
3FFFFF3000000000000000
3FFFFF3000000000000000
3FFFFF3000000AFFFFF600
3FFFFF3000008FFFFF7000
3FFFFF300007FFFFF90000
3FFFFF30006FFFFFA00000
3FFFFF3004FFFFFB000000
3FFFFF203EFFFFC1000000
3FFFFF12EFFFFD20000000
3FFFFF0CFFFFE200000000
3FFFFE9FFFFF4000000000
3FFFFFFFFFFFA000000000
3FFFFFFFFFFFF600000000
3FFFFFFFFFFFFE20000000
3FFFFFF92EFFFFC0000000
3FFFFF7005FFFFF9000000
3FFFFF3000AFFFFF500000
3FFFFF30001EFFFFE20000
3FFFFF300004FFFFFB0000
3FFFFF3000009FFFFF7000
3FFFFF3000001DFFFFF400
3FFFFF30000003FFFFFD10
0000000000000000000000
0000000000000000000000
0000000BFFFF3000000000
0000000EFFFB0000000000
0000001FFFF40000000000
0000005FFFB00000000000
0000008FFF300000000000
000000BFF9000000000000
ENDCHAR
STARTCHAR kgreenlandic
ENCODING 312
SWIDTH 620 0
DWIDTH 22 0
BBX 21 20 2 0
BITMAP
3FFFFF30000004FFFFF600
3FFFFF3000003EFFFF9000
3FFFFF300001DFFFFB0000
3FFFFF30000CFFFFC10000
3FFFFF3000AFFFFE200000
3FFFFF2008FFFFF3000000
3FFFFF205FFFFF50000000
3FFFFF23EFFFF700000000
3FFFFF3DFFFFA000000000
3FFFFFCFFFFF6000000000
3FFFFFFFFFFFE300000000
3FFFFFFFFFFFFD10000000
3FFFFFFE8FFFFFA0000000
3FFFFFB207FFFFF6000000
3FFFFF3000BFFFFF300000
3FFFFF30002EFFFFD10000
3FFFFF300005FFFFFA0000
3FFFFF3000009FFFFF7000
3FFFFF3000001DFFFFF300
3FFFFF30000003FFFFFD10
ENDCHAR
STARTCHAR Lacute
ENCODING 313
SWIDTH 564 0
DWIDTH 20 0
BBX 17 34 3 0
BITMAP
000008FFFFFA000000
00003FFFFFA0000000
0001DFFFF800000000
000AFFFF6000000000
007FFFE40000000000
03FFFC200000000000
000000000000000000
000000000000000000
CFFFFA000000000000
CFFFFA000000000000
CFFFFA000000000000
CFFFFA000000000000
CFFFFA000000000000
CFFFFA000000000000
CFFFFA000000000000
CFFFFA000000000000
CFFFFA000000000000
CFFFFA000000000000
CFFFFA000000000000
CFFFFA000000000000
CFFFFA000000000000
CFFFFA000000000000
CFFFFA000000000000
CFFFFA000000000000
CFFFFA000000000000
CFFFFA000000000000
CFFFFA000000000000
CFFFFA000000000000
CFFFFA000000000000
CFFFFD888888888810
CFFFFFFFFFFFFFFF20
CFFFFFFFFFFFFFFF20
CFFFFFFFFFFFFFFF20
CFFFFFFFFFFFFFFF20
ENDCHAR
STARTCHAR lacute
ENCODING 314
SWIDTH 305 0
DWIDTH 11 0
BBX 12 35 2 0
BITMAP
00002EFFFFE2
0000BFFFFE30
0007FFFFD200
004FFFFB1000
02EFFF900000
0BFFF6000000
000000000000
000000000000
3FFFFF300000
3FFFFF300000
3FFFFF300000
3FFFFF300000
3FFFFF300000
3FFFFF300000
3FFFFF300000
3FFFFF300000
3FFFFF300000
3FFFFF300000
3FFFFF300000
3FFFFF300000
3FFFFF300000
3FFFFF300000
3FFFFF300000
3FFFFF300000
3FFFFF300000
3FFFFF300000
3FFFFF300000
3FFFFF300000
3FFFFF300000
3FFFFF300000
3FFFFF300000
3FFFFF300000
3FFFFF300000
3FFFFF300000
3FFFFF300000
ENDCHAR
STARTCHAR Lcommaaccent
ENCODING 315
SWIDTH 564 0
DWIDTH 20 0
BBX 17 34 3 -8
BITMAP
CFFFFA000000000000
CFFFFA000000000000
CFFFFA000000000000
CFFFFA000000000000
CFFFFA000000000000
CFFFFA000000000000
CFFFFA000000000000
CFFFFA000000000000
CFFFFA000000000000
CFFFFA000000000000
CFFFFA000000000000
CFFFFA000000000000
CFFFFA000000000000
CFFFFA000000000000
CFFFFA000000000000
CFFFFA000000000000
CFFFFA000000000000
CFFFFA000000000000
CFFFFA000000000000
CFFFFA000000000000
CFFFFA000000000000
CFFFFD888888888810
CFFFFFFFFFFFFFFF20
CFFFFFFFFFFFFFFF20
CFFFFFFFFFFFFFFF20
CFFFFFFFFFFFFFFF20
000000000000000000
000000000000000000
000008FFFF60000000
00000AFFFE10000000
00000DFFF700000000
00001FFFE100000000
00004FFF7000000000
00008FFD0000000000
ENDCHAR
STARTCHAR lcommaaccent
ENCODING 316
SWIDTH 305 0
DWIDTH 11 0
BBX 8 35 1 -8
BITMAP
03FFFFF3
03FFFFF3
03FFFFF3
03FFFFF3
03FFFFF3
03FFFFF3
03FFFFF3
03FFFFF3
03FFFFF3
03FFFFF3
03FFFFF3
03FFFFF3
03FFFFF3
03FFFFF3
03FFFFF3
03FFFFF3
03FFFFF3
03FFFFF3
03FFFFF3
03FFFFF3
03FFFFF3
03FFFFF3
03FFFFF3
03FFFFF3
03FFFFF3
03FFFFF3
03FFFFF3
00000000
00000000
03FFFFB0
06FFFF40
09FFFC00
0CFFF400
0FFFB000
3FFF3000
ENDCHAR
STARTCHAR Lcaron
ENCODING 317
SWIDTH 564 0
DWIDTH 20 0
BBX 17 26 3 0
BITMAP
CFFFFA00004FFFFA00
CFFFFA00006FFFF300
CFFFFA00009FFFB000
CFFFFA0000DFFF3000
CFFFFA0001FFF90000
CFFFFA0003BBB10000
CFFFFA000000000000
CFFFFA000000000000
CFFFFA000000000000
CFFFFA000000000000
CFFFFA000000000000
CFFFFA000000000000
CFFFFA000000000000
CFFFFA000000000000
CFFFFA000000000000
CFFFFA000000000000
CFFFFA000000000000
CFFFFA000000000000
CFFFFA000000000000
CFFFFA000000000000
CFFFFA000000000000
CFFFFD888888888810
CFFFFFFFFFFFFFFF20
CFFFFFFFFFFFFFFF20
CFFFFFFFFFFFFFFF20
CFFFFFFFFFFFFFFF20
ENDCHAR
STARTCHAR lcaron
ENCODING 318
SWIDTH 305 0
DWIDTH 11 0
BBX 14 27 2 0
BITMAP
3FFFFF303FFFFB
3FFFFF305FFFF4
3FFFFF308FFFC0
3FFFFF30BFFF40
3FFFFF30EFFA00
3FFFFF32BBB200
3FFFFF30000000
3FFFFF30000000
3FFFFF30000000
3FFFFF30000000
3FFFFF30000000
3FFFFF30000000
3FFFFF30000000
3FFFFF30000000
3FFFFF30000000
3FFFFF30000000
3FFFFF30000000
3FFFFF30000000
3FFFFF30000000
3FFFFF30000000
3FFFFF30000000
3FFFFF30000000
3FFFFF30000000
3FFFFF30000000
3FFFFF30000000
3FFFFF30000000
3FFFFF30000000
ENDCHAR
STARTCHAR Ldot
ENCODING 319
SWIDTH 564 0
DWIDTH 20 0
BBX 17 26 3 0
BITMAP
CFFFFA000000000000
CFFFFA000000000000
CFFFFA000000000000
CFFFFA000000000000
CFFFFA000000000000
CFFFFA000000000000
CFFFFA000000000000
CFFFFA000000000000
CFFFFA000000000000
CFFFFA000000000000
CFFFFA000002310000
CFFFFA0001CFFF8000
CFFFFA0007FFFFF200
CFFFFA0008FFFFF300
CFFFFA0005FFFFE100
CFFFFA00008DEC4000
CFFFFA000000000000
CFFFFA000000000000
CFFFFA000000000000
CFFFFA000000000000
CFFFFA000000000000
CFFFFD888888888810
CFFFFFFFFFFFFFFF20
CFFFFFFFFFFFFFFF20
CFFFFFFFFFFFFFFF20
CFFFFFFFFFFFFFFF20
ENDCHAR
STARTCHAR ldot
ENCODING 320
SWIDTH 428 0
DWIDTH 15 0
BBX 15 27 2 0
BITMAP
3FFFFF3000000000
3FFFFF3000000000
3FFFFF3000000000
3FFFFF3000000000
3FFFFF3000000000
3FFFFF3000000000
3FFFFF3000000000
3FFFFF3000000000
3FFFFF3000000000
3FFFFF3000000000
3FFFFF3000000000
3FFFFF3000000000
3FFFFF3000331000
3FFFFF301DFFF600
3FFFFF308FFFFF00
3FFFFF30AFFFFF20
3FFFFF307FFFFD00
3FFFFF3009EEC300
3FFFFF3000000000
3FFFFF3000000000
3FFFFF3000000000
3FFFFF3000000000
3FFFFF3000000000
3FFFFF3000000000
3FFFFF3000000000
3FFFFF3000000000
3FFFFF3000000000
ENDCHAR
STARTCHAR Lslash
ENCODING 321
SWIDTH 564 0
DWIDTH 20 0
BBX 20 26 0 0
BITMAP
000CFFFFA00000000000
000CFFFFA00000000000
000CFFFFA00000000000
000CFFFFA00000000000
000CFFFFA00000000000
000CFFFFA00000000000
000CFFFFA00000000000
000CFFFFA01200000000
000CFFFFA5DB00000000
000CFFFFFFFF50000000
000CFFFFFFFFD1000000
000CFFFFFFFF80000000
001DFFFFFFB200000000
06EFFFFFE60000000000
AFFFFFFFA00000000000
6FFFFFFFA00000000000
0CFFFFFFA00000000000
04ADFFFFA00000000000
000CFFFFA00000000000
000CFFFFA00000000000
000CFFFFA00000000000
000CFFFFD88888888881
000CFFFFFFFFFFFFFFF2
000CFFFFFFFFFFFFFFF2
000CFFFFFFFFFFFFFFF2
000CFFFFFFFFFFFFFFF2
ENDCHAR
STARTCHAR lslash
ENCODING 322
SWIDTH 330 0
DWIDTH 12 0
BBX 12 27 0 0
BITMAP
000CFFFF9000
000CFFFF9000
000CFFFF9000
000CFFFF9000
000CFFFF9000
000CFFFF9000
000CFFFF9000
000CFFFF9000
000CFFFF9000
000CFFFF9000
000CFFFFBC20
000CFFFFFFB0
000CFFFFFFF5
000CFFFFFFF9
05DFFFFFFC30
AFFFFFFFA000
7FFFFFFF9000
0DFFFFFF9000
05BDFFFF9000
000CFFFF9000
000CFFFF9000
000CFFFF9000
000CFFFF9000
000CFFFF9000
000CFFFF9000
000CFFFF9000
000CFFFF9000
ENDCHAR
STARTCHAR Nacute
ENCODING 323
SWIDTH 812 0
DWIDTH 29 0
BBX 23 34 3 0
BITMAP
000000000000AFFFFF700000
000000000005FFFFF8000000
00000000002EFFFF60000000
0000000001CFFFE400000000
000000000AFFFD2000000000
000000005FFFA10000000000
000000000000000000000000
000000000000000000000000
CFFFFFF60000000000DFFFF0
CFFFFFFE1000000000DFFFF0
CFFFFFFF8000000000DFFFF0
CFFFFFFFF200000000DFFFF0
CFFFFFFFFA00000000DFFFF0
CFFFFFFFFF40000000DFFFF0
CFFFDEFFFFC0000000DFFFF0
CFFFD6FFFFF6000000DFFFF0
CFFFD0CFFFFE100000DFFFF0
CFFFE04FFFFF800000DFFFF0
CFFFF00BFFFFF20000DFFFF0
CFFFF102FFFFFA0000DFFFF0
CFFFF1009FFFFF4000DFFFF0
CFFFF2001EFFFFC000DFFFF0
CFFFF20007FFFFF600DFFFF0
CFFFF20000DFFFFE10CFFFF0
CFFFF200004FFFFF80BFFFF0
CFFFF200000BFFFFF2BFFFF0
CFFFF2000003FFFFFBAFFFF0
CFFFF20000009FFFFFDFFFF0
CFFFF20000001EFFFFFFFFF0
CFFFF200000007FFFFFFFFF0
CFFFF200000000DFFFFFFFF0
CFFFF2000000005FFFFFFFF0
CFFFF2000000000BFFFFFFF0
CFFFF20000000003FFFFFFF0
ENDCHAR
STARTCHAR nacute
ENCODING 324
SWIDTH 657 0
DWIDTH 24 0
BBX 19 28 2 0
BITMAP
00000000006FFFFFC000
0000000002EFFFFB1000
000000000CFFFFA00000
000000008FFFF7000000
00000005FFFE50000000
0000002FFFD300000000
00000000000000000000
00000000000000000000
3FFFF10049DEEDA40000
3FFFF41AFFFFFFFFA100
3FFFF9BFFFFFFFFFFA00
3FFFFFFFFFFFFFFFFF30
3FFFFFFFB657EFFFFF90
3FFFFFF700002FFFFFC0
3FFFFFC000000AFFFFE0
3FFFFF80000007FFFFE0
3FFFFF50000006FFFFE0
3FFFFF30000006FFFFE0
3FFFFF30000006FFFFE0
3FFFFF30000006FFFFE0
3FFFFF30000006FFFFE0
3FFFFF30000006FFFFE0
3FFFFF30000006FFFFE0
3FFFFF30000006FFFFE0
3FFFFF30000006FFFFE0
3FFFFF30000006FFFFE0
3FFFFF30000006FFFFE0
3FFFFF30000006FFFFE0
ENDCHAR
STARTCHAR Ncommaaccent
ENCODING 325
SWIDTH 812 0
DWIDTH 29 0
BBX 23 34 3 -8
BITMAP
CFFFFFF60000000000DFFFF0
CFFFFFFE1000000000DFFFF0
CFFFFFFF8000000000DFFFF0
CFFFFFFFF200000000DFFFF0
CFFFFFFFFA00000000DFFFF0
CFFFFFFFFF40000000DFFFF0
CFFFDEFFFFC0000000DFFFF0
CFFFD6FFFFF6000000DFFFF0
CFFFD0CFFFFE100000DFFFF0
CFFFE04FFFFF800000DFFFF0
CFFFF00BFFFFF20000DFFFF0
CFFFF102FFFFFA0000DFFFF0
CFFFF1009FFFFF4000DFFFF0
CFFFF2001EFFFFC000DFFFF0
CFFFF20007FFFFF600DFFFF0
CFFFF20000DFFFFE10CFFFF0
CFFFF200004FFFFF80BFFFF0
CFFFF200000BFFFFF2BFFFF0
CFFFF2000003FFFFFBAFFFF0
CFFFF20000009FFFFFDFFFF0
CFFFF20000001EFFFFFFFFF0
CFFFF200000007FFFFFFFFF0
CFFFF200000000DFFFFFFFF0
CFFFF2000000005FFFFFFFF0
CFFFF2000000000BFFFFFFF0
CFFFF20000000003FFFFFFF0
000000000000000000000000
000000000000000000000000
000000007FFFF70000000000
000000009FFFE10000000000
00000000CFFF800000000000
00000000FFFE200000000000
00000003FFF7000000000000
00000007FFD1000000000000
ENDCHAR
STARTCHAR ncommaaccent
ENCODING 326
SWIDTH 657 0
DWIDTH 24 0
BBX 19 28 2 -8
BITMAP
3FFFF10049DEEDA40000
3FFFF41AFFFFFFFFA100
3FFFF9BFFFFFFFFFFA00
3FFFFFFFFFFFFFFFFF30
3FFFFFFFB657EFFFFF90
3FFFFFF700002FFFFFC0
3FFFFFC000000AFFFFE0
3FFFFF80000007FFFFE0
3FFFFF50000006FFFFE0
3FFFFF30000006FFFFE0
3FFFFF30000006FFFFE0
3FFFFF30000006FFFFE0
3FFFFF30000006FFFFE0
3FFFFF30000006FFFFE0
3FFFFF30000006FFFFE0
3FFFFF30000006FFFFE0
3FFFFF30000006FFFFE0
3FFFFF30000006FFFFE0
3FFFFF30000006FFFFE0
3FFFFF30000006FFFFE0
00000000000000000000
00000000000000000000
0000000BFFFF30000000
0000000EFFFB00000000
0000001FFFF400000000
0000005FFFB000000000
0000008FFF3000000000
000000BFF90000000000
ENDCHAR
STARTCHAR Ncaron
ENCODING 327
SWIDTH 812 0
DWIDTH 29 0
BBX 23 34 3 0
BITMAP
00006FFFA1000008FFF90000
000009FFFD3002CFFFC10000
000000BFFFE43EFFFD100000
0000001DFFFEEFFFE2000000
00000002EFFFFFFF40000000
000000006FFFFFF900000000
000000000000000000000000
000000000000000000000000
CFFFFFF60000000000DFFFF0
CFFFFFFE1000000000DFFFF0
CFFFFFFF8000000000DFFFF0
CFFFFFFFF200000000DFFFF0
CFFFFFFFFA00000000DFFFF0
CFFFFFFFFF40000000DFFFF0
CFFFDEFFFFC0000000DFFFF0
CFFFD6FFFFF6000000DFFFF0
CFFFD0CFFFFE100000DFFFF0
CFFFE04FFFFF800000DFFFF0
CFFFF00BFFFFF20000DFFFF0
CFFFF102FFFFFA0000DFFFF0
CFFFF1009FFFFF4000DFFFF0
CFFFF2001EFFFFC000DFFFF0
CFFFF20007FFFFF600DFFFF0
CFFFF20000DFFFFE10CFFFF0
CFFFF200004FFFFF80BFFFF0
CFFFF200000BFFFFF2BFFFF0
CFFFF2000003FFFFFBAFFFF0
CFFFF20000009FFFFFDFFFF0
CFFFF20000001EFFFFFFFFF0
CFFFF200000007FFFFFFFFF0
CFFFF200000000DFFFFFFFF0
CFFFF2000000005FFFFFFFF0
CFFFF2000000000BFFFFFFF0
CFFFF20000000003FFFFFFF0
ENDCHAR
STARTCHAR ncaron
ENCODING 328
SWIDTH 657 0
DWIDTH 24 0
BBX 19 28 2 0
BITMAP
004FFFC2000006EFFC00
0007FFFE4001AFFFE200
00008FFFF61CFFFE3000
00000AFFFFDFFFF40000
000001DFFFFFFF700000
0000003FFFFFFB000000
00000000000000000000
00000000000000000000
3FFFF10049DEEDA40000
3FFFF41AFFFFFFFFA100
3FFFF9BFFFFFFFFFFA00
3FFFFFFFFFFFFFFFFF30
3FFFFFFFB657EFFFFF90
3FFFFFF700002FFFFFC0
3FFFFFC000000AFFFFE0
3FFFFF80000007FFFFE0
3FFFFF50000006FFFFE0
3FFFFF30000006FFFFE0
3FFFFF30000006FFFFE0
3FFFFF30000006FFFFE0
3FFFFF30000006FFFFE0
3FFFFF30000006FFFFE0
3FFFFF30000006FFFFE0
3FFFFF30000006FFFFE0
3FFFFF30000006FFFFE0
3FFFFF30000006FFFFE0
3FFFFF30000006FFFFE0
3FFFFF30000006FFFFE0
ENDCHAR
STARTCHAR napostrophe
ENCODING 329
SWIDTH 778 0
DWIDTH 28 0
BBX 26 26 0 0
BITMAP
03FFFFE0000000000000000000
06FFFFB0000000000000000000
08FFFF70000000000000000000
0BFFFF20000000000000000000
0EFFFC00000000000000000000
2FFFF600000000000000000000
5FFFE10CFFF60028CEFEB71000
8FFF900CFFFA06EFFFFFFFE300
CFFF300CFFFE6FFFFFFFFFFE20
0000000CFFFFFFFFFFFFFFFF90
0000000CFFFFFFD756BFFFFFE0
0000000CFFFFFC10000BFFFFF3
0000000CFFFFF3000004FFFFF4
0000000CFFFFD0000001FFFFF5
0000000CFFFFB0000000FFFFF5
0000000CFFFF90000000FFFFF5
0000000CFFFF90000000FFFFF5
0000000CFFFF80000000FFFFF5
0000000CFFFF80000000FFFFF5
0000000CFFFF80000000FFFFF5
0000000CFFFF80000000FFFFF5
0000000CFFFF80000000FFFFF5
0000000CFFFF80000000FFFFF5
0000000CFFFF80000000FFFFF5
0000000CFFFF80000000FFFFF5
0000000CFFFF80000000FFFFF5
ENDCHAR
STARTCHAR Eng
ENCODING 330
SWIDTH 812 0
DWIDTH 29 0
BBX 23 33 3 -7
BITMAP
CFFFFFF70000000000DFFFF0
CFFFFFFF3000000000DFFFF0
CFFFFFFFD000000000DFFFF0
CFFFFFFFF900000000DFFFF0
CFFFFFFFFF40000000DFFFF0
CFFFFFFFFFE1000000DFFFF0
CFFFDDFFFFFA000000DFFFF0
CFFFD4FFFFFF600000DFFFF0
CFFFD09FFFFFE20000DFFFF0
CFFFE01DFFFFFC0000DFFFF0
CFFFF003FFFFFF8000DFFFF0
CFFFF1008FFFFFF300CFFFF0
CFFFF1000CFFFFFD10CFFFF0
CFFFF20002EFFFFF90BFFFF0
CFFFF200006FFFFFF5AFFFF0
CFFFF200000BFFFFFEBFFFF0
CFFFF2000002EFFFFFFFFFF0
CFFFF20000005FFFFFFFFFF0
CFFFF20000000AFFFFFFFFF0
CFFFF200000001EFFFFFFFF0
CFFFF2000000004FFFFFFFF0
CFFFF20000000009FFFFFFF0
CFFFF20000000001DFFFFFF0
CFFFF200000000003FFFFFF0
CFFFF2000000000008FFFFF0
CFFFF2000000000000CFFFF0
000000000000000000BFFFF0
000000000000000007FFFFD0
000000000008B99AEFFFFFA0
000000000009FFFFFFFFFF30
000000000009FFFFFFFFF800
000000000009FFFFFFFF7000
000000000006CEFEDB710000
ENDCHAR
STARTCHAR eng
ENCODING 331
SWIDTH 657 0
DWIDTH 24 0
BBX 19 29 2 -9
BITMAP
3FFFF10049DEEDA40000
3FFFF41AFFFFFFFFA100
3FFFF9BFFFFFFFFFFA00
3FFFFFFFFFFFFFFFFF30
3FFFFFFFB657EFFFFF90
3FFFFFF700002FFFFFC0
3FFFFFC000000AFFFFD0
3FFFFF80000007FFFFE0
3FFFFF50000006FFFFE0
3FFFFF30000006FFFFE0
3FFFFF30000006FFFFE0
3FFFFF30000006FFFFE0
3FFFFF30000006FFFFE0
3FFFFF30000006FFFFE0
3FFFFF30000006FFFFE0
3FFFFF30000006FFFFE0
3FFFFF30000006FFFFE0
3FFFFF30000006FFFFE0
3FFFFF30000006FFFFE0
3FFFFF30000006FFFFE0
00000000000006FFFFE0
00000000000006FFFFE0
00000000000007FFFFE0
0000000000000CFFFFD0
000000000665AFFFFFB0
000000000AFFFFFFFF60
000000000AFFFFFFFD10
000000000AFFFFFFD200
0000000006CEFEC71000
ENDCHAR
STARTCHAR Omacron
ENCODING 332
SWIDTH 795 0
DWIDTH 29 0
BBX 25 32 2 0
BITMAP
0000007BBBBBBBBBBB30000000
0000009FFFFFFFFFFF50000000
0000009FFFFFFFFFFF50000000
0000009FFFFFFFFFFF50000000
00000000000000000000000000
00000000000000000000000000
000000048BDEFEDA7200000000
000005DFFFFFFFFFFFA3000000
0001AFFFFFFFFFFFFFFF600000
001CFFFFFFFFFFFFFFFFF70000
009FFFFFFFC98ADFFFFFFF4000
04FFFFFFA2000004DFFFFFD000
0BFFFFFA000000001DFFFFF500
2FFFFFE10000000004FFFFFC00
6FFFFF800000000000DFFFFF10
9FFFFF3000000000008FFFFF40
BFFFFF0000000000005FFFFF60
CFFFFD0000000000003FFFFF70
DFFFFD0000000000003FFFFF80
DFFFFD0000000000003FFFFF80
CFFFFD0000000000004FFFFF70
BFFFFF0000000000005FFFFF60
9FFFFF3000000000008FFFFF40
5FFFFF800000000000DFFFFF00
2FFFFFE10000000004FFFFFB00
0AFFFFFA000000002DFFFFF500
04FFFFFFB2000004DFFFFFD000
009FFFFFFFCA9ADFFFFFFF4000
000CFFFFFFFFFFFFFFFFF70000
0001AFFFFFFFFFFFFFFF600000
000005DFFFFFFFFFFFA3000000
000000048BDEFEDA7200000000
ENDCHAR
STARTCHAR omacron
ENCODING 333
SWIDTH 619 0
DWIDTH 22 0
BBX 20 26 1 0
BITMAP
00009BBBBBBBBBBB1000
0000CFFFFFFFFFFF2000
0000CFFFFFFFFFFF2000
0000CFFFFFFFFFFF2000
00000000000000000000
00000000000000000000
0000016ADEFEB7200000
00007EFFFFFFFFF91000
000AFFFFFFFFFFFFC100
008FFFFFFFFFFFFFFB00
02FFFFFF9658EFFFFF60
09FFFFF400002DFFFFD0
0EFFFFA0000006FFFFF3
2FFFFF50000001FFFFF7
4FFFFF20000000EFFFF9
5FFFFF10000000DFFFFA
5FFFFF10000000DFFFFA
4FFFFF30000000EFFFF8
2FFFFF50000001FFFFF7
0DFFFFA0000006FFFFF3
08FFFFF400001DFFFFD0
02FFFFFF9658EFFFFF60
007FFFFFFFFFFFFFFB00
0009FFFFFFFFFFFFC100
00006EFFFFFFFFF91000
0000016ADFFDB8200000
ENDCHAR
STARTCHAR Obreve
ENCODING 334
SWIDTH 795 0
DWIDTH 29 0
BBX 25 34 2 0
BITMAP
000007FF80000000EFF3000000
000005FFE400002AFFE1000000
000000EFFFDCCDFFFF90000000
0000005FFFFFFFFFFD10000000
00000006FFFFFFFFC200000000
0000000028CEFEB50000000000
00000000000000000000000000
00000000000000000000000000
000000048BDEFEDA7200000000
000005DFFFFFFFFFFFA3000000
0001AFFFFFFFFFFFFFFF600000
001CFFFFFFFFFFFFFFFFF70000
009FFFFFFFC98ADFFFFFFF4000
04FFFFFFA2000004DFFFFFD000
0BFFFFFA000000001DFFFFF500
2FFFFFE10000000004FFFFFC00
6FFFFF800000000000DFFFFF10
9FFFFF3000000000008FFFFF40
BFFFFF0000000000005FFFFF60
CFFFFD0000000000003FFFFF70
DFFFFD0000000000003FFFFF80
DFFFFD0000000000003FFFFF80
CFFFFD0000000000004FFFFF70
BFFFFF0000000000005FFFFF60
9FFFFF3000000000008FFFFF40
5FFFFF800000000000DFFFFF00
2FFFFFE10000000004FFFFFB00
0AFFFFFA000000002DFFFFF500
04FFFFFFB2000004DFFFFFD000
009FFFFFFFCA9ADFFFFFFF4000
000CFFFFFFFFFFFFFFFFF70000
0001AFFFFFFFFFFFFFFF600000
000005DFFFFFFFFFFFA3000000
000000048BDEFEDA7200000000
ENDCHAR
STARTCHAR obreve
ENCODING 335
SWIDTH 619 0
DWIDTH 22 0
BBX 20 28 1 0
BITMAP
000BFF50000003FFE000
0008FFC200003CFFB000
0003FFFFDCCDFFFF5000
00009FFFFFFFFFFA0000
00000AFFFFFFFFA00000
0000004ADFFDA4000000
00000000000000000000
00000000000000000000
0000016ADEFEB7200000
00007EFFFFFFFFF91000
000AFFFFFFFFFFFFC100
008FFFFFFFFFFFFFFB00
02FFFFFF9658EFFFFF60
09FFFFF400002DFFFFD0
0EFFFFA0000006FFFFF3
2FFFFF50000001FFFFF7
4FFFFF20000000EFFFF9
5FFFFF10000000DFFFFA
5FFFFF10000000DFFFFA
4FFFFF30000000EFFFF8
2FFFFF50000001FFFFF7
0DFFFFA0000006FFFFF3
08FFFFF400001DFFFFD0
02FFFFFF9658EFFFFF60
007FFFFFFFFFFFFFFB00
0009FFFFFFFFFFFFC100
00006EFFFFFFFFF91000
0000016ADFFDB8200000
ENDCHAR
STARTCHAR Ohungarumlaut
ENCODING 336
SWIDTH 795 0
DWIDTH 29 0
BBX 25 34 2 0
BITMAP
0000000007FFFFE17FFFFE1000
000000001EFFFF41EFFFF40000
000000009FFFF409FFFE400000
00000004FFFE404FFFE3000000
0000001DFFD201DFFD20000000
0000008FFB1008FFB100000000
00000000000000000000000000
00000000000000000000000000
000000048BDEFEDA7200000000
000005DFFFFFFFFFFFA3000000
0001AFFFFFFFFFFFFFFF600000
001CFFFFFFFFFFFFFFFFF70000
009FFFFFFFC98ADFFFFFFF4000
04FFFFFFA2000004DFFFFFD000
0BFFFFFA000000001DFFFFF500
2FFFFFE10000000004FFFFFC00
6FFFFF800000000000DFFFFF10
9FFFFF3000000000008FFFFF40
BFFFFF0000000000005FFFFF60
CFFFFD0000000000003FFFFF70
DFFFFD0000000000003FFFFF80
DFFFFD0000000000003FFFFF80
CFFFFD0000000000004FFFFF70
BFFFFF0000000000005FFFFF60
9FFFFF3000000000008FFFFF40
5FFFFF800000000000DFFFFF00
2FFFFFE10000000004FFFFFB00
0AFFFFFA000000002DFFFFF500
04FFFFFFB2000004DFFFFFD000
009FFFFFFFCA9ADFFFFFFF4000
000CFFFFFFFFFFFFFFFFF70000
0001AFFFFFFFFFFFFFFF600000
000005DFFFFFFFFFFFA3000000
000000048BDEFEDA7200000000
ENDCHAR
STARTCHAR ohungarumlaut
ENCODING 337
SWIDTH 619 0
DWIDTH 22 0
BBX 20 28 1 0
BITMAP
0000001EFFFF71EFFFF7
0000008FFFFB08FFFFB0
000002FFFFB02FFFFB00
00000CFFFA00BFFF9000
00007FFF8007FFF70000
0001EFF6001FFF500000
00000000000000000000
00000000000000000000
0000016ADEFEB7200000
00007EFFFFFFFFF91000
000AFFFFFFFFFFFFC100
008FFFFFFFFFFFFFFB00
02FFFFFF9658EFFFFF60
09FFFFF400002DFFFFD0
0EFFFFA0000006FFFFF3
2FFFFF50000001FFFFF7
4FFFFF20000000EFFFF9
5FFFFF10000000DFFFFA
5FFFFF10000000DFFFFA
4FFFFF30000000EFFFF8
2FFFFF50000001FFFFF7
0DFFFFA0000006FFFFF3
08FFFFF400001DFFFFD0
02FFFFFF9658EFFFFF60
007FFFFFFFFFFFFFFB00
0009FFFFFFFFFFFFC100
00006EFFFFFFFFF91000
0000016ADFFDB8200000
ENDCHAR
STARTCHAR OE
ENCODING 338
SWIDTH 973 0
DWIDTH 35 0
BBX 31 26 2 0
BITMAP
00000016ACEFFFFFFFFFFFFFFFFFFFE0
000018EFFFFFFFFFFFFFFFFFFFFFFFE0
0002DFFFFFFFFFFFFFFFFFFFFFFFFFE0
002EFFFFFFFFFFFFFFFFFFFFFFFFFFE0
00BFFFFFFEA89ADFFFFFF77777777760
05FFFFFF70000008FFFFF00000000000
0CFFFFF600000007FFFFF00000000000
2FFFFFB000000007FFFFF00000000000
6FFFFF5000000007FFFFF00000000000
9FFFFF1000000007FFFFF00000000000
BFFFFD0000000007FFFFFFFFFFFFFF40
CFFFFC0000000007FFFFFFFFFFFFFF40
DFFFFB0000000007FFFFFFFFFFFFFF40
DFFFFB0000000007FFFFFFFFFFFFFF40
CFFFFC0000000007FFFFF77777777720
BFFFFD0000000007FFFFF00000000000
9FFFFF1000000007FFFFF00000000000
6FFFFF5000000007FFFFF00000000000
2FFFFFB000000007FFFFF00000000000
0BFFFFF600000007FFFFF00000000000
05FFFFFF70000008FFFFF00000000000
00BFFFFFFEA9ABEFFFFFF88888888870
001DFFFFFFFFFFFFFFFFFFFFFFFFFFE0
0002DFFFFFFFFFFFFFFFFFFFFFFFFFE0
000018EFFFFFFFFFFFFFFFFFFFFFFFE0
00000016ADEFFFFFFFFFFFFFFFFFFFE0
ENDCHAR
STARTCHAR oe
ENCODING 339
SWIDTH 978 0
DWIDTH 35 0
BBX 33 20 1 0
BITMAP
0000017BDEEDA61000038CEFED95000000
00008EFFFFFFFFE6019FFFFFFFFFD40000
000BFFFFFFFFFFFF9CFFFFFFFFFFFF5000
009FFFFFFFFFFFFFFFFFFFEDDFFFFFE300
03FFFFFF9658EFFFFFFFF70003CFFFFB00
0AFFFFF400002DFFFFFF7000002FFFFF20
0EFFFFA0000006FFFFFE00000009FFFF60
2FFFFF50000001FFFFFC00000007FFFF80
4FFFFF20000000EFFFFFFFFFFFFFFFFF90
5FFFFF10000000DFFFFFFFFFFFFFFFFFA0
5FFFFF10000000DFFFFFFFFFFFFFFFFFA0
4FFFFF30000000EFFFFC88888888888860
2FFFFF50000001FFFFFA00000000000000
0DFFFFA0000006FFFFFE10000000000000
08FFFFF400001DFFFFFF90000000001200
02EFFFFF9658EFFFFFFFFB5100136AE800
007FFFFFFFFFFFFFFFFFFFFFFFFFFFF800
0008FFFFFFFFFFFFBBFFFFFFFFFFFFF800
00006EFFFFFFFFF9007EFFFFFFFFFFF600
0000016ADFFDB72000016ADEFEEC961000
ENDCHAR
STARTCHAR Racute
ENCODING 340
SWIDTH 660 0
DWIDTH 24 0
BBX 21 34 3 0
BITMAP
000000000CFFFFF5000000
000000007FFFFF60000000
00000004FFFFE400000000
0000001EFFFD3000000000
000000CFFFB10000000000
000008FFF9000000000000
0000000000000000000000
0000000000000000000000
CFFFFFFFEECA6100000000
CFFFFFFFFFFFFF91000000
CFFFFFFFFFFFFFFD200000
CFFFFFFFFFFFFFFFC00000
CFFFFD778AEFFFFFF50000
CFFFFA000019FFFFFA0000
CFFFFA000000DFFFFD0000
CFFFFA0000009FFFFE0000
CFFFFA0000008FFFFE0000
CFFFFA000000BFFFFC0000
CFFFFA000004FFFFF80000
CFFFFA00138EFFFFF20000
CFFFFFFFFFFFFFFF700000
CFFFFFFFFFFFFFF8000000
CFFFFFFFFFFFFD50000000
CFFFFFFFFFFFF800000000
CFFFFC779FFFFF30000000
CFFFFA000BFFFFD0000000
CFFFFA0002EFFFF8000000
CFFFFA00007FFFFF400000
CFFFFA00000CFFFFD10000
CFFFFA000003FFFFF90000
CFFFFA0000008FFFFF5000
CFFFFA0000000DFFFFE100
CFFFFA00000004FFFFFB00
CFFFFA000000009FFFFF60
ENDCHAR
STARTCHAR racute
ENCODING 341
SWIDTH 454 0
DWIDTH 16 0
BBX 15 28 2 0
BITMAP
00000004FFFFFD10
0000001DFFFFC100
000000AFFFFB1000
000007FFFF900000
00004FFFF6000000
0000EFFE40000000
0000000000000000
0000000000000000
3FFFE00018DFF700
3FFFF304EFFFF700
3FFFF64FFFFFF600
3FFFFBDFFFFFF500
3FFFFFFFFFFFF400
3FFFFFFFB5101000
3FFFFFF700000000
3FFFFFB000000000
3FFFFF5000000000
3FFFFF3000000000
3FFFFF3000000000
3FFFFF3000000000
3FFFFF3000000000
3FFFFF3000000000
3FFFFF3000000000
3FFFFF3000000000
3FFFFF3000000000
3FFFFF3000000000
3FFFFF3000000000
3FFFFF3000000000
ENDCHAR
STARTCHAR Rcommaaccent
ENCODING 342
SWIDTH 660 0
DWIDTH 24 0
BBX 21 34 3 -8
BITMAP
CFFFFFFFEECA6100000000
CFFFFFFFFFFFFF91000000
CFFFFFFFFFFFFFFD200000
CFFFFFFFFFFFFFFFC00000
CFFFFD778AEFFFFFF50000
CFFFFA000019FFFFFA0000
CFFFFA000000DFFFFD0000
CFFFFA0000009FFFFE0000
CFFFFA0000008FFFFE0000
CFFFFA000000BFFFFC0000
CFFFFA000004FFFFF80000
CFFFFA00138EFFFFF20000
CFFFFFFFFFFFFFFF700000
CFFFFFFFFFFFFFF8000000
CFFFFFFFFFFFFD50000000
CFFFFFFFFFFFF800000000
CFFFFC779FFFFF30000000
CFFFFA000BFFFFD0000000
CFFFFA0002EFFFF8000000
CFFFFA00007FFFFF400000
CFFFFA00000CFFFFD10000
CFFFFA000003FFFFF90000
CFFFFA0000008FFFFF5000
CFFFFA0000000DFFFFE100
CFFFFA00000004FFFFFB00
CFFFFA000000009FFFFF60
0000000000000000000000
0000000000000000000000
0000000AFFFF4000000000
0000000CFFFC0000000000
0000000FFFF60000000000
0000003FFFD00000000000
0000006FFF500000000000
000000AFFB000000000000
ENDCHAR
STARTCHAR rcommaaccent
ENCODING 343
SWIDTH 454 0
DWIDTH 16 0
BBX 15 28 1 -8
BITMAP
03FFFE00018DFF70
03FFFF304EFFFF70
03FFFF64FFFFFF60
03FFFFBDFFFFFF50
03FFFFFFFFFFFF40
03FFFFFFFB510100
03FFFFFF70000000
03FFFFFB00000000
03FFFFF500000000
03FFFFF300000000
03FFFFF300000000
03FFFFF300000000
03FFFFF300000000
03FFFFF300000000
03FFFFF300000000
03FFFFF300000000
03FFFFF300000000
03FFFFF300000000
03FFFFF300000000
03FFFFF300000000
0000000000000000
0000000000000000
03FFFFB000000000
06FFFF4000000000
09FFFC0000000000
0CFFF40000000000
0FFFB00000000000
3FFF300000000000
ENDCHAR
STARTCHAR Rcaron
ENCODING 344
SWIDTH 660 0
DWIDTH 24 0
BBX 21 34 3 0
BITMAP
0BFFF7000002BFFF500000
01DFFFA1005EFFF8000000
002EFFFC16FFFFA0000000
0003FFFFDFFFFB00000000
00006FFFFFFFD100000000
00000AFFFFFF4000000000
0000000000000000000000
0000000000000000000000
CFFFFFFFEECA6100000000
CFFFFFFFFFFFFF91000000
CFFFFFFFFFFFFFFD200000
CFFFFFFFFFFFFFFFC00000
CFFFFD778AEFFFFFF50000
CFFFFA000019FFFFFA0000
CFFFFA000000DFFFFD0000
CFFFFA0000009FFFFE0000
CFFFFA0000008FFFFE0000
CFFFFA000000BFFFFC0000
CFFFFA000004FFFFF80000
CFFFFA00138EFFFFF20000
CFFFFFFFFFFFFFFF700000
CFFFFFFFFFFFFFF8000000
CFFFFFFFFFFFFD50000000
CFFFFFFFFFFFF800000000
CFFFFC779FFFFF30000000
CFFFFA000BFFFFD0000000
CFFFFA0002EFFFF8000000
CFFFFA00007FFFFF400000
CFFFFA00000CFFFFD10000
CFFFFA000003FFFFF90000
CFFFFA0000008FFFFF5000
CFFFFA0000000DFFFFE100
CFFFFA00000004FFFFFB00
CFFFFA000000009FFFFF60
ENDCHAR
STARTCHAR rcaron
ENCODING 345
SWIDTH 454 0
DWIDTH 16 0
BBX 16 28 1 0
BITMAP
6FFFA1000008FFF9
09FFFD3002CFFFC1
00BFFFE43EFFFD10
001DFFFEEFFFE200
0002EFFFFFFF4000
00006FFFFFF90000
0000000000000000
0000000000000000
03FFFE00018DFF70
03FFFF304EFFFF70
03FFFF64FFFFFF60
03FFFFBDFFFFFF50
03FFFFFFFFFFFF40
03FFFFFFFB510100
03FFFFFF70000000
03FFFFFB00000000
03FFFFF500000000
03FFFFF300000000
03FFFFF300000000
03FFFFF300000000
03FFFFF300000000
03FFFFF300000000
03FFFFF300000000
03FFFFF300000000
03FFFFF300000000
03FFFFF300000000
03FFFFF300000000
03FFFFF300000000
ENDCHAR
STARTCHAR Sacute
ENCODING 346
SWIDTH 550 0
DWIDTH 20 0
BBX 18 34 1 0
BITMAP
0000000001EFFFFF30
000000000AFFFFE400
000000006FFFFD3000
00000003FFFFC10000
0000001DFFFA000000
000000AFFF70000000
000000000000000000
000000000000000000
0000059CEFEDB73000
0003DFFFFFFFFFFD71
004FFFFFFFFFFFFFE1
01EFFFFFFFFFFFFF90
08FFFFFEA89BEFFF30
0DFFFFD1000004AB00
0FFFFF600000000000
0FFFFF500000000000
0EFFFFC00000000000
0AFFFFFC3000000000
04FFFFFFFB30000000
008FFFFFFFFB300000
0009FFFFFFFFFA1000
00005EFFFFFFFFD300
0000017EFFFFFFFE20
000000006DFFFFFFB0
00000000008FFFFFF2
000000000007FFFFF5
000000000000FFFFF6
340000000001FFFFF5
5FD720000009FFFFF2
5FFFFDA889DFFFFFC0
5FFFFFFFFFFFFFFF40
5FFFFFFFFFFFFFF600
3CFFFFFFFFFFFD4000
0037ADEFFEC9400000
ENDCHAR
STARTCHAR sacute
ENCODING 347
SWIDTH 497 0
DWIDTH 18 0
BBX 16 28 1 0
BITMAP
000000003FFFFFD1
00000001DFFFFD20
00000009FFFFC100
0000006FFFFA0000
000003FFFF700000
00000DFFE4000000
0000000000000000
0000000000000000
00017BDEFEDA7200
006EFFFFFFFFFFC2
06FFFFFFFFFFFFD0
1EFFFFFFFFFFFF70
4FFFFF610149EF10
5FFFFF1000000300
4FFFFFB200000000
1FFFFFFFA4000000
08FFFFFFFFD71000
009FFFFFFFFFE500
0004CFFFFFFFFF50
000004AFFFFFFFE1
000000029FFFFFF5
0000000003FFFFF7
3300000000CFFFF7
5FD8410016FFFFF5
5FFFFFFEFFFFFFE1
5FFFFFFFFFFFFF50
5FFFFFFFFFFFE500
037BDEFFEDA61000
ENDCHAR
STARTCHAR Scircumflex
ENCODING 348
SWIDTH 550 0
DWIDTH 20 0
BBX 18 34 1 0
BITMAP
000001DFFFFFE10000
00000AFFFFFFFA0000
00006FFFFDFFFF7000
0004FFFF91AFFFF500
003EFFF70008FFFF40
01EFFD4000004DFFE1
000000000000000000
000000000000000000
0000059CEFEDB73000
0003DFFFFFFFFFFD71
004FFFFFFFFFFFFFE1
01EFFFFFFFFFFFFF90
08FFFFFEA89BEFFF30
0DFFFFD1000004AB00
0FFFFF600000000000
0FFFFF500000000000
0EFFFFC00000000000
0AFFFFFC3000000000
04FFFFFFFB30000000
008FFFFFFFFB300000
0009FFFFFFFFFA1000
00005EFFFFFFFFD300
0000017EFFFFFFFE20
000000006DFFFFFFB0
00000000008FFFFFF2
000000000007FFFFF5
000000000000FFFFF6
340000000001FFFFF5
5FD720000009FFFFF2
5FFFFDA889DFFFFFC0
5FFFFFFFFFFFFFFF40
5FFFFFFFFFFFFFF600
3CFFFFFFFFFFFD4000
0037ADEFFEC9400000
ENDCHAR
STARTCHAR scircumflex
ENCODING 349
SWIDTH 497 0
DWIDTH 18 0
BBX 16 28 1 0
BITMAP
00003FFFFFFB0000
0001DFFFFFFF7000
000AFFFFEFFFF400
008FFFF62DFFFE20
07FFFE4001BFFFD1
4FFFC2000007EFFC
0000000000000000
0000000000000000
00017BDEFEDA7200
006EFFFFFFFFFFC2
06FFFFFFFFFFFFD0
1EFFFFFFFFFFFF70
4FFFFF610149EF10
5FFFFF1000000300
4FFFFFB200000000
1FFFFFFFA4000000
08FFFFFFFFD71000
009FFFFFFFFFE500
0004CFFFFFFFFF50
000004AFFFFFFFE1
000000029FFFFFF5
0000000003FFFFF7
3300000000CFFFF7
5FD8410016FFFFF5
5FFFFFFEFFFFFFE1
5FFFFFFFFFFFFF50
5FFFFFFFFFFFE500
037BDEFFEDA61000
ENDCHAR
STARTCHAR Scedilla
ENCODING 350
SWIDTH 550 0
DWIDTH 20 0
BBX 18 35 1 -9
BITMAP
0000059CEFEDB73000
0003DFFFFFFFFFFD71
004FFFFFFFFFFFFFE1
01EFFFFFFFFFFFFF90
08FFFFFEA89BEFFF30
0DFFFFD1000004AB00
0FFFFF600000000000
0FFFFF500000000000
0EFFFFC00000000000
0AFFFFFC3000000000
04FFFFFFFB30000000
008FFFFFFFFB300000
0009FFFFFFFFFA1000
00005EFFFFFFFFD300
0000017EFFFFFFFE20
000000006DFFFFFFB0
00000000008FFFFFF2
000000000007FFFFF5
000000000000FFFFF6
340000000001FFFFF5
5FD720000009FFFFF2
5FFFFDA889DFFFFFC0
5FFFFFFFFFFFFFFF40
5FFFFFFFFFFFFFF600
3CFFFFFFFFFFFD4000
0037ADEFFEC9400000
0000006FFF10000000
000000DFFD00000000
000005FFFFA2000000
00000029FFFD100000
00000000CFFF700000
00002201CFFF800000
00007FFFFFFF500000
00007FFFFFFC000000
00004DEFEB71000000
ENDCHAR
STARTCHAR scedilla
ENCODING 351
SWIDTH 497 0
DWIDTH 18 0
BBX 16 29 1 -9
BITMAP
00017BDEFEDA7200
006EFFFFFFFFFFC2
06FFFFFFFFFFFFD0
1EFFFFFFFFFFFF70
4FFFFF610149EF10
5FFFFF1000000300
4FFFFFB200000000
1FFFFFFFA4000000
08FFFFFFFFD71000
009FFFFFFFFFE500
0004CFFFFFFFFF50
000004AFFFFFFFE1
000000029FFFFFF5
0000000003FFFFF7
3300000000CFFFF7
5FD8410016FFFFF5
5FFFFFFEFFFFFFE1
5FFFFFFFFFFFFF50
5FFFFFFFFFFFE500
037BDEFFEDA61000
000005FFF2000000
00000CFFE0000000
00004FFFFA200000
0000028FFFE20000
0000000AFFF80000
0002200CFFF90000
0005FFFFFFF60000
0005FFFFFFC10000
0004CEFEC7100000
ENDCHAR
STARTCHAR Scaron
ENCODING 352
SWIDTH 550 0
DWIDTH 20 0
BBX 18 34 1 0
BITMAP
01EFFD4000004DFFE1
004FFFF70008FFFF40
0005FFFF90AFFFF600
00007FFFFDFFFF8000
00000AFFFFFFFB0000
000001DFFFFFE10000
000000000000000000
000000000000000000
0000059CEFEDB73000
0003DFFFFFFFFFFD71
004FFFFFFFFFFFFFE1
01EFFFFFFFFFFFFF90
08FFFFFEA89BEFFF30
0DFFFFD1000004AB00
0FFFFF600000000000
0FFFFF500000000000
0EFFFFC00000000000
0AFFFFFC3000000000
04FFFFFFFB30000000
008FFFFFFFFB300000
0009FFFFFFFFFA1000
00005EFFFFFFFFD300
0000017EFFFFFFFE20
000000006DFFFFFFB0
00000000008FFFFFF2
000000000007FFFFF5
000000000000FFFFF6
340000000001FFFFF5
5FD720000009FFFFF2
5FFFFDA889DFFFFFC0
5FFFFFFFFFFFFFFF40
5FFFFFFFFFFFFFF600
3CFFFFFFFFFFFD4000
0037ADEFFEC9400000
ENDCHAR
STARTCHAR scaron
ENCODING 353
SWIDTH 497 0
DWIDTH 18 0
BBX 17 28 1 0
BITMAP
2EFFD3000005EFFE10
04FFFF60008FFFF400
006FFFF81BFFFF5000
0008FFFFDFFFF70000
0000BFFFFFFFA00000
00001EFFFFFD100000
000000000000000000
000000000000000000
00017BDEFEDA720000
006EFFFFFFFFFFC200
06FFFFFFFFFFFFD000
1EFFFFFFFFFFFF7000
4FFFFF610149EF1000
5FFFFF100000030000
4FFFFFB20000000000
1FFFFFFFA400000000
08FFFFFFFFD7100000
009FFFFFFFFFE50000
0004CFFFFFFFFF5000
000004AFFFFFFFE100
000000029FFFFFF500
0000000003FFFFF700
3300000000CFFFF700
5FD8410016FFFFF500
5FFFFFFEFFFFFFE100
5FFFFFFFFFFFFF5000
5FFFFFFFFFFFE50000
037BDEFFEDA6100000
ENDCHAR
STARTCHAR Tcedilla
ENCODING 354
SWIDTH 579 0
DWIDTH 21 0
BBX 21 35 0 -9
BITMAP
4FFFFFFFFFFFFFFFFFFF20
4FFFFFFFFFFFFFFFFFFF20
4FFFFFFFFFFFFFFFFFFF20
4FFFFFFFFFFFFFFFFFFF20
2888888AFFFFF988888810
00000004FFFFF200000000
00000004FFFFF200000000
00000004FFFFF200000000
00000004FFFFF200000000
00000004FFFFF200000000
00000004FFFFF200000000
00000004FFFFF200000000
00000004FFFFF200000000
00000004FFFFF200000000
00000004FFFFF200000000
00000004FFFFF200000000
00000004FFFFF200000000
00000004FFFFF200000000
00000004FFFFF200000000
00000004FFFFF200000000
00000004FFFFF200000000
00000004FFFFF200000000
00000004FFFFF200000000
00000004FFFFF200000000
00000004FFFFF200000000
00000004FFFFF200000000
000000006FFF2000000000
00000000DFFD0000000000
00000005FFFFA200000000
0000000029FFFE10000000
0000000000BFFF70000000
0000002201CFFF80000000
0000006FFFFFFF50000000
0000006FFFFFFC00000000
0000004CEFEC7100000000
ENDCHAR
STARTCHAR tcedilla
ENCODING 355
SWIDTH 434 0
DWIDTH 16 0
BBX 15 34 0 -9
BITMAP
0000023320000000
00000EFFB0000000
00005FFFB0000000
0000AFFFB0000000
0001FFFFB0000000
004DFFFFFFFFFF40
1AFFFFFFFFFFFF40
3FFFFFFFFFFFFF40
3FFFFFFFFFFFFF40
0009FFFFB0000000
0009FFFFB0000000
0009FFFFB0000000
0009FFFFB0000000
0009FFFFB0000000
0009FFFFB0000000
0009FFFFB0000000
0009FFFFB0000000
0009FFFFB0000000
0009FFFFC0000000
0008FFFFE1000000
0006FFFFFC556A60
0003FFFFFFFFFF70
0000BFFFFFFFFF70
00002DFFFFFFFF70
0000017CEFEDA610
0000001EFF800000
0000007FFF400000
000000DFFFD50000
00000015EFFF6000
000000005FFFD000
000003107FFFE000
00000FFFFFFFC000
00000FFFFFFF4000
00000BEFED930000
ENDCHAR
STARTCHAR Tcaron
ENCODING 356
SWIDTH 579 0
DWIDTH 21 0
BBX 21 34 0 0
BITMAP
002EFFD3000005EFFE1000
0004FFFF60008FFFF40000
00006FFFF81BFFFF500000
000008FFFFDFFFF7000000
000000BFFFFFFFA0000000
0000001EFFFFFD10000000
0000000000000000000000
0000000000000000000000
4FFFFFFFFFFFFFFFFFFF20
4FFFFFFFFFFFFFFFFFFF20
4FFFFFFFFFFFFFFFFFFF20
4FFFFFFFFFFFFFFFFFFF20
2888888AFFFFF988888810
00000004FFFFF200000000
00000004FFFFF200000000
00000004FFFFF200000000
00000004FFFFF200000000
00000004FFFFF200000000
00000004FFFFF200000000
00000004FFFFF200000000
00000004FFFFF200000000
00000004FFFFF200000000
00000004FFFFF200000000
00000004FFFFF200000000
00000004FFFFF200000000
00000004FFFFF200000000
00000004FFFFF200000000
00000004FFFFF200000000
00000004FFFFF200000000
00000004FFFFF200000000
00000004FFFFF200000000
00000004FFFFF200000000
00000004FFFFF200000000
00000004FFFFF200000000
ENDCHAR
STARTCHAR tcaron
ENCODING 357
SWIDTH 434 0
DWIDTH 16 0
BBX 17 27 0 0
BITMAP
000000000001FFFFD0
000000000004FFFF60
000002332006FFFD00
00000EFFB00AFFF600
00005FFFB00DFFC000
0000AFFFB01BBB3000
0001FFFFB000000000
004DFFFFFFFFFF4000
1AFFFFFFFFFFFF4000
3FFFFFFFFFFFFF4000
3FFFFFFFFFFFFF4000
0009FFFFB000000000
0009FFFFB000000000
0009FFFFB000000000
0009FFFFB000000000
0009FFFFB000000000
0009FFFFB000000000
0009FFFFB000000000
0009FFFFB000000000
0009FFFFB000000000
0009FFFFC000000000
0008FFFFE100000000
0006FFFFFC556A6000
0003FFFFFFFFFF7000
0000BFFFFFFFFF7000
00002DFFFFFFFF7000
0000017CEFEDA61000
ENDCHAR
STARTCHAR Tbar
ENCODING 358
SWIDTH 579 0
DWIDTH 21 0
BBX 21 26 0 0
BITMAP
4FFFFFFFFFFFFFFFFFFF20
4FFFFFFFFFFFFFFFFFFF20
4FFFFFFFFFFFFFFFFFFF20
4FFFFFFFFFFFFFFFFFFF20
2888888AFFFFF988888810
00000004FFFFF200000000
00000004FFFFF200000000
00000004FFFFF200000000
00000004FFFFF200000000
00000004FFFFF200000000
00000004FFFFF200000000
000AFFFFFFFFFFFFF70000
000AFFFFFFFFFFFFF70000
000AFFFFFFFFFFFFF70000
000AFFFFFFFFFFFFF70000
00057779FFFFF877730000
00000004FFFFF200000000
00000004FFFFF200000000
00000004FFFFF200000000
00000004FFFFF200000000
00000004FFFFF200000000
00000004FFFFF200000000
00000004FFFFF200000000
00000004FFFFF200000000
00000004FFFFF200000000
00000004FFFFF200000000
ENDCHAR
STARTCHAR tbar
ENCODING 359
SWIDTH 434 0
DWIDTH 16 0
BBX 15 25 0 0
BITMAP
0000023320000000
00000EFFB0000000
00005FFFB0000000
0000AFFFB0000000
0001FFFFB0000000
004DFFFFFFFFFF40
1AFFFFFFFFFFFF40
3FFFFFFFFFFFFF40
3FFFFFFFFFFFFF40
0009FFFFB0000000
0009FFFFB0000000
0009FFFFB0000000
0DFFFFFFFFFFFA00
0DFFFFFFFFFFFA00
0DFFFFFFFFFFFA00
067CFFFFD7777500
0009FFFFB0000000
0009FFFFB0000000
0009FFFFC0000000
0008FFFFE1000000
0006FFFFFC556A60
0002FFFFFFFFFF70
0000AFFFFFFFFF70
00001CFFFFFFFF70
0000016BEFEDB710
ENDCHAR
STARTCHAR Utilde
ENCODING 360
SWIDTH 755 0
DWIDTH 27 0
BBX 22 33 3 0
BITMAP
000003BEEB71001DFD0000
00005FFFFFFFC9DFFA0000
0001EFFFFFFFFFFFF40000
0005FFE9AEFFFFFF900000
0008FF40005ADFC6000000
0000000000000000000000
0000000000000000000000
EFFFF70000000004FFFFF2
EFFFF70000000004FFFFF2
EFFFF70000000004FFFFF2
EFFFF70000000004FFFFF2
EFFFF70000000004FFFFF2
EFFFF70000000004FFFFF2
EFFFF70000000004FFFFF2
EFFFF70000000004FFFFF2
EFFFF70000000004FFFFF2
EFFFF70000000004FFFFF2
EFFFF70000000004FFFFF2
EFFFF70000000004FFFFF2
EFFFF70000000004FFFFF2
EFFFF70000000004FFFFF2
EFFFF70000000004FFFFF2
EFFFF70000000004FFFFF2
EFFFF80000000005FFFFF2
DFFFFA0000000007FFFFF1
BFFFFD000000000AFFFFE0
8FFFFF500000002FFFFFB0
3FFFFFE5000003DFFFFF60
0BFFFFFFDA9ACFFFFFFD00
02EFFFFFFFFFFFFFFFF300
003EFFFFFFFFFFFFFE4000
0001AFFFFFFFFFFFA20000
0000027ADEFEDB72000000
ENDCHAR
STARTCHAR utilde
ENCODING 361
SWIDTH 657 0
DWIDTH 24 0
BBX 19 27 2 0
BITMAP
00003AEEC72000CFF000
0003EFFFFFFC9CFFC000
000DFFFFFFFFFFFF6000
003FFFAAEFFFFFFB0000
006FF60004ADFD700000
00000000000000000000
00000000000000000000
4FFFFF10000008FFFFD0
4FFFFF10000008FFFFD0
4FFFFF10000008FFFFD0
4FFFFF10000008FFFFD0
4FFFFF10000008FFFFD0
4FFFFF10000008FFFFD0
4FFFFF10000008FFFFD0
4FFFFF10000008FFFFD0
4FFFFF10000008FFFFD0
4FFFFF10000008FFFFD0
4FFFFF10000008FFFFD0
4FFFFF1000000AFFFFD0
4FFFFF2000000DFFFFD0
4FFFFF5000002FFFFFD0
2FFFFFB00000BFFFFFD0
0EFFFFFB547DFFFFFFD0
09FFFFFFFFFFFFFFFFD0
02EFFFFFFFFFF7DFFFD0
003EFFFFFFFF70AFFFD0
00017BEFEC82006FFFD0
ENDCHAR
STARTCHAR Umacron
ENCODING 362
SWIDTH 755 0
DWIDTH 27 0
BBX 22 32 3 0
BITMAP
00004BBBBBBBBBBB600000
00005FFFFFFFFFFF900000
00005FFFFFFFFFFF900000
00005FFFFFFFFFFF900000
0000000000000000000000
0000000000000000000000
EFFFF70000000004FFFFF2
EFFFF70000000004FFFFF2
EFFFF70000000004FFFFF2
EFFFF70000000004FFFFF2
EFFFF70000000004FFFFF2
EFFFF70000000004FFFFF2
EFFFF70000000004FFFFF2
EFFFF70000000004FFFFF2
EFFFF70000000004FFFFF2
EFFFF70000000004FFFFF2
EFFFF70000000004FFFFF2
EFFFF70000000004FFFFF2
EFFFF70000000004FFFFF2
EFFFF70000000004FFFFF2
EFFFF70000000004FFFFF2
EFFFF70000000004FFFFF2
EFFFF80000000005FFFFF2
DFFFFA0000000007FFFFF1
BFFFFD000000000AFFFFE0
8FFFFF500000002FFFFFB0
3FFFFFE5000003DFFFFF60
0BFFFFFFDA9ACFFFFFFD00
02EFFFFFFFFFFFFFFFF300
003EFFFFFFFFFFFFFE4000
0001AFFFFFFFFFFFA20000
0000027ADEFEDB72000000
ENDCHAR
STARTCHAR umacron
ENCODING 363
SWIDTH 657 0
DWIDTH 24 0
BBX 19 26 2 0
BITMAP
0002BBBBBBBBBBB80000
0003FFFFFFFFFFFB0000
0003FFFFFFFFFFFB0000
0003FFFFFFFFFFFB0000
00000000000000000000
00000000000000000000
4FFFFF10000008FFFFD0
4FFFFF10000008FFFFD0
4FFFFF10000008FFFFD0
4FFFFF10000008FFFFD0
4FFFFF10000008FFFFD0
4FFFFF10000008FFFFD0
4FFFFF10000008FFFFD0
4FFFFF10000008FFFFD0
4FFFFF10000008FFFFD0
4FFFFF10000008FFFFD0
4FFFFF10000008FFFFD0
4FFFFF1000000AFFFFD0
4FFFFF2000000DFFFFD0
4FFFFF5000002FFFFFD0
2FFFFFB00000BFFFFFD0
0EFFFFFB547DFFFFFFD0
09FFFFFFFFFFFFFFFFD0
02EFFFFFFFFFF7DFFFD0
003EFFFFFFFF70AFFFD0
00017BEFEC82006FFFD0
ENDCHAR
STARTCHAR Ubreve
ENCODING 364
SWIDTH 755 0
DWIDTH 27 0
BBX 22 34 3 0
BITMAP
0004FFC0000000BFF70000
0001FFF6000017FFF30000
0000BFFFECBCEFFFC00000
00003EFFFFFFFFFE300000
000004EFFFFFFFE4000000
00000017CEFEB710000000
0000000000000000000000
0000000000000000000000
EFFFF70000000004FFFFF2
EFFFF70000000004FFFFF2
EFFFF70000000004FFFFF2
EFFFF70000000004FFFFF2
EFFFF70000000004FFFFF2
EFFFF70000000004FFFFF2
EFFFF70000000004FFFFF2
EFFFF70000000004FFFFF2
EFFFF70000000004FFFFF2
EFFFF70000000004FFFFF2
EFFFF70000000004FFFFF2
EFFFF70000000004FFFFF2
EFFFF70000000004FFFFF2
EFFFF70000000004FFFFF2
EFFFF70000000004FFFFF2
EFFFF70000000004FFFFF2
EFFFF80000000005FFFFF2
DFFFFA0000000007FFFFF1
BFFFFD000000000AFFFFE0
8FFFFF500000002FFFFFB0
3FFFFFE5000003DFFFFF60
0BFFFFFFDA9ACFFFFFFD00
02EFFFFFFFFFFFFFFFF300
003EFFFFFFFFFFFFFE4000
0001AFFFFFFFFFFFA20000
0000027ADEFEDB72000000
ENDCHAR
STARTCHAR ubreve
ENCODING 365
SWIDTH 657 0
DWIDTH 24 0
BBX 19 28 2 0
BITMAP
001FFE00000008FF9000
000EFF8100006FFF6000
0008FFFECBCEFFFE1000
0001DFFFFFFFFFF50000
00002DFFFFFFFE500000
0000016BEFEC82000000
00000000000000000000
00000000000000000000
4FFFFF10000008FFFFD0
4FFFFF10000008FFFFD0
4FFFFF10000008FFFFD0
4FFFFF10000008FFFFD0
4FFFFF10000008FFFFD0
4FFFFF10000008FFFFD0
4FFFFF10000008FFFFD0
4FFFFF10000008FFFFD0
4FFFFF10000008FFFFD0
4FFFFF10000008FFFFD0
4FFFFF10000008FFFFD0
4FFFFF1000000AFFFFD0
4FFFFF2000000DFFFFD0
4FFFFF5000002FFFFFD0
2FFFFFB00000BFFFFFD0
0EFFFFFB547DFFFFFFD0
09FFFFFFFFFFFFFFFFD0
02EFFFFFFFFFF7DFFFD0
003EFFFFFFFF70AFFFD0
00017BEFEC82006FFFD0
ENDCHAR
STARTCHAR Uring
ENCODING 366
SWIDTH 755 0
DWIDTH 27 0
BBX 22 36 3 0
BITMAP
000000019DFEA200000000
0000001DFFFFFE30000000
0000008FFC8BFFB0000000
000000BFF100DFF0000000
000000BFF100DFF0000000
0000008FFC8BFFB0000000
0000001DFFFFFE30000000
000000019DFEA200000000
0000000000000000000000
0000000000000000000000
EFFFF70000000004FFFFF2
EFFFF70000000004FFFFF2
EFFFF70000000004FFFFF2
EFFFF70000000004FFFFF2
EFFFF70000000004FFFFF2
EFFFF70000000004FFFFF2
EFFFF70000000004FFFFF2
EFFFF70000000004FFFFF2
EFFFF70000000004FFFFF2
EFFFF70000000004FFFFF2
EFFFF70000000004FFFFF2
EFFFF70000000004FFFFF2
EFFFF70000000004FFFFF2
EFFFF70000000004FFFFF2
EFFFF70000000004FFFFF2
EFFFF70000000004FFFFF2
EFFFF80000000005FFFFF2
DFFFFA0000000007FFFFF1
BFFFFD000000000AFFFFE0
8FFFFF500000002FFFFFB0
3FFFFFE5000003DFFFFF60
0BFFFFFFDA9ACFFFFFFD00
02EFFFFFFFFFFFFFFFF300
003EFFFFFFFFFFFFFE4000
0001AFFFFFFFFFFFA20000
0000027ADEFEDB72000000
ENDCHAR
STARTCHAR uring
ENCODING 367
SWIDTH 657 0
DWIDTH 24 0
BBX 19 30 2 0
BITMAP
00000018DFEA30000000
000000CFFFFFF4000000
000006FFD8AFFD000000
000009FF200BFF200000
000009FF200BFF200000
000006FFD8AFFD000000
000000CFFFFFF4000000
00000018DFEB30000000
00000000000000000000
00000000000000000000
4FFFFF10000008FFFFD0
4FFFFF10000008FFFFD0
4FFFFF10000008FFFFD0
4FFFFF10000008FFFFD0
4FFFFF10000008FFFFD0
4FFFFF10000008FFFFD0
4FFFFF10000008FFFFD0
4FFFFF10000008FFFFD0
4FFFFF10000008FFFFD0
4FFFFF10000008FFFFD0
4FFFFF10000008FFFFD0
4FFFFF1000000AFFFFD0
4FFFFF2000000DFFFFD0
4FFFFF5000002FFFFFD0
2FFFFFB00000BFFFFFD0
0EFFFFFB547DFFFFFFD0
09FFFFFFFFFFFFFFFFD0
02EFFFFFFFFFF7DFFFD0
003EFFFFFFFF70AFFFD0
00017BEFEC82006FFFD0
ENDCHAR
STARTCHAR Uhungarumlaut
ENCODING 368
SWIDTH 755 0
DWIDTH 27 0
BBX 22 34 3 0
BITMAP
00000002FFFFF52FFFFF50
0000000AFFFF90AFFFF900
0000004FFFF904FFFF9000
000001DFFF801DFFF70000
000009FFF6009FFF500000
00002FFE4003FFE4000000
0000000000000000000000
0000000000000000000000
EFFFF70000000004FFFFF2
EFFFF70000000004FFFFF2
EFFFF70000000004FFFFF2
EFFFF70000000004FFFFF2
EFFFF70000000004FFFFF2
EFFFF70000000004FFFFF2
EFFFF70000000004FFFFF2
EFFFF70000000004FFFFF2
EFFFF70000000004FFFFF2
EFFFF70000000004FFFFF2
EFFFF70000000004FFFFF2
EFFFF70000000004FFFFF2
EFFFF70000000004FFFFF2
EFFFF70000000004FFFFF2
EFFFF70000000004FFFFF2
EFFFF70000000004FFFFF2
EFFFF80000000005FFFFF2
DFFFFA0000000007FFFFF1
BFFFFD000000000AFFFFE0
8FFFFF500000002FFFFFB0
3FFFFFE5000003DFFFFF60
0BFFFFFFDA9ACFFFFFFD00
02EFFFFFFFFFFFFFFFF300
003EFFFFFFFFFFFFFE4000
0001AFFFFFFFFFFFA20000
0000027ADEFEDB72000000
ENDCHAR
STARTCHAR uhungarumlaut
ENCODING 369
SWIDTH 657 0
DWIDTH 24 0
BBX 20 28 2 0
BITMAP
0000000CFFFF90CFFFF9
0000006FFFFC15FFFFC1
000001EFFFC11EFFFC10
000009FFFB109FFFB100
00004FFFA004FFF90000
0000DFF8000DFF700000
00000000000000000000
00000000000000000000
4FFFFF10000008FFFFD0
4FFFFF10000008FFFFD0
4FFFFF10000008FFFFD0
4FFFFF10000008FFFFD0
4FFFFF10000008FFFFD0
4FFFFF10000008FFFFD0
4FFFFF10000008FFFFD0
4FFFFF10000008FFFFD0
4FFFFF10000008FFFFD0
4FFFFF10000008FFFFD0
4FFFFF10000008FFFFD0
4FFFFF1000000AFFFFD0
4FFFFF2000000DFFFFD0
4FFFFF5000002FFFFFD0
2FFFFFB00000BFFFFFD0
0EFFFFFB547DFFFFFFD0
09FFFFFFFFFFFFFFFFD0
02EFFFFFFFFFF7DFFFD0
003EFFFFFFFF70AFFFD0
00017BEFEC82006FFFD0
ENDCHAR
STARTCHAR Uogonek
ENCODING 370
SWIDTH 755 0
DWIDTH 27 0
BBX 22 35 3 -9
BITMAP
EFFFF70000000004FFFFF2
EFFFF70000000004FFFFF2
EFFFF70000000004FFFFF2
EFFFF70000000004FFFFF2
EFFFF70000000004FFFFF2
EFFFF70000000004FFFFF2
EFFFF70000000004FFFFF2
EFFFF70000000004FFFFF2
EFFFF70000000004FFFFF2
EFFFF70000000004FFFFF2
EFFFF70000000004FFFFF2
EFFFF70000000004FFFFF2
EFFFF70000000004FFFFF2
EFFFF70000000004FFFFF2
EFFFF70000000004FFFFF2
EFFFF70000000004FFFFF2
EFFFF80000000005FFFFF2
DFFFFA0000000007FFFFF1
BFFFFD000000000AFFFFE0
8FFFFF500000002FFFFFB0
3FFFFFE5000003DFFFFF60
0BFFFFFFDA9ACFFFFFFD00
02EFFFFFFFFFFFFFFFF300
003EFFFFFFFFFFFFFE4000
0001AFFFFFFFFFFFA20000
0000027ADEFEDB72000000
0000000002DFF500000000
000000002EFF6000000000
00000000DFFB0000000000
00000005FFF40000000000
00000008FFF30000000000
00000007FFFB4540000000
00000003FFFFFF90000000
00000000AFFFFF90000000
0000000007CFEC60000000
ENDCHAR
STARTCHAR uogonek
ENCODING 371
SWIDTH 657 0
DWIDTH 24 0
BBX 19 29 2 -9
BITMAP
4FFFFF10000008FFFFD0
4FFFFF10000008FFFFD0
4FFFFF10000008FFFFD0
4FFFFF10000008FFFFD0
4FFFFF10000008FFFFD0
4FFFFF10000008FFFFD0
4FFFFF10000008FFFFD0
4FFFFF10000008FFFFD0
4FFFFF10000008FFFFD0
4FFFFF10000008FFFFD0
4FFFFF10000008FFFFD0
4FFFFF1000000AFFFFD0
4FFFFF2000000DFFFFD0
4FFFFF5000002FFFFFD0
2FFFFFB00000BFFFFFD0
0EFFFFFB547DFFFFFFD0
09FFFFFFFFFFFFFFFFD0
02EFFFFFFFFFF7DFFFD0
003EFFFFFFFF70AFFFD0
00017BEFEC82006FFFD0
00000000000002CFF600
0000000000002DFF8000
000000000000CFFC0000
000000000003FFF60000
000000000006FFF40000
000000000006FFFB4450
000000000002FFFFFFA0
0000000000008FFFFFA0
00000000000006CFED70
ENDCHAR
STARTCHAR Wcircumflex
ENCODING 372
SWIDTH 966 0
DWIDTH 35 0
BBX 35 34 0 0
BITMAP
00000000000002EFFFFFD000000000000000
0000000000000BFFFFFFF900000000000000
0000000000008FFFFDFFFF50000000000000
000000000006FFFF81CFFFF3000000000000
00000000005FFFF60009FFFE200000000000
0000000002FFFD3000005EFFD00000000000
000000000000000000000000000000000000
000000000000000000000000000000000000
DFFFF7000000004FFFFF200000000AFFFFA0
9FFFFB000000008FFFFF600000000EFFFF70
6FFFFE00000000CFFFFF900000002FFFFF30
2FFFFF20000001FFFFFFD00000006FFFFE00
0DFFFF60000005FFFFFFF20000009FFFFA00
09FFFF90000009FFFFFFF6000000CFFFF600
05FFFFD000000CFFFEFFFA000001FFFFF300
02FFFFF100001FFFF9FFFE000004FFFFE000
00DFFFF500005FFFF4FFFF200008FFFFA000
009FFFF800009FFFC1FFFF60000BFFFF6000
005FFFFC0000DFFF90CFFFA0000EFFFF2000
001FFFFF0002FFFF609FFFE0003FFFFE0000
000DFFFF4006FFFF306FFFF3006FFFFA0000
0009FFFF7009FFFE002FFFF700AFFFF60000
0005FFFFA00DFFFA000DFFFB00DFFFF20000
0001FFFFE02FFFF60009FFFE02FFFFE00000
0000DFFFF25FFFF20005FFFF25FFFFA00000
00009FFFF58FFFE00001FFFF58FFFF600000
00005FFFF7BFFFA00000DFFF7AFFFF200000
00001FFFFADFFF6000009FFFADFFFE000000
00000CFFFDFFFF2000005FFFDFFFFA000000
000009FFFFFFFD0000001FFFFFFFF6000000
000005FFFFFFFA0000000CFFFFFFF2000000
000001FFFFFFF600000009FFFFFFD0000000
000000CFFFFFF200000005FFFFFFA0000000
0000008FFFFFD000000001FFFFFF60000000
ENDCHAR
STARTCHAR wcircumflex
ENCODING 373
SWIDTH 855 0
DWIDTH 31 0
BBX 31 28 0 0
BITMAP
000000000002EFFFFFD0000000000000
00000000000BFFFFFFF9000000000000
00000000008FFFFDFFFF600000000000
0000000006FFFF81BFFFF40000000000
000000005FFFF60009FFFE3000000000
00000002FFFD3000005EFFE000000000
00000000000000000000000000000000
00000000000000000000000000000000
8FFFFC0000009FFFFF8000000EFFFF50
3FFFFF100000DFFFFFB000003FFFFF10
0EFFFF500002FFFFFFF000007FFFFB00
0AFFFF900006FFFFFFF40000BFFFF700
06FFFFD0000AFFFBFFF70000EFFFF300
02FFFFF2000DFFF4FFFB0004FFFFE000
00CFFFF5002FFFC1FFFE0008FFFF9000
008FFFF9006FFF80CFFF300CFFFF5000
004FFFFD00AFFF509FFF701FFFFF1000
000EFFFF10DFFF105FFFA04FFFFC0000
000BFFFF51FFFD002FFFD07FFFF70000
0007FFFF74FFF9000DFFF1AFFFF30000
0002FFFFA7FFF6000AFFF3DFFFE00000
0000DFFFC9FFF30007FFF6FFFFA00000
00009FFFEBFFE00003FFFAFFFF500000
00005FFFFEFFB00000FFFEFFFF100000
00001FFFFFFF700000CFFFFFFC000000
00000BFFFFFF4000009FFFFFF8000000
000007FFFFFF1000005FFFFFF3000000
000003FFFFFC0000002FFFFFE0000000
ENDCHAR
ENDFONT
